<svg xmlns="http://www.w3.org/2000/svg" viewBox="0 0 145 52"><title>bankgiroloterij</title><path d="M7.615,26.6195a3.38485,3.38485,0,0,0-2.327.629,1.58709,1.58709,0,0,0-.41,1.203c0,0.712.22,1.532,0.22,2.216,0,0.328-.22,1.149-0.22,1.75,0,0.411.109,0.711,0.438,0.711,2.299,0,4.734-1.531,4.734-4.019a2.54348,2.54348,0,0,0-2.435-2.49m0.301-7.959a3.3536,3.3536,0,0,0-3.175,3.282c0,0.164.164,1.012,0.164,1.23,0,0.465-.082,1.013-0.082,1.505,0,0.547.109,0.957,0.575,0.957,1.451,0,4.927-1.805,4.927-4.54a2.29088,2.29088,0,0,0-2.409-2.434m1.068,6.947a3.3891,3.3891,0,0,1,2.573,3.502c0,3.938-3.531,5.168-6.762,5.825a4.69021,4.69021,0,0,1-1.013.108,2.43167,2.43167,0,0,1-2.655-2.652c0-.274.191-1.669,0.191-1.97a5.47756,5.47756,0,0,0-.109-1.094,6.8657,6.8657,0,0,1-.137-1.396c0-.655.082-1.176,0.082-1.776,0-.931-0.246-1.232-0.246-2.052,0-.273.219-1.588,0.219-1.888a11.34362,11.34362,0,0,0-.438-1.833c0-.109.055-0.683,0.055-0.819,0-1.178-.493-1.589-0.493-2.546a0.99772,0.99772,0,0,1,.73664-1.20344L0.99,15.8125a3.03,3.03,0,0,1,2.792,1.313,8.06251,8.06251,0,0,1,1.808-1.204,5.384,5.384,0,0,1,2.107-.355c2.902,0,4.544,2.107,4.544,4.873a6.22656,6.22656,0,0,1-3.257,5.168" style="fill:#010101"/><path d="M14.767,31.6035a1.197,1.197,0,0,0,1.317,1.208,2.33517,2.33517,0,0,0,1.728-.799,1.74186,1.74186,0,0,0,.432-1.424v-1.272c0-.39,0-0.539-0.086-0.539a1.3624,1.3624,0,0,0-.497.193c-0.475.237-.992,0.519-1.489,0.777a2.21017,2.21017,0,0,0-1.404,1.834v0.022H14.767Zm3.476-5.285c0-.907-0.043-1.728-1.209-1.728a2.31982,2.31982,0,0,0-2.203,1.684,1.60535,1.60535,0,0,1-.819.905,3.21163,3.21163,0,0,1-.93.238,0.3729,0.3729,0,0,1-.432-0.41c0-1.165,2.052-3.021,4.945-3.021a3.8492,3.8492,0,0,1,2.332.626c0.432,0.366.432,0.711,0.432,1.705v4.832c0,0.604.043,1.575,0.713,1.575a0.87314,0.87314,0,0,0,.626-0.26,0.74619,0.74619,0,0,1,.367-0.279c0.108,0,.152.15,0.152,0.323,0,0.495-1.339,1.424-2.312,1.424a1.79625,1.79625,0,0,1-1.403-1.144,0.5584,0.5584,0,0,0-.281-0.28c-0.108,0-.562.432-1.145,0.799a4.43968,4.43968,0,0,1-2.311.732,1.942,1.942,0,0,1-2.13034-1.73331q-0.00511-.04974-0.00766-0.09969c0-1.511,1.728-2.331,3.132-3.021,0.561-.238,1.101-0.497,1.684-0.777,0.799-.367.799-0.409,0.799-1.122v-0.968h0.001Z" style="fill:#010101"/><path d="M24.49,27.5255c0-1.187-.087-1.424-0.8-1.444-0.409-.023-0.583-0.043-0.583-0.261,0-.302.324-0.323,0.605-0.388a5.52736,5.52736,0,0,0,2.202-1.186,0.717,0.717,0,0,1,.454-0.324c0.216,0,.216.193,0.216,0.41v0.927c0,0.259,0,.389.086,0.389a12.65833,12.65833,0,0,0,1.08-.798,3.89234,3.89234,0,0,1,2.375-.863,3.18334,3.18334,0,0,1,2.462,1.058,4.05576,4.05576,0,0,1,.713,2.848v3.667c0,1.036.021,1.619,0.95,1.662,0.259,0.021.604,0.043,0.604,0.345a0.27528,0.27528,0,0,1-.302.281c-0.67,0-1.663-.087-2.376-0.087-0.734,0-1.425.087-2.008,0.087a0.27962,0.27962,0,0,1-.345-0.281c0-.279.302-0.302,0.539-0.345,0.82-.043.82-0.583,0.82-1.662v-3.474a3.89,3.89,0,0,0-.324-1.92,2.08452,2.08452,0,0,0-1.792-.906,2.56307,2.56307,0,0,0-1.879.798,2.10348,2.10348,0,0,0-.583,1.748v3.754c0,1.079,0,1.619.844,1.662,0.193,0.021.539,0.043,0.539,0.324a0.30807,0.30807,0,0,1-.346.302c-0.604,0-1.447-.087-2.203-0.087-0.842,0-1.532.087-2.158,0.087a0.29545,0.29545,0,0,1-.34377-0.23749L22.933,33.5885c0-.323.324-0.346,0.605-0.366,0.95-.043.95-0.583,0.95-1.92v-3.777H24.49Z" style="fill:#010101"/><path d="M36.862,21.5055c0-1.122-.302-1.144-1.037-1.188-0.302-.043-0.474-0.086-0.474-0.301,0-.195.193-0.281,0.453-0.303a6.785,6.785,0,0,0,2.418-.713,1.116,1.116,0,0,1,.519-0.237c0.216,0,.237.108,0.237,0.454v9.019c0,0.237,0,.496.13,0.496a1.46386,1.46386,0,0,0,.561-0.388q1.266-1.002,2.527-2.007a2.03552,2.03552,0,0,0,.864-1.035c0-.367-0.433-0.389-0.735-0.432-0.237,0-.777.021-0.777-0.366,0-.259.194-0.259,0.519-0.259,0.562,0.042,1.23.063,1.899,0.063,0.757,0,1.534-.021,2.117-0.063,0.389,0,.54,0,0.54.279,0,0.28-.26.302-0.54,0.324a3.80967,3.80967,0,0,0-2.224.992c-0.475.367-1.037,0.798-1.534,1.165a1.223,1.223,0,0,0-.496.561,1.362,1.362,0,0,0,.345.562c0.994,1.294,1.987,2.61,2.958,3.904,0.605,0.82.973,1.165,1.404,1.165,0.281,0.022.67,0.065,0.67,0.347a0.32763,0.32763,0,0,1-.411.301c-0.776,0-1.554-.086-2.332-0.086-0.756,0-1.555.086-2.332,0.086a0.26116,0.26116,0,0,1-.323-0.28,0.4422,0.4422,0,0,1,.497-0.324c0.259-.021.561-0.063,0.561-0.388a2.15169,2.15169,0,0,0-.453-0.841q-0.843-1.1655-1.684-2.33a1.75011,1.75011,0,0,0-.713-0.734,1.532,1.532,0,0,0-1.037,1.058v2.158a0.85242,0.85242,0,0,0,.756,1.057c0.216,0.021.647,0.065,0.647,0.324a0.31245,0.31245,0,0,1-.389.301c-0.69,0-1.425-.086-2.094-0.086-0.756,0-1.534.086-2.289,0.086a0.2946,0.2946,0,0,1-.367-0.259c0-.346.345-0.346,0.626-0.366,0.928-.022.993-0.453,0.993-1.424V21.5055Z" style="fill:#010101"/><path d="M55.223,35.2775a4.44138,4.44138,0,0,1-3.859-1.86,3.70131,3.70131,0,0,0-1.423-1.723c-1.232-.82-0.768-2.134-1.78-3.146a1.433,1.433,0,0,1-.383-0.984,1.27279,1.27279,0,0,1,.137-0.574,0.92275,0.92275,0,0,0,.137-0.52c0-.329-0.108-0.63-0.108-0.957a7.412,7.412,0,0,1,1.478-4.103c1.834-2.873,4.243-4.105,7.363-5.255a2.15335,2.15335,0,0,1,.712-0.164c0.328,0,.493.137,0.493,0.329a1.05128,1.05128,0,0,1-.739.737,30.28758,30.28758,0,0,0-2.847,1.426c-2.272,1.34-2.491,3.228-2.491,5.414,0,2.955.055,3.229,1.313,5.007,0.985,1.366,2.326,3.363,3.777,3.363,1.04,0,2.081-1.477,2.108-3.2,0.026-2.051-3.86-1.504-3.888-2.98-0.026-.957,2.245-1.641,3.97-1.641,0.93,0,1.725.164,1.725,2.324-0.001,5.962-2.657,8.507-5.695,8.507" style="fill:#010101"/><path d="M64.304,22.3035a1.2841,1.2841,0,1,1,.022,0H64.304Zm-1.036,5.243c0-1.273-.087-1.51-0.863-1.532-0.453-.021-0.605-0.021-0.605-0.259,0-.302.303-0.323,0.627-0.388a6.32794,6.32794,0,0,0,2.311-1.165,0.70492,0.70492,0,0,1,.453-0.28c0.194,0,.217.129,0.217,0.366,0,0.324-.022.647-0.022,1.014v6.257c0,1.122.022,1.618,0.95,1.683,0.259,0.021.604,0.021,0.604,0.325a0.27368,0.27368,0,0,1-.302.279c-0.67,0-1.49-.086-2.225-0.086-1.102,0-1.749.086-2.397,0.086a0.29555,0.29555,0,0,1-.367-0.259c0-.346.347-0.346,0.627-0.366,0.993-.021.993-0.454,0.993-1.748v-3.927H63.268Z" style="fill:#010101"/><path d="M69.274,27.6545c0-1.271-.086-1.531-0.821-1.574-0.453-.043-0.603-0.043-0.603-0.259,0-.302.237-0.325,0.69-0.432a5.42831,5.42831,0,0,0,2.051-1.101,0.885,0.885,0,0,1,.54-0.366c0.26,0,.26.193,0.26,0.431v1.015c0,0.301,0,.409.107,0.409a6.054,6.054,0,0,0,.734-0.755,2.70373,2.70373,0,0,1,1.876-.928,1.27107,1.27107,0,0,1,1.37764,1.1547q0.00327,0.03708.00436,0.0743a1.06708,1.06708,0,0,1-1.031,1.102q-0.035.00116-.07,0a1.10881,1.10881,0,0,1-.863-0.454,1.02466,1.02466,0,0,0-.712-0.433,1.3947,1.3947,0,0,0-1.015.758,3.121,3.121,0,0,0-.409,1.962v3.302c0,1.057.021,1.64,1.101,1.661,0.302,0.021.776,0.021,0.776,0.345,0,0.216-.194.281-0.475,0.281-0.604,0-1.488-.087-2.438-0.087-0.973,0-1.729.087-2.333,0.087a0.29559,0.29559,0,0,1-.367-0.26c0-.346.346-0.346,0.627-0.366,0.993-.021.993-0.562,0.993-1.92v-3.647Z" style="fill:#010101"/><path d="M81.013,33.4375c2.07,0,3.107-2.547,3.107-4.25,0-2.245-1.102-4.597-3.259-4.597-1.985,0-3.215,1.834-3.215,4.144,0,2.328,1.273,4.703,3.345,4.703h0.022Zm-0.152.604a5.20137,5.20137,0,0,1-5.454-4.9358q-0.00334-.06707-0.005-0.1342a5.13258,5.13258,0,0,1,5.26977-4.99163q0.09469,0.00257.18923,0.00863c3.776,0,5.523,2.675,5.523,4.94a5.23429,5.23429,0,0,1-5.34742,5.11866q-0.07733-.00169-0.15458-0.00566H80.861Z" style="fill:#010101"/><path d="M88.544,31.9505c0-.521-0.356-1.067-0.356-1.56,0-1.094.192-2.188,0.192-3.282,0-.957-0.219-2.134-0.219-3.09,0-.794.219-1.587,0.246-2.406,0.026-.302.026-0.63,0.026-0.931,0-.52-0.19-2.002-0.19-2.603,0-.685.164-0.767,0.848-1.204a6.896,6.896,0,0,1,2.213-.548c0.82,0,1.147,1.067,1.147,1.724,0,1.041-.246.989-0.246,2.029,0,0.246.11,0.465,0.11,0.711,0,0.438-.247.821-0.247,1.257,0,0.411.191,0.794,0.191,1.204a23.50546,23.50546,0,0,0-.164,2.927c0,1.695.109,3.418,0.138,4.514,0,0.383-.109.737-0.109,1.121,0,1.559,6.5.355,6.5,1.586,0,1.066-3.249,1.12-4.124,1.12-1.529,0-3.497.329-5.028,0.329-1.01,0-1.42-.273-1.42-1.258a15.49564,15.49564,0,0,1,.492-1.587v-0.053Z" style="fill:#010101"/><path d="M103.897,33.4375c2.071,0,3.108-2.547,3.108-4.25,0-2.245-1.102-4.597-3.26-4.597-1.983,0-3.213,1.834-3.213,4.144,0,2.328,1.272,4.703,3.343,4.703h0.022Zm-0.151.604a5.19844,5.19844,0,0,1-5.45-4.934q-0.00338-.06794-0.005-0.136a5.12951,5.12951,0,0,1,5.26376-4.99165q0.0957,0.00254.19124,0.00865c3.778,0,5.527,2.675,5.527,4.94a5.23635,5.23635,0,0,1-5.35145,5.11867q-0.07681-.00171-0.15355-0.00567h-0.022Z" style="fill:#010101"/><path d="M113.503,30.6545c0,1.057.129,2.265,1.188,2.265a1.71149,1.71149,0,0,0,.993-0.344,2.41338,2.41338,0,0,1,.583-0.347,0.21567,0.21567,0,0,1,.216.21531V32.4455c0,0.431-1.274,1.596-2.809,1.596a2.28977,2.28977,0,0,1-1.727-.669c-0.54-.604-0.562-1.187-0.562-2.567v-5.351c0-.39-0.086-0.432-0.323-0.432h-0.584c-0.259,0-.475-0.044-0.475-0.28a0.45461,0.45461,0,0,1,.41-0.41,4.71834,4.71834,0,0,0,2.418-2.353,0.44853,0.44853,0,0,1,.411-0.387,0.2561,0.2561,0,0,1,.259.322v1.792c0,0.28.022,0.453,0.347,0.474,0.604,0,1.575-.043,2.201-0.043,0.238,0,.238.151,0.238,0.41,0,0.475-.064.54-0.367,0.54-0.497,0-1.124-.043-1.642-0.043-0.669,0-.777,0-0.777.561v5.049h0.002Z" style="fill:#010101"/><path d="M119.139,27.0295c0,0.259.151,0.323,0.669,0.323,0.497,0,1.037,0,1.556-.021a7.89175,7.89175,0,0,0,2.181-.259,0.80062,0.80062,0,0,0,.67-0.821,1.89365,1.89365,0,0,0-2.03955-1.73553q-0.04936.004-.09845,0.01053a2.99876,2.99876,0,0,0-2.938,2.481v0.022Zm0.691,1.013c-0.734,0-.842,0-0.842.604a3.92661,3.92661,0,0,0,3.65958,4.1766q0.11357,0.00749.22742,0.0084a3.70057,3.70057,0,0,0,2.375-.798,2.27629,2.27629,0,0,1,.691-0.517,0.22529,0.22529,0,0,1,.237.236,2.62682,2.62682,0,0,1-.842,1.036,5.11033,5.11033,0,0,1-3.542,1.251,4.94008,4.94008,0,0,1-5.0936-4.78164q-0.00285-.09015-0.0024-0.18036c0-3.453,3.044-5.092,5.57-5.092,2.679,0,4.061,1.747,4.061,3.495,0,0.41-.151.561-0.432,0.561H119.83v0.001Z" style="fill:#010101"/><path d="M128.468,27.6545c0-1.271-.087-1.531-0.821-1.574-0.452-.043-0.604-0.043-0.604-0.259,0-.302.237-0.325,0.69-0.432a5.432,5.432,0,0,0,2.052-1.101,0.8799,0.8799,0,0,1,.54-0.366c0.259,0,.259.193,0.259,0.431v1.015c0,0.301,0,.409.108,0.409a6.2094,6.2094,0,0,0,.734-0.755,2.70856,2.70856,0,0,1,1.878-.928,1.2714,1.2714,0,0,1,1.37859,1.1543q0.00332,0.03728.00441,0.0747a1.06733,1.06733,0,0,1-1.03148,1.102q-0.03525.00116-.07053,0a1.11245,1.11245,0,0,1-.864-0.454,1.02061,1.02061,0,0,0-.713-0.433,1.3929,1.3929,0,0,0-1.015.758,3.11638,3.11638,0,0,0-.41,1.963v3.301c0,1.057.021,1.64,1.101,1.661,0.304,0.021.778,0.021,0.778,0.345,0,0.216-.195.281-0.475,0.281-0.605,0-1.49-.087-2.44-0.087-0.972,0-1.728.087-2.332,0.087a0.2952,0.2952,0,0,1-.367-0.26c0-.346.346-0.346,0.625-0.366,0.994-.021.994-0.562,0.994-1.92v-3.647h0.001Z" style="fill:#010101"/><path d="M137.61,22.3035a1.28459,1.28459,0,1,1,.021,0H137.61Zm-1.036,5.243c0-1.273-.086-1.51-0.864-1.532-0.453-.021-0.604-0.021-0.604-0.259,0-.302.303-0.323,0.627-0.388a6.308,6.308,0,0,0,2.31-1.165,0.709,0.709,0,0,1,.454-0.28c0.194,0,.216.129,0.216,0.366,0,0.324-.021.647-0.021,1.014v6.257c0,1.122.021,1.618,0.95,1.683,0.259,0.021.604,0.021,0.604,0.325a0.27369,0.27369,0,0,1-.302.279c-0.669,0-1.49-.086-2.226-0.086-1.101,0-1.749.086-2.396,0.086a0.29553,0.29553,0,0,1-.367-0.259c0-.346.346-0.346,0.626-0.366,0.994-.021.994-0.454,0.994-1.748v-3.927h-0.001Z" style="fill:#010101"/><path d="M143.206,22.3035a1.2619,1.2619,0,1,1,1.274-1.293,1.23756,1.23756,0,0,1-1.18074,1.29187q-0.03612.00162-.07227,0.00113h-0.021Zm1.079,11.436a4.19546,4.19546,0,0,1-.929,3.107,7.96769,7.96769,0,0,1-2.895,2.179,0.24435,0.24435,0,0,1-.25864-0.22916L140.202,38.7875a0.59111,0.59111,0,0,1,.41-0.474,3.42561,3.42561,0,0,0,1.556-3.258v-7.682c0-1.1-.086-1.337-0.864-1.381-0.366-.021-0.584-0.021-0.584-0.259,0-.281.304-0.324,0.671-0.41a5.22155,5.22155,0,0,0,2.072-1.057,1.06723,1.06723,0,0,1,.583-0.345c0.238,0,.238.15,0.238,0.409v9.409h0.001Z" style="fill:#010101"/></svg>