<svg xmlns="http://www.w3.org/2000/svg" viewBox="0 0 142 52"><title>ministerie_buitenlandse</title><path d="M13.275,33.5995c-0.098.19-.229,0.201-0.327,0.099-0.006-.066.124-0.111,0.327-0.099m-0.554.399c0.199-.139.462-0.111,0.418,0.146a0.40653,0.40653,0,0,1-.291.056,0.34752,0.34752,0,0,0,.032.115,0.1262,0.1262,0,0,0-.018.136,0.67131,0.67131,0,0,1,.341-0.079c0.05,0.123.005,0.286-.349,0.343a0.68868,0.68868,0,0,0-.73068.64394L12.122,35.3945a1.50664,1.50664,0,0,1,.828.265,0.99945,0.99945,0,0,0,.845-0.076,0.33153,0.33153,0,0,1,.039-0.465,0.25584,0.25584,0,0,0,.383.097,0.016,0.016,0,0,0,.00625-0.02175L14.217,35.1875a0.3288,0.3288,0,0,1-.127-0.477,0.20621,0.20621,0,0,0,.349-0.091c0.001-.008-0.006-0.01-0.013-0.006a0.19484,0.19484,0,0,1-.22-0.229,1.14834,1.14834,0,0,0-.086-0.699,1.00437,1.00437,0,0,1,.418-0.215c0.026-.004.028-0.025-0.002-0.039a3.84876,3.84876,0,0,1-.436-0.052,3.88744,3.88744,0,0,0-.066-0.401,3.39084,3.39084,0,0,0-.368.175,4.22464,4.22464,0,0,1-.291-0.328c-0.027-.018-0.045-0.004-0.033.021a0.986,0.986,0,0,1,.062.465c-0.312-.027-0.418.091-0.437,0.177a0.88292,0.88292,0,0,0-.369.244,0.09879,0.09879,0,0,0,.045.076,0.22523,0.22523,0,0,0,.078.19" style="fill:#010101"/><path d="M12.157,33.9925c-0.005-.022-0.024-0.021-0.031.002a0.23437,0.23437,0,0,0,.211.313c0.19,0,.204-0.138.503-0.177a0.023,0.023,0,0,0,.004-0.045,0.87974,0.87974,0,0,0-.317.015c-0.235.06-.351-0.027-0.37-0.108" style="fill:#010101"/><path d="M19.664,31.6405c-0.366-.02-0.524.018-0.539,0.175a0.30006,0.30006,0,0,0,.539-0.175" style="fill:#010101"/><path d="M6.726,31.8155c-0.015-.157-0.172-0.194-0.539-0.175a0.3,0.3,0,0,0,.539.175" style="fill:#010101"/><rect x="14.948" y="33.3995" width="0.448" height="1.243" style="fill:#010101"/><path d="M10.662,34.7505l-0.183.25c-0.04.055,0.151,0.193,0.191,0.14l0.239-.327s0.773,0.414.966,0.533a0.83156,0.83156,0,0,1,.163-0.435c-0.24-.066-0.724-0.224-0.724-0.224a0.22613,0.22613,0,0,1-.161.07,0.30275,0.30275,0,0,1-.229-0.186c-0.002-.006-0.002-0.01.007-0.006a0.15,0.15,0,0,0,.146.017l0.098-.134,0.219,0.101,0.102-.143-0.185-.062,0.878-1.232a0.91171,0.91171,0,0,0,.006-0.281,0.82865,0.82865,0,0,0-.265.096l-0.893,1.221-0.116-.155-0.104.142,0.166,0.175-0.082.113a0.3332,0.3332,0,0,0-.413.084c-0.006.006-.004,0.009,0.003,0.008,0.054-.015.261-0.06,0.26,0.079a0.26428,0.26428,0,0,0-.342.133c-0.005.01,0,.013,0.006,0.012a0.281,0.281,0,0,1,.247.011" style="fill:#010101"/><path d="M23.547,35.0215a0.85248,0.85248,0,0,1-.361-0.075c-0.033-.02-0.051.013-0.035,0.03a0.64752,0.64752,0,0,1,.103.601c-0.015.019-.034,0.014-0.037-0.002a0.88031,0.88031,0,0,0-.838-0.665,0.4911,0.4911,0,0,0-.526.557c0,0.65,1.142,1.126,1.142,2.02a1.122,1.122,0,0,1-1.511.956c0.031,0.906,1.069,1.216,1.101.566,0.003-.031.025-0.038,0.042,0.003a0.44363,0.44363,0,0,1-.324.692c-0.027.006-.015,0.021,0.01,0.039,0.4,0.254.185,1.253,0.164,1.547a0.33294,0.33294,0,0,0,.427.361c0.017-.008.034,0.002,0.007,0.035a0.45238,0.45238,0,0,1-.637.05923q-0.01614-.01339-0.031-0.02824c-0.279.088-.106,0.325,0.08,0.45,0.028,0.02.026,0.039-.004,0.041a0.49591,0.49591,0,0,1-.552-0.305,0.454,0.454,0,0,1-.53.114,0.33154,0.33154,0,0,0-.528.266c-0.002.033-.022,0.012-0.034-0.005a0.37206,0.37206,0,0,1,.203-0.65,0.30825,0.30825,0,0,0-.48.058c-0.014.02-.028,0.023-0.03-0.015a0.36044,0.36044,0,0,1,.627-0.32c0.013-.05.098-0.323-0.289-0.314-0.01,0-.028-0.013-0.009-0.033a0.36744,0.36744,0,0,1,.605.041,0.61264,0.61264,0,0,0,.498.091c-0.104-1.693-1.596-1.094-1.802-1.917-0.009-.044-0.029-0.028-0.033-0.012a0.37039,0.37039,0,0,1-.656-0.167c-0.005-.024-0.002-0.043.017-0.025,0.432,0.432,1.404-.917.077-2.013a1.92516,1.92516,0,0,0-2.535-.106,0.15508,0.15508,0,0,0,.10371.19324L16.978,37.0915c0.02,0.006.025,0.023-.005,0.035a0.28933,0.28933,0,0,1-.331-0.073,0.2543,0.2543,0,0,0,.064.443c0.023,0.016.014,0.032-.007,0.036a0.39092,0.39092,0,0,1-.417-0.319l-0.038.021v0.963c0,1.371-1.581,1.56-3.316,2.723-1.735-1.163-3.315-1.352-3.315-2.723v-0.963l-0.038-.021a0.39054,0.39054,0,0,1-.416.319c-0.021-.004-0.032-0.021-0.007-0.036,0.099-.06.307-0.273,0.063-0.443a0.28894,0.28894,0,0,1-.332.073c-0.029-.012-0.022-0.029-0.005-0.035a0.15639,0.15639,0,0,0,.11338-0.1899L8.99,36.8965a1.92787,1.92787,0,0,0-2.536.106c-1.327,1.096-.354,2.444.078,2.013,0.017-.018.02,0.001,0.015,0.025a0.37037,0.37037,0,0,1-.656.167c-0.004-.017-0.022-0.032-0.032.012-0.205.823-1.697,0.224-1.803,1.917a0.61442,0.61442,0,0,0,.499-0.091,0.368,0.368,0,0,1,.605-0.041c0.02,0.021.001,0.033-.008,0.033-0.389-.009-0.303.265-0.29,0.314a0.361,0.361,0,0,1,.628.32c-0.003.038-.018,0.034-0.032,0.015a0.30963,0.30963,0,0,0-.48-0.058,0.37193,0.37193,0,0,1,.204.65c-0.013.017-.032,0.038-0.034,0.005a0.3309,0.3309,0,0,0-.527-0.266,0.46015,0.46015,0,0,1-.532-0.114,0.49323,0.49323,0,0,1-.55.305c-0.031-.002-0.034-0.021-0.005-0.041,0.186-.125.358-0.362,0.08-0.45a0.45136,0.45136,0,0,1-.63832.00048q-0.01508-.015-0.02868-0.03148c-0.027-.033-0.011-0.043.007-0.035a0.33227,0.33227,0,0,0,.426-0.361c-0.021-.294-0.237-1.293.163-1.547,0.025-.019.039-0.033,0.011-0.039a0.44417,0.44417,0,0,1-.325-0.692c0.019-.041.04-0.034,0.042-0.003,0.032,0.649,1.069.34,1.103-.566a1.12172,1.12172,0,0,1-1.511-.956c0-.894,1.14-1.369,1.14-2.02a0.49115,0.49115,0,0,0-.525-0.557,0.87846,0.87846,0,0,0-.838.665c-0.004.016-.022,0.021-0.038,0.002a0.64842,0.64842,0,0,1,.104-0.601c0.015-.018-0.003-0.05-0.035-0.03a0.86777,0.86777,0,0,1-.363.075,0.48263,0.48263,0,0,1-.544-0.519,3.45372,3.45372,0,0,0,.042-0.371c-0.015-.031.023-0.054,0.042-0.015a0.51843,0.51843,0,0,0,.507.362c0.004,0,.747.002,0.871,0.002a0.96321,0.96321,0,0,1,1.063.981c0,0.797-1.013,1.144-1.013,1.954a0.51611,0.51611,0,0,0,.62.507,1.57213,1.57213,0,0,0,.578-0.12,3.529,3.529,0,0,1,.921-1.91,1.88586,1.88586,0,0,0,1.603-.04c0.61-.329.896-0.551,1.43-0.182s1,0.766,1.06.756l0.127-.025v-3.189a0.21622,0.21622,0,0,0-.254.255,0.33115,0.33115,0,0,1-.074.385c-0.015.019-.033,0.012-0.035-0.01a0.169,0.169,0,0,0-.126-0.172,2.79564,2.79564,0,0,0-.787.61,1.29505,1.29505,0,0,0-.632-0.735c0.253-.039,1.346-0.305,1.346-0.782a0.24074,0.24074,0,0,1,.2811-0.19208L9.352,32.5755a0.354,0.354,0,0,1,.518-0.217,0.023,0.023,0,0,1-.006.042,0.33545,0.33545,0,0,0-.217.352c0.12-.037.39-0.114,0.764-0.196v1.018h0.447v-1.106a11.83948,11.83948,0,0,1,2.073-.192,12.03111,12.03111,0,0,1,3.285.478A0.33556,0.33556,0,0,0,16,32.4025a0.02281,0.02281,0,0,1-.006-0.042,0.35246,0.35246,0,0,1,.517.217,0.23888,0.23888,0,0,1,.29337.16752L16.809,32.7655c0,0.478,1.094.743,1.348,0.782a1.29317,1.29317,0,0,0-.634.735,2.78247,2.78247,0,0,0-.786-0.61,0.16742,0.16742,0,0,0-.125.172,0.0185,0.0185,0,0,1-.035.01,0.33226,0.33226,0,0,1-.075-0.385,0.21664,0.21664,0,0,0-.254-0.255v3.189l0.128,0.025c0.058,0.01.523-.387,1.058-0.756s0.821-.147,1.431.182a1.8853,1.8853,0,0,0,1.603.04,3.525,3.525,0,0,1,.92,1.91,1.56648,1.56648,0,0,0,.579.12,0.51568,0.51568,0,0,0,.62-0.507c0-.811-1.013-1.157-1.013-1.954a0.96451,0.96451,0,0,1,1.063-.981c0.125,0,.869-0.002.872-0.002a0.5159,0.5159,0,0,0,.506-0.362c0.021-.039.058-0.017,0.043,0.015a3.45342,3.45342,0,0,0,.042.371,0.49329,0.49329,0,0,1-.553.517m-3.359,8.951c-1.558.1-3.172,1.019-3.172,0.039v-0.577c1.222,0,1.4.39,1.4,0.446a0.27494,0.27494,0,0,0,.197-0.281v-0.686a4.924,4.924,0,0,1,1.807-.274,1.43374,1.43374,0,0,1,1.184.272l0.236,1.307a2.39657,2.39657,0,0,0-1.652-.246m-3.909-4.159c-0.022,0-.03-0.015-0.019-0.027,0.327-.352.573,0.09,0.629,0.161,0.13,0.174.6-.153,0.786-0.349a1.5281,1.5281,0,0,1-.414-0.83c0-.022.003-0.057,0.003-0.069,0-.014-0.006-0.018-0.017-0.012a0.30832,0.30832,0,0,1-.153.04c-0.094,0-.272-0.029-0.272-0.365,0-.026.012-0.024,0.022-0.01a0.176,0.176,0,0,0,.146.088c0.334,0,1.031-1.115,1.854-1.115a1.36361,1.36361,0,0,1,.827.378,0.26337,0.26337,0,0,0-.108.267,0.293,0.293,0,0,0,.242.243c0.021,0.005.022,0.021,0,.029a7.94468,7.94468,0,0,0-1.343.593,0.95984,0.95984,0,0,0-.046.964c0.114,0.44.357,0.38,0.447,0.365,0.012-.002.017,0.006,0.009,0.017a0.44357,0.44357,0,0,1-.351.181,1.8227,1.8227,0,0,1-.407-0.135,0.72731,0.72731,0,0,0-.581.476,0.38788,0.38788,0,0,0,.206.294c0.007,0.006.006,0.015-.006,0.017a0.4329,0.4329,0,0,1-.529-0.285c-0.198.253-.388,0.016-0.647,0.016a0.287,0.287,0,0,0-.31.297c-0.002.013-.013,0.017-0.025,0a0.36862,0.36862,0,0,1,.226-0.633,0.33651,0.33651,0,0,0-.47525.02487l-0.01675.02013a0.01538,0.01538,0,0,1-.029-0.009c0-.49.367-0.524,0.632-0.313a0.2552,0.2552,0,0,0-.28-0.319m-8.74,3.537c-0.027.03-.038,0-0.038-0.022v-1.329c0-.388,2.626-0.613,5.424-0.613s5.425,0.226,5.425.613l-0.001,1.329c0,0.022-.011.053-0.036,0.022-0.334-.378-2.88-0.509-5.388-0.509-2.507,0-5.053.131-5.386,0.509m-0.15-4.516a8.0633,8.0633,0,0,0-1.343-.593c-0.021-.009-0.02-0.024,0-0.029a0.29184,0.29184,0,0,0,.242-0.243,0.26519,0.26519,0,0,0-.108-0.267,1.35873,1.35873,0,0,1,.827-0.378c0.822,0,1.521,1.115,1.854,1.115a0.17463,0.17463,0,0,0,.145-0.088c0.011-.015.023-0.017,0.023,0.01,0,0.336-.18.365-0.274,0.365a0.30352,0.30352,0,0,1-.151-0.04c-0.013-.006-0.018-0.002-0.018.012,0,0.013.003,0.047,0.003,0.069a1.52812,1.52812,0,0,1-.414.83c0.188,0.195.655,0.522,0.786,0.349,0.056-.071.301-0.513,0.629-0.161,0.011,0.013.004,0.027-.019,0.027a0.25343,0.25343,0,0,0-.279.317c0.266-.212.633-0.178,0.633,0.313a0.01491,0.01491,0,0,1-.028.009,0.33644,0.33644,0,0,0-.47176-0.06184L9.405,40.40651a0.36848,0.36848,0,0,1,.225.633c-0.013.017-.023,0.013-0.025,0a0.28615,0.28615,0,0,0-.31-0.297c-0.26,0-.45.237-0.647-0.016a0.4322,0.4322,0,0,1-.529.285c-0.012-.002-0.014-0.011-0.005-0.017a0.38788,0.38788,0,0,0,.206-0.294,0.73017,0.73017,0,0,0-.582-0.476,1.81657,1.81657,0,0,1-.408.135,0.44319,0.44319,0,0,1-.35-0.181c-0.009-.009-0.005-0.017.008-0.015,0.09,0.015.333,0.075,0.445-.365a0.95593,0.95593,0,0,0-.044-0.964m1.445,5.177c0,0.979-1.613.061-3.17-.039a2.40065,2.40065,0,0,0-1.654.246l0.237-1.307a1.43165,1.43165,0,0,1,1.184-.272,4.95778,4.95778,0,0,1,1.808.274v0.686a0.27493,0.27493,0,0,0,.197.281c0-.057.179-0.446,1.398-0.446v0.577ZM4.093,33.4705c0.281,0.142.434-.161,0.365-0.473a1.00652,1.00652,0,0,1,.191-1.027,0.34747,0.34747,0,0,0,.563-0.309c-0.017-.045-0.047-0.052-0.047.006a0.22206,0.22206,0,0,1-.208.206,0.51372,0.51372,0,0,1-.45-0.426,0.78235,0.78235,0,0,1,1.174.328c0.017,0.06.09,0.055,0.084-.007a0.55486,0.55486,0,0,0-.303-0.468,0.227,0.227,0,0,1-.094-0.387c0.027-.028.079-0.023,0.063,0.006-0.099.17,0.112,0.247,0.404,0.21,0.618-.082.822,0.147,0.855,0.307a1.54041,1.54041,0,0,1,.659.438,0.1757,0.1757,0,0,1-.079.135,0.49907,0.49907,0,0,1-.152.369c-0.657-.396-0.839-0.026-0.771.237a0.98959,0.98959,0,0,0,.559.095,0.62268,0.62268,0,0,1-.059.206,0.22785,0.22785,0,0,1,.029.244,1.00956,1.00956,0,0,0-.62-0.153s-0.251.383,0.681,0.563a1.56549,1.56549,0,0,1,1.231,1.545,0.0271,0.0271,0,0,1-.032.033c-0.755-.142-1.101.643-2.082,0.554a0.74183,0.74183,0,0,0-.008-0.473,0.82841,0.82841,0,0,1-.395.414,1.02478,1.02478,0,0,1-.631-0.344,0.7181,0.7181,0,0,0,.13-0.858,0.55605,0.55605,0,0,1-.712.168c-0.043-.019-0.034-0.046-0.006-0.057a0.4703,0.4703,0,0,0,.188-0.813,0.3549,0.3549,0,0,1-.557-0.25c0.001-.031.016-0.026,0.03-0.019m4.067-1.122c0.007-.038.039-0.051,0.054,0.005a0.35835,0.35835,0,0,1-.371.486c-0.252,0-.393-0.181-0.752-0.242a0.417,0.417,0,0,1-.266-0.05,0.46322,0.46322,0,0,1,.266-0.049c0.373,0,.424.082,0.661,0.082a0.39388,0.39388,0,0,0,.408-0.232m1.952-3.711c0.311,0,.262.203,0.526,0.203,0.033,0,.067-0.009.067,0.015a0.23829,0.23829,0,0,1-.196.237,1.74535,1.74535,0,0,1-.287-0.162c-0.052,0-.127.042-0.127,0.209a1.58014,1.58014,0,0,0,.462.96,0.28119,0.28119,0,0,1,.229-0.129,0.32058,0.32058,0,0,1,.277.345,0.45968,0.45968,0,0,1-.036.183,0.48408,0.48408,0,0,0,.213.073,0.26224,0.26224,0,0,0,.283-0.294c0-.552-0.739-1.036-0.739-1.734a0.6458,0.6458,0,0,1,.62383-0.667q0.03209-.00107.06417,0.001c0.499,0,.406.456,0.839,0.456,0.02,0,.035.006,0.035,0.023a0.33548,0.33548,0,0,1-.299.28c-0.238,0-.307-0.413-0.518-0.413-0.079,0-.197.046-0.197,0.327a2.577,2.577,0,0,0,.262.908,0.31423,0.31423,0,0,1,.219-0.098,0.35621,0.35621,0,0,1,.31717.39137L12.13,29.7535a0.48731,0.48731,0,0,1-.145.353,0.50751,0.50751,0,0,0,.372.254,0.36945,0.36945,0,0,0,.43-0.355,2.61377,2.61377,0,0,1-.364-0.583,0.29911,0.29911,0,0,1,.26313-0.33121l0.00787-.0008a0.37084,0.37084,0,0,1,.229.094,0.38591,0.38591,0,0,1,.23-0.094,0.29911,0.29911,0,0,1,.2718.32413l-0.0008.00787a2.61275,2.61275,0,0,1-.365.583,0.37026,0.37026,0,0,0,.432.355,0.50942,0.50942,0,0,0,.371-0.254,0.48815,0.48815,0,0,1-.146-0.353,0.35759,0.35759,0,0,1,.318-0.393,0.30822,0.30822,0,0,1,.218.098,2.56076,2.56076,0,0,0,.263-0.908c0-.281-0.117-0.327-0.196-0.327-0.212,0-.279.413-0.52,0.413a0.33649,0.33649,0,0,1-.298-0.28c0-.018.017-0.023,0.036-0.023,0.432,0,.339-0.456.838-0.456a0.64523,0.64523,0,0,1,.688.666c0,0.698-.738,1.183-0.738,1.734a0.26224,0.26224,0,0,0,.283.294,0.49144,0.49144,0,0,0,.214-0.073,0.425,0.425,0,0,1-.037-0.183,0.322,0.322,0,0,1,.278-0.345,0.27982,0.27982,0,0,1,.229.129,1.58565,1.58565,0,0,0,.462-0.96c0-.167-0.075-0.209-0.127-0.209a1.74535,1.74535,0,0,1-.287.162,0.23735,0.23735,0,0,1-.196-0.237c0-.023.034-0.015,0.067-0.015,0.265,0,.216-0.203.527-0.203a0.47932,0.47932,0,0,1,.459.559c0,0.761-.938.989-0.72,1.573-0.399-.058-0.395.329-0.402,1.024a7.3363,7.3363,0,0,0-2.151-.263,7.32444,7.32444,0,0,0-2.15.263c-0.008-.695-0.003-1.082-0.401-1.024,0.218-.584-0.72-0.813-0.72-1.573a0.47822,0.47822,0,0,1,.459-0.559m3.158-.067a0.34463,0.34463,0,1,1,0-.00074v0.00074m-0.781-2.172a0.34808,0.34808,0,0,1,.194.064c0.082,0.057.129,0.048,0.155,0.021,0.027-.028.036-0.073-0.021-0.155a0.35377,0.35377,0,0,1-.064-0.195,0.17618,0.17618,0,1,1,.345,0,0.346,0.346,0,0,1-.064.195c-0.058.082-.048,0.127-0.021,0.155,0.027,0.026.072,0.035,0.155-.021a0.346,0.346,0,0,1,.195-0.064,0.176,0.176,0,1,1,0,.345,0.35378,0.35378,0,0,1-.195-0.064c-0.083-.058-0.128-0.049-0.155-0.021a2.1481,2.1481,0,0,0,.045.534,0.41341,0.41341,0,0,1,.347.346,0.72343,0.72343,0,0,1-.479.539,0.72224,0.72224,0,0,1-.478-0.539,0.41316,0.41316,0,0,1,.347-0.346,2.10006,2.10006,0,0,0,.045-0.534c-0.026-.028-0.073-0.037-0.155.021a0.356,0.356,0,0,1-.194.064,0.18919,0.18919,0,0,1-.21119-0.16426L12.279,26.5715a0.18663,0.18663,0,0,1,.19835-0.17413L12.489,26.3985m5.147,5.955c0.016-.056.047-0.043,0.056-0.005a0.39163,0.39163,0,0,0,.407.232c0.236,0,.287-0.082.661-0.082a0.46657,0.46657,0,0,1,.266.049,0.42468,0.42468,0,0,1-.266.05,7.74,7.74,0,0,1-.752.242,0.35887,0.35887,0,0,1-.372-0.486m1.524-.916c0.033-.159.236-0.389,0.854-0.307,0.292,0.037.503-.04,0.404-0.21-0.017-.029.035-0.034,0.063-0.006a0.22749,0.22749,0,0,1-.096.387,0.55977,0.55977,0,0,0-.303.468c-0.005.062,0.068,0.066,0.084,0.007a0.78354,0.78354,0,0,1,1.175-.328,0.51374,0.51374,0,0,1-.451.426,0.22283,0.22283,0,0,1-.208-0.206c0-.058-0.028-0.051-0.047-0.006a0.34881,0.34881,0,0,0,.564.309,1.00688,1.00688,0,0,1,.191,1.027c-0.068.312,0.084,0.614,0.365,0.473,0.014-.007.028-0.012,0.028,0.021a0.3553,0.3553,0,0,1-.558.25,0.4703,0.4703,0,0,0,.188.813c0.028,0.011.038,0.038-.005,0.057a0.55605,0.55605,0,0,1-.712-0.168,0.71525,0.71525,0,0,0,.128.858,1.018,1.018,0,0,1-.63.344,0.83249,0.83249,0,0,1-.395-0.414,0.74079,0.74079,0,0,0-.008.473c-0.981.089-1.327-.695-2.083-0.554-0.021.004-.031-0.011-0.031-0.033a1.56555,1.56555,0,0,1,1.23-1.545c0.932-.181.682-0.563,0.682-0.563a1.00637,1.00637,0,0,0-.62.153,0.23221,0.23221,0,0,1,.029-0.244,0.62266,0.62266,0,0,1-.059-0.206,0.99379,0.99379,0,0,0,.559-0.095c0.068-.264-0.115-0.634-0.772-0.237a0.49877,0.49877,0,0,1-.15-0.369,0.17683,0.17683,0,0,1-.081-0.135,1.57237,1.57237,0,0,1,.665-0.44M0.028,51.8425H25.823V0.2525H0.028v51.59Z" style="fill:#010101"/><path d="M15.692,35.2295a0.2511,0.2511,0,0,1-.258.199c-0.164,0-.448-0.083-0.642-0.083a0.46836,0.46836,0,0,0-.50079.43351Q14.29,35.79623,14.29,35.8135c0,0.43.448,0.508,0.448,0.921,0,0.306-.431.402-0.737,0.113a2.34732,2.34732,0,0,0-.35-0.913c-0.796.256-.952-0.249-1.383-0.249a9.95553,9.95553,0,0,0-1.212.735l0.053-.382,0.043-.008-0.012-.317s-0.085.205-.098,0.236c-0.011.024-.024,0.023-0.033,0.004-0.04-.095-0.121-0.278-0.121-0.278s-0.005.25-.006,0.305c0,0.019-.015.022-0.026,0.007l-0.19-.279s0.047,0.218.071,0.334c0.004,0.017-.01.022-0.021,0.012l-0.26-.245s0.071,0.177.135,0.334c0.007,0.015-.006.025-0.021,0.015l-0.285-.19s0.112,0.162.194,0.283c0.009,0.014.002,0.027-.018,0.021-0.17-.063-0.29-0.108-0.29-0.108s0.104,0.104.225,0.221c0.013,0.013.011,0.027-.014,0.027-0.046.001-.264,0.002-0.264,0.002l0.295,0.129,0.021-.03,0.253,0.065a0.20915,0.20915,0,0,0-.03.206l0.00994,0.00362L10.67,36.78551a0.28019,0.28019,0,0,1,.246-0.136c0.011,0,.011.004,0.005,0.007a0.271,0.271,0,0,0-.155.317,0.0084,0.0084,0,0,0,.01009.00628l0.00491-.00328a0.4506,0.4506,0,0,1,.225-0.145l-0.046.343a0.45852,0.45852,0,0,0,.579-0.399l-0.296-.068a2.0329,2.0329,0,0,1,1.143-.386,1.14812,1.14812,0,0,1,1.032,1.081,0.66057,0.66057,0,0,1-.088.362c-0.117.169-.207,0.131-0.248,0.089-0.011-.011-0.018-0.009-0.014.008,0.053,0.219.335,0.211,0.369,0.1,0.009-.027.022-0.019,0.025-0.008,0.145,0.521.793-.035,1.127,0.628a0.33568,0.33568,0,0,1-.277.035,0.19822,0.19822,0,0,0-.324.08c-0.005.013,0.001,0.017,0.01,0.014a0.24759,0.24759,0,0,1,.301.126,0.19947,0.19947,0,0,0-.275.276c0.005,0.014.014,0.013,0.02-.001a0.16477,0.16477,0,0,1,.239-0.109,0.203,0.203,0,0,0,.005.374c0.01,0.008.018,0.004,0.016-.008a0.171,0.171,0,0,1,.138-0.229,0.247,0.247,0,0,0,.259-0.157,0.28233,0.28233,0,0,0,.367.065c0.014-.006.016-0.019-0.003-0.022-0.119-.036-0.276-0.119-0.146-0.211a0.264,0.264,0,0,0,.3426-0.14838l0.0014-.00362c0.006-.015.001-0.021-0.012-0.014-0.014.007-.263,0.137-0.319-0.098a0.751,0.751,0,0,0-.191-0.478,0.19146,0.19146,0,0,0,.081-0.327c-0.008-.011-0.021-0.025-0.021-0.001-0.019.357-.764,0.061-0.781-0.438,0.525,0.131,1.047.005,1.047-.522a3.32267,3.32267,0,0,0-.49-0.975,0.21146,0.21146,0,0,1,.20858-0.2143q0.00721-.0001.01442,0.0003a0.59379,0.59379,0,0,1,.472.435c0.002,0.011.013,0.013,0.022,0.002a0.28022,0.28022,0,0,0,.024-0.313c-0.015-.013,0-0.034.021-0.02a0.365,0.365,0,0,0,.44218-0.26632l0.00182-.00768c0-.093-0.028-0.148-0.021-0.188a0.03542,0.03542,0,0,0-.07-0.008" style="fill:#010101"/><path d="M13.148,37.2825c0.015-.005.012-0.018-0.003-0.016a0.21279,0.21279,0,0,1-.125-0.378,0.70763,0.70763,0,0,0-.358-0.138,1.38586,1.38586,0,0,0-.928.612c-0.064.071-.191,0.194-0.271,0.085-0.01-.014-0.015-0.013-0.015.005a0.17072,0.17072,0,0,0,.25.183c0.006-.004.011-0.002,0.01,0.007a1.74433,1.74433,0,0,0,.116.617,0.76043,0.76043,0,0,1-.373.218,1.17282,1.17282,0,0,0-.266-0.188,0.18825,0.18825,0,0,0-.14.074c-0.006.006-.004,0.016,0.01,0.016a0.13891,0.13891,0,0,1,.154.175,0.1983,0.1983,0,0,0-.348.169c0,0.013.009,0.017,0.017,0.007a0.18207,0.18207,0,0,1,.255-0.03571l0.014,0.01171a0.20307,0.20307,0,0,0-.121.351c0.007,0.008.011,0.005,0.012-.003a0.16173,0.16173,0,0,1,.15936-0.16407L11.205,38.8905c0.147,0,.247.132,0.36-0.006a0.2338,0.2338,0,0,0,.29.154c0.005-.001.008-0.006,0.003-0.009a0.2075,0.2075,0,0,1-.114-0.162,0.42949,0.42949,0,0,1,.315-0.261,1.03593,1.03593,0,0,0,.232.074,0.24188,0.24188,0,0,0,.187-0.096c0.01-.011.007-0.016-0.007-0.013-0.166.037-.263-0.12-0.263-0.403,0.002-.543.292-0.642,0.94-0.886" style="fill:#010101"/><rect x="12.925" y="38.8825" width="0.448" height="1.244" style="fill:#010101"/><path d="M37.073,33.6905a3.721,3.721,0,0,1-.436.032,2.33161,2.33161,0,0,1-.258-0.009c-0.072,0-.145-0.008-0.217-0.008-0.073-.008-0.138-0.016-0.202-0.023a1.92709,1.92709,0,0,1-.209-0.041v-0.153a0.54791,0.54791,0,0,0,.475-0.611l-0.201-3.656H36.01l-1.434,4.47-0.314.04-1.449-4.502-0.008.008-0.25,4.035,0.523,0.137v0.177c-0.088.025-.169,0.048-0.233,0.065-0.073.016-.145,0.032-0.209,0.04a1.03753,1.03753,0,0,1-.226.023,2.25156,2.25156,0,0,1-.258.009,2.43633,2.43633,0,0,1-.307-0.024c-0.104-.016-0.217-0.032-0.313-0.057v-0.145a0.81917,0.81917,0,0,0,.338-0.177,0.44734,0.44734,0,0,0,.137-0.298l0.355-4.116-0.469-.137v-0.233c0.089-.008.187-0.023,0.282-0.032,0.098-.009.194-0.009,0.29-0.017,0.097,0,.193-0.008.282-0.008h0.532l1.264,3.905h0.008l1.224-3.905h0.347c0.145,0,.307,0,0.476.008s0.338,0.025.499,0.049v0.233l-0.499.122,0.354,4.429,0.467,0.088v0.177a1.25067,1.25067,0,0,1-.346.105" style="fill:#251f21"/><path d="M39.164,28.7705a0.44771,0.44771,0,0,1-.098.152,0.34388,0.34388,0,0,1-.145.105,0.33684,0.33684,0,0,1-.177.04,0.43573,0.43573,0,0,1-.169-0.031,0.56951,0.56951,0,0,1-.138-0.098,0.76461,0.76461,0,0,1-.089-0.145,0.49482,0.49482,0,0,1-.031-0.186,0.45226,0.45226,0,0,1,.031-0.177,0.4675,0.4675,0,0,1,.089-0.153,0.37692,0.37692,0,0,1,.146-0.104,0.49214,0.49214,0,0,1,.193-0.04,0.36249,0.36249,0,0,1,.161.032,0.35575,0.35575,0,0,1,.137.089,0.336,0.336,0,0,1,.089.136,0.43029,0.43029,0,0,1,.031.177,0.54374,0.54374,0,0,1-.03.203m0.152,4.872a1.57556,1.57556,0,0,1-.217.041c-0.072.008-.152,0.017-0.233,0.024-0.089,0-.178.007-0.282,0.007-0.088,0-.193-0.007-0.298-0.015a1.1243,1.1243,0,0,1-.307-0.058v-0.137a0.67493,0.67493,0,0,0,.161-0.072,0.78451,0.78451,0,0,0,.137-0.104,0.36558,0.36558,0,0,0,.098-0.121,0.27441,0.27441,0,0,0,.032-0.137v-2.723l-0.517-.217v-0.169a3.34165,3.34165,0,0,1,.532-0.113,2.28777,2.28777,0,0,1,.427-0.041h0.258l-0.041.437v3.06l0.451,0.121v0.153c-0.072.024-.136,0.048-0.201,0.064" style="fill:#251f21"/><path d="M43.064,33.7145c-0.082,0-.17-0.007-0.267-0.016a0.92137,0.92137,0,0,1-.257-0.056v-0.138a0.39915,0.39915,0,0,0,.217-0.192,0.66823,0.66823,0,0,0,.073-0.34v-1.537a2.1384,2.1384,0,0,0-.058-0.499,0.80419,0.80419,0,0,0-.169-0.339,0.624,0.624,0,0,0-.249-0.193,0.89463,0.89463,0,0,0-.33-0.057,1.54241,1.54241,0,0,0-.468.072,1.23765,1.23765,0,0,0-.361.178v2.706l0.45,0.12v0.153c-0.072.025-.137,0.049-0.201,0.065-0.072.016-.146,0.031-0.218,0.041-0.072.007-.152,0.015-0.241,0.023-0.08,0-.17.007-0.274,0.007-0.096,0-.201-0.007-0.306-0.016a1.183,1.183,0,0,1-.299-0.056v-0.138a0.53781,0.53781,0,0,0,.153-0.072,0.60118,0.60118,0,0,0,.138-0.104,0.49476,0.49476,0,0,0,.104-0.121,0.26661,0.26661,0,0,0,.032-0.137v-2.723l-0.523-.217v-0.178a3.53254,3.53254,0,0,1,.531-0.112,3.08758,3.08758,0,0,1,.435-0.032H41.17v0.435a1.49092,1.49092,0,0,1,.523-0.33,1.86634,1.86634,0,0,1,.668-0.121,1.18056,1.18056,0,0,1,.459.081,0.99864,0.99864,0,0,1,.354.241,1.14232,1.14232,0,0,1,.233.387,1.8895,1.8895,0,0,1,.081.548v2.255l0.419,0.12v0.153a2.24642,2.24642,0,0,1-.843.139" style="fill:#251f21"/><path d="M45.699,28.7705a0.44559,0.44559,0,0,1-.097.152,0.34692,0.34692,0,0,1-.146.105,0.33469,0.33469,0,0,1-.177.04,0.43909,0.43909,0,0,1-.169-0.031,0.56435,0.56435,0,0,1-.137-0.098,0.63528,0.63528,0,0,1-.088-0.145,0.459,0.459,0,0,1-.033-0.186,0.41971,0.41971,0,0,1,.033-0.177,0.43167,0.43167,0,0,1,.088-0.153,0.37361,0.37361,0,0,1,.145-0.104,0.49214,0.49214,0,0,1,.193-0.04,0.3668,0.3668,0,0,1,.162.032,0.35247,0.35247,0,0,1,.136.089,0.32614,0.32614,0,0,1,.089.136,0.41447,0.41447,0,0,1,.032.177,0.52455,0.52455,0,0,1-.031.203m0.154,4.872a1.63448,1.63448,0,0,1-.217.041c-0.073.008-.154,0.017-0.234,0.024-0.089,0-.177.007-0.282,0.007-0.088,0-.192-0.007-0.298-0.015a1.11683,1.11683,0,0,1-.306-0.058v-0.137a0.71207,0.71207,0,0,0,.161-0.072,0.82382,0.82382,0,0,0,.137-0.104,0.351,0.351,0,0,0,.097-0.121,0.26428,0.26428,0,0,0,.032-0.137v-2.723l-0.516-.217v-0.169a3.30778,3.30778,0,0,1,.531-0.113,2.29747,2.29747,0,0,1,.428-0.041h0.257l-0.04.437v3.06l0.451,0.121v0.153c-0.073.024-.137,0.048-0.201,0.064" style="fill:#251f21"/><path d="M48.96,33.0305a1.22444,1.22444,0,0,1-.306.371,1.46739,1.46739,0,0,1-.476.265,1.79462,1.79462,0,0,1-.612.097,1.37511,1.37511,0,0,1-.773-0.169,0.53946,0.53946,0,0,1-.249-0.492,1.48791,1.48791,0,0,1,.016-0.177,0.89539,0.89539,0,0,1,.057-0.153,1.96666,1.96666,0,0,0,.54.38,1.33636,1.33636,0,0,0,.596.129,0.79215,0.79215,0,0,0,.515-0.146,0.44253,0.44253,0,0,0,.169-0.354,0.48945,0.48945,0,0,0-.031-0.193,0.687,0.687,0,0,0-.112-0.169,1.32666,1.32666,0,0,0-.218-0.161,2.69848,2.69848,0,0,0-.33-0.161l-0.403-.169a1.26282,1.26282,0,0,1-.539-0.402,0.98874,0.98874,0,0,1-.186-0.597,1.05,1.05,0,0,1,.097-0.451,1.22361,1.22361,0,0,1,.29-0.378,1.4055,1.4055,0,0,1,.443-0.258,1.63161,1.63161,0,0,1,.571-0.097,1.90422,1.90422,0,0,1,.411.041,0.82661,0.82661,0,0,1,.281.096,0.42594,0.42594,0,0,1,.161.153,0.45988,0.45988,0,0,1,.049.21,0.97356,0.97356,0,0,1-.009.169c-0.007.056-.024,0.112-0.032,0.169a1.6928,1.6928,0,0,0-.443-0.217,1.36473,1.36473,0,0,0-.813-0.049,0.75539,0.75539,0,0,0-.234.104,0.55257,0.55257,0,0,0-.144.161,0.535,0.535,0,0,0-.041.193,0.74318,0.74318,0,0,0,.023.192,0.4624,0.4624,0,0,0,.105.162,0.63719,0.63719,0,0,0,.194.146,2.26973,2.26973,0,0,0,.305.136l0.435,0.169a2.2069,2.2069,0,0,1,.371.186,1.06547,1.06547,0,0,1,.249.218,1.22509,1.22509,0,0,1,.137.273,1.31331,1.31331,0,0,1,.041.322,1.00674,1.00674,0,0,1-.105.451" style="fill:#251f21"/><path d="M50.935,33.7475a0.93517,0.93517,0,0,1-.725-0.266,1.28965,1.28965,0,0,1-.233-0.854c0-.191,0-0.394.008-0.596,0.009-.209.009-0.402,0.017-0.588l0.023-1.07H49.583v-0.267l0.87-.861,0.266-.032-0.033.725H51.75l-0.058.436h-1.03l-0.017,1.014c0,0.169-.008.33-0.008,0.491v0.451a2.0328,2.0328,0,0,0,.032.411,0.76337,0.76337,0,0,0,.104.273,0.4037,0.4037,0,0,0,.153.146,0.41473,0.41473,0,0,0,.201.048,0.89075,0.89075,0,0,0,.33-0.056,1.07742,1.07742,0,0,0,.266-0.153l0.081,0.032a0.7384,0.7384,0,0,1-.869.716" style="fill:#251f21"/><path d="M54.541,30.8405a1.05356,1.05356,0,0,0-.169-0.363,0.66421,0.66421,0,0,0-.258-0.217,0.731,0.731,0,0,0-.322-0.073,0.65564,0.65564,0,0,0-.33.097,0.89739,0.89739,0,0,0-.29.25,1.40613,1.40613,0,0,0-.209.371,1.21332,1.21332,0,0,0-.081.45h1.725a1.90235,1.90235,0,0,0-.066-0.515m0.701,0.933H52.866a1.96279,1.96279,0,0,0,.089.604,1.39856,1.39856,0,0,0,.257.442,1.08178,1.08178,0,0,0,.379.282,1.12328,1.12328,0,0,0,.468.096,1.953,1.953,0,0,0,.298-0.023,1.85069,1.85069,0,0,0,.298-0.072,1.72945,1.72945,0,0,0,.29-0.105c0.089-.048.177-0.097,0.249-0.145a0.33625,0.33625,0,0,1,.024.089,0.5485,0.5485,0,0,1,.009.121,0.41043,0.41043,0,0,1-.098.265,0.86885,0.86885,0,0,1-.273.227,1.87754,1.87754,0,0,1-.436.152,2.573,2.573,0,0,1-.579.057,1.5654,1.5654,0,0,1-.645-0.129,1.53633,1.53633,0,0,1-.531-0.37,1.78492,1.78492,0,0,1-.363-0.58,2.316,2.316,0,0,1-.129-0.764,2.83955,2.83955,0,0,1,.146-0.937,2.12782,2.12782,0,0,1,.386-0.676,1.516,1.516,0,0,1,.532-0.41,1.41817,1.41817,0,0,1,.62-0.145,1.52387,1.52387,0,0,1,.588.104,1.257,1.257,0,0,1,.434.297,1.403,1.403,0,0,1,.274.476,1.95316,1.95316,0,0,1,.097.629v0.24c0,0.082,0,.18-0.008.275" style="fill:#251f21"/><path d="M58.277,30.3575a1.0219,1.0219,0,0,1-.098.241,0.89,0.89,0,0,0-.24-0.137,0.75091,0.75091,0,0,0-.259-0.049,1.022,1.022,0,0,0-.709.33v2.563l0.557,0.12v0.152a1.37352,1.37352,0,0,1-.209.064,1.40292,1.40292,0,0,1-.219.041c-0.08.008-.169,0.016-0.257,0.023-0.097,0-.202.009-0.314,0.009-0.121,0-.233-0.009-0.338-0.017a1.08867,1.08867,0,0,1-.307-0.057v-0.136a0.55336,0.55336,0,0,0,.153-0.073,0.61686,0.61686,0,0,0,.137-0.104,0.54479,0.54479,0,0,0,.105-0.121,0.27627,0.27627,0,0,0,.031-0.137v-2.72l-0.523-.218v-0.178a3.28244,3.28244,0,0,1,.532-0.111,2.95126,2.95126,0,0,1,.435-0.033h0.193v0.563h0.008l0.226-.25a1.13079,1.13079,0,0,1,.338-0.265,0.80319,0.80319,0,0,1,.371-0.089,0.339,0.339,0,0,1,.418.346,0.87983,0.87983,0,0,1-.031.243" style="fill:#251f21"/><path d="M59.918,28.7705a0.44559,0.44559,0,0,1-.097.152,0.34692,0.34692,0,0,1-.146.105,0.33469,0.33469,0,0,1-.177.04,0.43909,0.43909,0,0,1-.169-0.031,0.56435,0.56435,0,0,1-.137-0.098,0.63528,0.63528,0,0,1-.088-0.145,0.459,0.459,0,0,1-.033-0.186,0.41971,0.41971,0,0,1,.033-0.177,0.43167,0.43167,0,0,1,.088-0.153,0.37361,0.37361,0,0,1,.145-0.104,0.49214,0.49214,0,0,1,.193-0.04,0.3668,0.3668,0,0,1,.162.032,0.35247,0.35247,0,0,1,.136.089,0.32614,0.32614,0,0,1,.089.136,0.41447,0.41447,0,0,1,.032.177,0.5439,0.5439,0,0,1-.031.203m0.153,4.872a1.63448,1.63448,0,0,1-.217.041c-0.073.008-.154,0.017-0.234,0.024-0.089,0-.177.007-0.282,0.007-0.088,0-.192-0.007-0.298-0.015a1.11683,1.11683,0,0,1-.306-0.058v-0.137a0.71207,0.71207,0,0,0,.161-0.072,0.82382,0.82382,0,0,0,.137-0.104,0.351,0.351,0,0,0,.097-0.121,0.26428,0.26428,0,0,0,.032-0.137v-2.723l-0.516-.217v-0.169a3.30778,3.30778,0,0,1,.531-0.113,2.29747,2.29747,0,0,1,.428-0.041h0.257l-0.04.437v3.06l0.451,0.121v0.153c-0.072.024-.136,0.048-0.201,0.064" style="fill:#251f21"/><path d="M63.179,30.8405a1.07217,1.07217,0,0,0-.169-0.363,0.66,0.66,0,0,0-.259-0.217,0.72676,0.72676,0,0,0-.321-0.073,0.65284,0.65284,0,0,0-.33.097,0.88714,0.88714,0,0,0-.29.25,1.37871,1.37871,0,0,0-.209.371,1.19343,1.19343,0,0,0-.081.45h1.724a1.90556,1.90556,0,0,0-.065-0.515m0.7,0.933H61.503a1.96279,1.96279,0,0,0,.089.604,1.38171,1.38171,0,0,0,.258.442,1.07277,1.07277,0,0,0,.379.282,1.11865,1.11865,0,0,0,.467.096,1.94325,1.94325,0,0,0,.298-0.023,1.80047,1.80047,0,0,0,.298-0.072,1.69813,1.69813,0,0,0,.29-0.105c0.089-.048.177-0.097,0.25-0.145a0.33625,0.33625,0,0,1,.024.089,0.61553,0.61553,0,0,1,.008.121,0.40932,0.40932,0,0,1-.097.265,0.88522,0.88522,0,0,1-.274.227,1.86841,1.86841,0,0,1-.435.152,2.573,2.573,0,0,1-.579.057,1.56678,1.56678,0,0,1-.646-0.129,1.52318,1.52318,0,0,1-.53-0.37,1.78492,1.78492,0,0,1-.363-0.58,2.29028,2.29028,0,0,1-.129-0.764,2.81377,2.81377,0,0,1,.146-0.937,2.16644,2.16644,0,0,1,.386-0.676,1.516,1.516,0,0,1,.532-0.41,1.41817,1.41817,0,0,1,.62-0.145,1.52045,1.52045,0,0,1,.588.104,1.26114,1.26114,0,0,1,.435.297,1.38468,1.38468,0,0,1,.273.476,1.92582,1.92582,0,0,1,.098.629v0.24c-0.001.082-.001,0.18-0.01,0.275" style="fill:#251f21"/><polygon points="69.145 30.188 67.719 33.739 67.438 33.755 66.076 30.236 65.746 30.003 65.746 29.809 67.276 29.809 67.276 30.003 66.817 30.194 67.695 32.748 67.703 32.748 68.597 30.221 68.129 30.003 68.129 29.809 69.378 29.809 69.378 30.003 69.145 30.188" style="fill:#251f21"/><path d="M71.711,31.9355a2.67506,2.67506,0,0,0-.603.064,1.55564,1.55564,0,0,0-.437.178,0.81566,0.81566,0,0,0-.272.258,0.61946,0.61946,0,0,0-.089.313,0.512,0.512,0,0,0,.16.387,0.66434,0.66434,0,0,0,.468.145,1.5695,1.5695,0,0,0,.193-0.016c0.072-.017.145-0.032,0.209-0.048a0.94205,0.94205,0,0,0,.201-0.073,0.80411,0.80411,0,0,0,.169-0.08v-1.128h0.001Zm0.693,1.642a1.37164,1.37164,0,0,1-.307.194,1.15241,1.15241,0,0,1-.21-0.169,2.40886,2.40886,0,0,1-.159-0.226,1.05573,1.05573,0,0,1-.202.152,1.53094,1.53094,0,0,1-.267.12,1.16544,1.16544,0,0,1-.306.081,1.33122,1.33122,0,0,1-.313.032,1.3079,1.3079,0,0,1-.411-0.064,0.96679,0.96679,0,0,1-.321-0.185,0.86652,0.86652,0,0,1-.218-0.29,0.85517,0.85517,0,0,1-.072-0.354,0.921,0.921,0,0,1,.145-0.5,1.21,1.21,0,0,1,.41-0.419,2.28794,2.28794,0,0,1,.653-0.29,3.72546,3.72546,0,0,1,.885-0.104v-0.216a3.00735,3.00735,0,0,0-.04-0.531,0.8988,0.8988,0,0,0-.129-0.323,0.474,0.474,0,0,0-.225-0.161,1.30676,1.30676,0,0,0-.322-0.04,1.59631,1.59631,0,0,0-.644.138,1.84574,1.84574,0,0,0-.564.387,1.06163,1.06163,0,0,1-.024-0.242,0.81156,0.81156,0,0,1,.072-0.346,0.61218,0.61218,0,0,1,.233-0.25,1.07054,1.07054,0,0,1,.411-0.161,2.67536,2.67536,0,0,1,.604-0.056,1.93085,1.93085,0,0,1,.548.071,1.232,1.232,0,0,1,.403.217,0.97632,0.97632,0,0,1,.257.34,1.11127,1.11127,0,0,1,.089.45,1.44214,1.44214,0,0,1-.008.169,2.13681,2.13681,0,0,1-.008.218c0,0.072-.008.152-0.008,0.226,0,0.072-.009.146-0.009,0.202l-0.023,1.304a1.00237,1.00237,0,0,0,.129.219,1.06318,1.06318,0,0,0,.193.192,1.09358,1.09358,0,0,1-.242.215" style="fill:#251f21"/><path d="M76.252,33.7145c-0.082,0-.17-0.007-0.266-0.016a0.92075,0.92075,0,0,1-.258-0.056v-0.138a0.39917,0.39917,0,0,0,.217-0.192,0.658,0.658,0,0,0,.073-0.34v-1.537a2.08582,2.08582,0,0,0-.058-0.499,0.80419,0.80419,0,0,0-.169-0.339,0.624,0.624,0,0,0-.249-0.193,0.891,0.891,0,0,0-.33-0.057,1.54245,1.54245,0,0,0-.468.072,1.25045,1.25045,0,0,0-.361.178v2.706l0.45,0.12v0.153c-0.072.025-.137,0.049-0.2,0.065-0.073.016-.146,0.031-0.219,0.041-0.071.007-.152,0.015-0.24,0.023-0.081,0-.171.007-0.274,0.007-0.097,0-.201-0.007-0.306-0.016a1.15049,1.15049,0,0,1-.298-0.056v-0.138a0.55866,0.55866,0,0,0,.152-0.072,0.617,0.617,0,0,0,.137-0.104,0.49451,0.49451,0,0,0,.104-0.121,0.257,0.257,0,0,0,.032-0.137v-2.723l-0.523-.217v-0.178a3.51836,3.51836,0,0,1,.532-0.112,3.07482,3.07482,0,0,1,.434-0.032h0.194v0.435a1.50011,1.50011,0,0,1,.523-0.33,1.87172,1.87172,0,0,1,.669-0.121,1.1874,1.1874,0,0,1,.459.081,1.00753,1.00753,0,0,1,.354.241,1.15845,1.15845,0,0,1,.233.387,1.92557,1.92557,0,0,1,.08.548v2.255l0.419,0.12v0.153a2.24252,2.24252,0,0,1-.843.139" style="fill:#251f21"/><path d="M81.734,31.4925a1.72152,1.72152,0,0,0-1.017-.259H80.46v2.037a0.99014,0.99014,0,0,0,.217.025,1.76586,1.76586,0,0,0,.209.008,1.23033,1.23033,0,0,0,.461-0.081,1.03416,1.03416,0,0,0,.378-0.217,1.094,1.094,0,0,0,.258-0.33,1.0336,1.0336,0,0,0,.088-0.419,0.8982,0.8982,0,0,0-.337-0.764m-0.121-2.368a1.19629,1.19629,0,0,0-.79-0.217,3.35978,3.35978,0,0,0-.362.023v1.916a2.15174,2.15174,0,0,0,.588-0.072,1.52743,1.52743,0,0,0,.451-0.218,0.93,0.93,0,0,0,.281-0.354,1.07949,1.07949,0,0,0,.098-0.467,0.76539,0.76539,0,0,0-.266-0.611m1.079,3.673a1.66142,1.66142,0,0,1-.419.499,2.03347,2.03347,0,0,1-.66.33,2.739,2.739,0,0,1-.846.121c-0.282,0-.549-0.008-0.781-0.017a4.72629,4.72629,0,0,1-.676-0.089v-0.152a0.69324,0.69324,0,0,0,.337-0.186,0.55751,0.55751,0,0,0,.129-0.411v-3.962l-0.507-.169v-0.177c0.129-.025.242-0.041,0.354-0.056,0.113-.018.233-0.033,0.355-0.041,0.119-.01.257-0.01,0.401-0.017h0.5a2.25655,2.25655,0,0,1,1.305.306,1.04957,1.04957,0,0,1,.427.886,1.01574,1.01574,0,0,1-.098.442,1.24465,1.24465,0,0,1-.257.388,1.43918,1.43918,0,0,1-.37.298,1.5352,1.5352,0,0,1-.45.17v0.007a1.88546,1.88546,0,0,1,.579.081,1.30125,1.30125,0,0,1,.435.241,1.12341,1.12341,0,0,1,.282.387,1.17535,1.17535,0,0,1,.104.508,1.31774,1.31774,0,0,1-.144.613" style="fill:#251f21"/><path d="M86.998,33.4885a0.78887,0.78887,0,0,1-.137.105c-0.048.032-.096,0.064-0.153,0.097a1.316,1.316,0,0,1-.153.08,1.45347,1.45347,0,0,1-.225-0.209,1.19281,1.19281,0,0,1-.153-0.258,1.03049,1.03049,0,0,1-.192.145,1.74852,1.74852,0,0,1-.274.138,1.885,1.885,0,0,1-.331.104,1.30666,1.30666,0,0,1-.361.04,1.35231,1.35231,0,0,1-.459-0.072,0.88723,0.88723,0,0,1-.354-0.241,1.11346,1.11346,0,0,1-.226-0.411,2.12749,2.12749,0,0,1-.073-0.597v-2.06l-0.458-.226v-0.17a3.41128,3.41128,0,0,1,.507-0.112,1.87983,1.87983,0,0,1,.394-0.04h0.267l-0.048.451v1.819a2.3921,2.3921,0,0,0,.048.531,0.91237,0.91237,0,0,0,.145.347,0.60436,0.60436,0,0,0,.25.186,0.88939,0.88939,0,0,0,.339.057,1.32235,1.32235,0,0,0,.226-0.023,1.00395,1.00395,0,0,0,.217-0.051c0.064-.022.129-0.047,0.194-0.071a0.94234,0.94234,0,0,0,.152-0.088v-2.61l-0.468-.226v-0.17a3.44989,3.44989,0,0,1,.508-0.112,1.953,1.953,0,0,1,.403-0.04h0.266l-0.049.451v2.722a1.19994,1.19994,0,0,0,.129.209,2.10012,2.10012,0,0,0,.178.21c-0.036.032-.069,0.065-0.109,0.095" style="fill:#251f21"/><path d="M88.979,28.7705a0.47978,0.47978,0,0,1-.098.152,0.35665,0.35665,0,0,1-.145.105,0.34263,0.34263,0,0,1-.178.04,0.44247,0.44247,0,0,1-.169-0.031,0.54574,0.54574,0,0,1-.137-0.098,0.60347,0.60347,0,0,1-.089-0.145,0.47606,0.47606,0,0,1-.032-0.186,0.43534,0.43534,0,0,1,.032-0.177,0.42,0.42,0,0,1,.089-0.153,0.36639,0.36639,0,0,1,.145-0.104,0.48837,0.48837,0,0,1,.193-0.04,0.41181,0.41181,0,0,1,.388.257,0.43022,0.43022,0,0,1,.031.177,0.56452,0.56452,0,0,1-.03.203m0.152,4.872a1.59,1.59,0,0,1-.218.041c-0.073.008-.153,0.017-0.233,0.024-0.089,0-.177.007-0.282,0.007-0.089,0-.192-0.007-0.298-0.015a1.11671,1.11671,0,0,1-.306-0.058v-0.137a0.70567,0.70567,0,0,0,.16-0.072,0.79208,0.79208,0,0,0,.138-0.104,0.34848,0.34848,0,0,0,.096-0.121,0.26428,0.26428,0,0,0,.032-0.137v-2.723l-0.515-.217v-0.169a3.27375,3.27375,0,0,1,.532-0.113,2.28562,2.28562,0,0,1,.426-0.041h0.258l-0.04.437v3.06l0.451,0.121v0.153c-0.073.024-.137,0.048-0.201,0.064" style="fill:#251f21"/><path d="M91.207,33.7475a0.93372,0.93372,0,0,1-.725-0.266,1.28965,1.28965,0,0,1-.233-0.854c0-.191,0-0.394.008-0.596,0.009-.209.009-0.402,0.017-0.588l0.023-1.07H89.855v-0.267l0.87-.861,0.266-.032-0.033.725h1.063l-0.057.436h-1.03l-0.017,1.014c0,0.169-.008.33-0.008,0.491v0.451a1.95644,1.95644,0,0,0,.033.411,0.74543,0.74543,0,0,0,.104.273,0.3967,0.3967,0,0,0,.153.146,0.4147,0.4147,0,0,0,.201.048,0.89968,0.89968,0,0,0,.331-0.056,1.07134,1.07134,0,0,0,.265-0.153l0.081,0.032a0.73879,0.73879,0,0,1-.87.716" style="fill:#251f21"/><path d="M94.813,30.8405a1.0721,1.0721,0,0,0-.169-0.363,0.66851,0.66851,0,0,0-.257-0.217,0.73421,0.73421,0,0,0-.322-0.073,0.65007,0.65007,0,0,0-.33.097,0.87715,0.87715,0,0,0-.29.25,1.38123,1.38123,0,0,0-.21.371,1.21332,1.21332,0,0,0-.081.45h1.724a1.86712,1.86712,0,0,0-.065-0.515m0.702,0.933H93.14a1.99442,1.99442,0,0,0,.088.604,1.39857,1.39857,0,0,0,.257.442,1.08188,1.08188,0,0,0,.379.282,1.11864,1.11864,0,0,0,.467.096,1.92458,1.92458,0,0,0,.298-0.023,1.81239,1.81239,0,0,0,.299-0.072,1.72979,1.72979,0,0,0,.29-0.105c0.089-.048.178-0.097,0.25-0.145a0.39116,0.39116,0,0,1,.023.089,0.61554,0.61554,0,0,1,.008.121,0.404,0.404,0,0,1-.097.265,0.86878,0.86878,0,0,1-.273.227,1.86845,1.86845,0,0,1-.435.152,2.58208,2.58208,0,0,1-.58.057,1.55093,1.55093,0,0,1-.644-0.129,1.52169,1.52169,0,0,1-.532-0.37,1.766,1.766,0,0,1-.362-0.58,2.26526,2.26526,0,0,1-.129-0.764,2.78836,2.78836,0,0,1,.146-0.937,2.14683,2.14683,0,0,1,.386-0.676,1.51607,1.51607,0,0,1,.532-0.41,1.414,1.414,0,0,1,.619-0.145,1.517,1.517,0,0,1,.588.104,1.26513,1.26513,0,0,1,.436.297,1.41972,1.41972,0,0,1,.274.476,1.98112,1.98112,0,0,1,.096.629v0.24c-0.002.082-.002,0.18-0.009,0.275" style="fill:#251f21"/><path d="M99.113,33.7145c-0.082,0-.17-0.007-0.267-0.016a0.92839,0.92839,0,0,1-.258-0.056v-0.138a0.40494,0.40494,0,0,0,.218-0.192,0.669,0.669,0,0,0,.072-0.34v-1.537a2.14268,2.14268,0,0,0-.057-0.499,0.84059,0.84059,0,0,0-.169-0.339,0.62691,0.62691,0,0,0-.25-0.193,0.893,0.893,0,0,0-.329-0.057,1.54893,1.54893,0,0,0-.469.072,1.26367,1.26367,0,0,0-.361.178v2.706l0.45,0.12v0.153c-0.071.025-.136,0.049-0.2,0.065-0.073.016-.146,0.031-0.219,0.041-0.071.007-.151,0.015-0.24,0.023-0.081,0-.17.007-0.274,0.007-0.097,0-.201-0.007-0.306-0.016a1.17475,1.17475,0,0,1-.299-0.056v-0.138a0.55083,0.55083,0,0,0,.153-0.072,0.648,0.648,0,0,0,.138-0.104,0.56829,0.56829,0,0,0,.104-0.121,0.26658,0.26658,0,0,0,.032-0.137v-2.723l-0.524-.217v-0.178a3.544,3.544,0,0,1,.532-0.112,3.08785,3.08785,0,0,1,.435-0.032h0.193v0.435a1.48633,1.48633,0,0,1,.524-0.33,1.86626,1.86626,0,0,1,.668-0.121,1.1874,1.1874,0,0,1,.459.081,0.99855,0.99855,0,0,1,.354.241,1.11313,1.11313,0,0,1,.234.387,1.88937,1.88937,0,0,1,.081.548v2.255l0.419,0.12v0.153a2.259,2.259,0,0,1-.844.139" style="fill:#251f21"/><path d="M101.882,33.6425a1.87236,1.87236,0,0,1-.219.041c-0.073.008-.152,0.017-0.241,0.024-0.08,0-.168.007-0.274,0.007-0.096,0-.2-0.007-0.305-0.015a1.10979,1.10979,0,0,1-.298-0.058v-0.137a0.53064,0.53064,0,0,0,.152-0.072,0.58815,0.58815,0,0,0,.137-0.104,0.49735,0.49735,0,0,0,.104-0.121,0.26427,0.26427,0,0,0,.032-0.137v-4.671l-0.523-.218v-0.177c0.089-.025.186-0.048,0.274-0.064s0.177-.032.266-0.049c0.081-.008.16-0.016,0.233-0.023,0.071,0,.137-0.009.192-0.009h0.259l-0.04.451v4.993l0.45,0.121v0.153c-0.071.025-.136,0.049-0.199,0.065" style="fill:#251f21"/><path d="M104.684,31.9355a2.68051,2.68051,0,0,0-.605.064,1.55346,1.55346,0,0,0-.435.178,0.81937,0.81937,0,0,0-.273.258,0.6296,0.6296,0,0,0-.089.313,0.503,0.503,0,0,0,.162.387,0.65725,0.65725,0,0,0,.466.145,1.58567,1.58567,0,0,0,.194-0.016c0.071-.017.145-0.032,0.209-0.048a0.96209,0.96209,0,0,0,.201-0.073,0.89242,0.89242,0,0,0,.17-0.08v-1.128Zm0.691,1.642a1.34393,1.34393,0,0,1-.306.194,1.08107,1.08107,0,0,1-.209-0.169,2.2657,2.2657,0,0,1-.162-0.226,0.98859,0.98859,0,0,1-.201.152,1.59065,1.59065,0,0,1-.266.12,1.1834,1.1834,0,0,1-.307.081,1.33122,1.33122,0,0,1-.313.032,1.29678,1.29678,0,0,1-.41-0.064,0.96184,0.96184,0,0,1-.322-0.185,0.82217,0.82217,0,0,1-.29-0.644,0.91359,0.91359,0,0,1,.146-0.5,1.19259,1.19259,0,0,1,.41-0.419,2.26878,2.26878,0,0,1,.652-0.29,3.743,3.743,0,0,1,.887-0.104v-0.216a3.19743,3.19743,0,0,0-.041-0.531,0.91741,0.91741,0,0,0-.129-0.323,0.47684,0.47684,0,0,0-.226-0.161,1.30261,1.30261,0,0,0-.323-0.04,1.59876,1.59876,0,0,0-.643.138,1.84573,1.84573,0,0,0-.564.387,1.12372,1.12372,0,0,1-.023-0.242,0.797,0.797,0,0,1,.072-0.346,0.619,0.619,0,0,1,.233-0.25,1.06543,1.06543,0,0,1,.41-0.161,2.68134,2.68134,0,0,1,.604-0.056,1.93581,1.93581,0,0,1,.548.071,1.21663,1.21663,0,0,1,.402.217,0.97632,0.97632,0,0,1,.257.34,1.09465,1.09465,0,0,1,.09.45,1.2844,1.2844,0,0,1-.009.169,2.13681,2.13681,0,0,1-.008.218c0,0.072-.008.152-0.008,0.226,0,0.072-.008.146-0.008,0.202l-0.025,1.304a1.05017,1.05017,0,0,0,.13.219,1.09625,1.09625,0,0,0,.193.192,1.04275,1.04275,0,0,1-.241.215" style="fill:#251f21"/><path d="M109.224,33.7145c-0.081,0-.169-0.007-0.266-0.016a0.92839,0.92839,0,0,1-.258-0.056v-0.138a0.40494,0.40494,0,0,0,.218-0.192,0.669,0.669,0,0,0,.072-0.34v-1.537a2.08582,2.08582,0,0,0-.058-0.499,0.81543,0.81543,0,0,0-.168-0.339,0.64086,0.64086,0,0,0-.25-0.193,0.89461,0.89461,0,0,0-.33-0.057,1.54723,1.54723,0,0,0-.468.072,1.25764,1.25764,0,0,0-.362.178v2.706l0.451,0.12v0.153c-0.072.025-.136,0.049-0.201,0.065-0.072.016-.145,0.031-0.218,0.041-0.072.007-.152,0.015-0.241,0.023-0.081,0-.169.007-0.273,0.007-0.098,0-.201-0.007-0.307-0.016a1.15862,1.15862,0,0,1-.298-0.056v-0.138a0.55083,0.55083,0,0,0,.153-0.072,0.617,0.617,0,0,0,.137-0.104,0.54489,0.54489,0,0,0,.105-0.121,0.2769,0.2769,0,0,0,.032-0.137v-2.723l-0.524-.217v-0.178a3.51836,3.51836,0,0,1,.532-0.112,3.07774,3.07774,0,0,1,.435-0.032h0.193v0.435a1.49094,1.49094,0,0,1,.523-0.33,1.87029,1.87029,0,0,1,.668-0.121,1.184,1.184,0,0,1,.459.081,0.98109,0.98109,0,0,1,.354.241,1.12841,1.12841,0,0,1,.234.387,1.92557,1.92557,0,0,1,.08.548v2.255l0.42,0.12v0.153a2.25547,2.25547,0,0,1-.844.139" style="fill:#251f21"/><path d="M113.111,30.3005a1.85218,1.85218,0,0,0-.266-0.063,1.97467,1.97467,0,0,0-.322-0.024,1.08638,1.08638,0,0,0-.863.411,1.62618,1.62618,0,0,0-.249.515,2.83042,2.83042,0,0,0-.088.733,1.81619,1.81619,0,0,0,.08.58,1.43267,1.43267,0,0,0,.218.428,0.85017,0.85017,0,0,0,.306.257,0.71119,0.71119,0,0,0,.362.088,2.27987,2.27987,0,0,0,.233-0.016,1.81879,1.81879,0,0,0,.226-0.057,1.587,1.587,0,0,0,.201-0.08,0.76985,0.76985,0,0,0,.161-0.104v-2.668h0.001Zm0.702,3.294c-0.09.056-.193,0.12-0.307,0.177a1.45746,1.45746,0,0,1-.225-0.226,1.91716,1.91716,0,0,1-.162-0.257,1.3808,1.3808,0,0,1-.225.185,1.567,1.567,0,0,1-.258.146,2.13312,2.13312,0,0,1-.282.096,1.06055,1.06055,0,0,1-.266.033,1.36547,1.36547,0,0,1-.572-0.121,1.52653,1.52653,0,0,1-.467-0.346,1.84854,1.84854,0,0,1-.313-0.557,2.26428,2.26428,0,0,1-.113-0.725,2.6789,2.6789,0,0,1,.153-0.958,1.98438,1.98438,0,0,1,.418-0.701,1.65455,1.65455,0,0,1,.613-0.435,1.86706,1.86706,0,0,1,.739-0.146c0.098,0,.194.009,0.299,0.018a1.77965,1.77965,0,0,1,.258.038v-1.417l-0.549-.217v-0.177a3.55642,3.55642,0,0,1,.549-0.114c0.185-.015.33-0.031,0.451-0.031h0.258l-0.049.451v4.614a1.64789,1.64789,0,0,0,.12.242,0.8443,0.8443,0,0,0,.187.226,3.12537,3.12537,0,0,1-.257.202" style="fill:#251f21"/><path d="M117.056,33.0305a1.21,1.21,0,0,1-.306.371,1.457,1.457,0,0,1-.476.265,1.7887,1.7887,0,0,1-.611.097,1.3729,1.3729,0,0,1-.773-0.169,0.53817,0.53817,0,0,1-.25-0.492,1.31607,1.31607,0,0,1,.017-0.177,0.81891,0.81891,0,0,1,.057-0.153,1.96292,1.96292,0,0,0,.539.38,1.33936,1.33936,0,0,0,.596.129,0.7933,0.7933,0,0,0,.516-0.146,0.44645,0.44645,0,0,0,.17-0.354,0.489,0.489,0,0,0-.033-0.193,0.687,0.687,0,0,0-.112-0.169,1.28465,1.28465,0,0,0-.218-0.161,2.62793,2.62793,0,0,0-.33-0.161l-0.403-.169a1.27509,1.27509,0,0,1-.539-0.402,0.98805,0.98805,0,0,1-.185-0.597,1.06412,1.06412,0,0,1,.096-0.451,1.22655,1.22655,0,0,1,.291-0.378,1.41329,1.41329,0,0,1,.443-0.258,1.6259,1.6259,0,0,1,.57-0.097,1.90424,1.90424,0,0,1,.411.041,0.819,0.819,0,0,1,.281.096,0.42942,0.42942,0,0,1,.162.153,0.47214,0.47214,0,0,1,.048.21,1.09366,1.09366,0,0,1-.008.169c-0.008.056-.024,0.112-0.032,0.169a1.7175,1.7175,0,0,0-.442-0.217,1.41661,1.41661,0,0,0-.476-0.089,1.39259,1.39259,0,0,0-.338.04,0.73462,0.73462,0,0,0-.234.104,0.39587,0.39587,0,0,0-.185.354,0.74284,0.74284,0,0,0,.023.192,0.43615,0.43615,0,0,0,.105.162,0.64452,0.64452,0,0,0,.193.146,2.232,2.232,0,0,0,.306.136l0.435,0.169a2.19431,2.19431,0,0,1,.37.186,1.07127,1.07127,0,0,1,.25.218,1.27366,1.27366,0,0,1,.138.273,1.41879,1.41879,0,0,1,.04.322,1.00824,1.00824,0,0,1-.106.451" style="fill:#251f21"/><path d="M120.042,30.8405a1.05356,1.05356,0,0,0-.169-0.363,0.66851,0.66851,0,0,0-.257-0.217,0.731,0.731,0,0,0-.322-0.073,0.65284,0.65284,0,0,0-.33.097,0.88718,0.88718,0,0,0-.29.25,1.40864,1.40864,0,0,0-.21.371,1.21332,1.21332,0,0,0-.081.45h1.725a1.90205,1.90205,0,0,0-.066-0.515m0.701,0.933h-2.375a1.99442,1.99442,0,0,0,.088.604,1.41768,1.41768,0,0,0,.257.442,1.091,1.091,0,0,0,.379.282,1.12524,1.12524,0,0,0,.467.096,1.94664,1.94664,0,0,0,.299-0.023,1.825,1.825,0,0,0,.298-0.072,1.76256,1.76256,0,0,0,.29-0.105c0.089-.048.178-0.097,0.25-0.145a0.39116,0.39116,0,0,1,.023.089,0.61554,0.61554,0,0,1,.008.121,0.404,0.404,0,0,1-.097.265,0.86394,0.86394,0,0,1-.272.227,1.89411,1.89411,0,0,1-.436.152,2.5879,2.5879,0,0,1-.58.057,1.55737,1.55737,0,0,1-.644-0.129,1.53094,1.53094,0,0,1-.532-0.37,1.78266,1.78266,0,0,1-.362-0.58,2.26525,2.26525,0,0,1-.129-0.764,2.78836,2.78836,0,0,1,.146-0.937,2.12782,2.12782,0,0,1,.386-0.676,1.51607,1.51607,0,0,1,.532-0.41,1.4214,1.4214,0,0,1,.62-0.145,1.5204,1.5204,0,0,1,.588.104,1.27049,1.27049,0,0,1,.435.297,1.41972,1.41972,0,0,1,.274.476,1.98112,1.98112,0,0,1,.096.629v0.24c-0.001.082-.001,0.18-0.009,0.275" style="fill:#251f21"/><path d="M126.192,33.6425H122.89l-0.072-.201,2.545-4.445h-1.409a0.677,0.677,0,0,0-.66.548l-0.058.177h-0.258l0.098-1.199h3.133l0.072,0.178-2.528,4.47h1.426a1.23711,1.23711,0,0,0,.321-0.033,0.54917,0.54917,0,0,0,.233-0.097,0.64426,0.64426,0,0,0,.161-0.178,1.30436,1.30436,0,0,0,.121-0.266l0.048-.153h0.258Z" style="fill:#251f21"/><path d="M128.885,31.9355a2.67784,2.67784,0,0,0-.604.064,1.55356,1.55356,0,0,0-.435.178,0.80994,0.80994,0,0,0-.273.258,0.6296,0.6296,0,0,0-.089.313,0.503,0.503,0,0,0,.162.387,0.65725,0.65725,0,0,0,.466.145,1.56913,1.56913,0,0,0,.193-0.016c0.072-.017.146-0.032,0.209-0.048a0.92275,0.92275,0,0,0,.201-0.073,0.838,0.838,0,0,0,.17-0.08v-1.128Zm0.692,1.642a1.34394,1.34394,0,0,1-.306.194,1.08158,1.08158,0,0,1-.209-0.169,2.43617,2.43617,0,0,1-.162-0.226,1.017,1.017,0,0,1-.201.152,1.59134,1.59134,0,0,1-.266.12,1.18345,1.18345,0,0,1-.307.081,1.33126,1.33126,0,0,1-.313.032,1.29678,1.29678,0,0,1-.41-0.064,0.96184,0.96184,0,0,1-.322-0.185,0.82218,0.82218,0,0,1-.29-0.644,0.921,0.921,0,0,1,.145-0.5,1.2046,1.2046,0,0,1,.411-0.419,2.26878,2.26878,0,0,1,.652-0.29,3.72772,3.72772,0,0,1,.886-0.104v-0.216a3.0916,3.0916,0,0,0-.041-0.531,0.88138,0.88138,0,0,0-.129-0.323,0.46919,0.46919,0,0,0-.225-0.161,1.30682,1.30682,0,0,0-.322-0.04,1.59988,1.59988,0,0,0-.644.138,1.84574,1.84574,0,0,0-.564.387,1.12076,1.12076,0,0,1-.024-0.242,0.81156,0.81156,0,0,1,.072-0.346,0.61484,0.61484,0,0,1,.234-0.25,1.06543,1.06543,0,0,1,.41-0.161,2.68123,2.68123,0,0,1,.604-0.056,1.931,1.931,0,0,1,.548.071,1.232,1.232,0,0,1,.403.217,0.97628,0.97628,0,0,1,.257.34,1.09483,1.09483,0,0,1,.089.45,1.44383,1.44383,0,0,1-.008.169,2.13462,2.13462,0,0,1-.008.218c0,0.072-.008.152-0.008,0.226,0,0.072-.008.146-0.008,0.202l-0.025,1.304a1.04988,1.04988,0,0,0,.13.219,1.06289,1.06289,0,0,0,.193.192,1.09362,1.09362,0,0,1-.242.215" style="fill:#251f21"/><path d="M133.732,33.6755a1.36285,1.36285,0,0,1-.322.04,0.68406,0.68406,0,0,1-.314-0.073,0.76716,0.76716,0,0,1-.258-0.233l-1.313-1.73v1.626l0.419,0.129v0.153a1.10105,1.10105,0,0,1-.217.056,1.47333,1.47333,0,0,1-.21.041,1.0304,1.0304,0,0,1-.226.024,2.5218,2.5218,0,0,1-.258.008c-0.088,0-.193-0.008-0.298-0.017a1.10264,1.10264,0,0,1-.307-0.057v-0.137a0.76246,0.76246,0,0,0,.299-0.177,0.455,0.455,0,0,0,.104-0.12,0.26658,0.26658,0,0,0,.032-0.137v-4.672l-0.531-.218v-0.177a3.39576,3.39576,0,0,1,.539-0.113c0.169-.016.314-0.032,0.427-0.032h0.274l-0.049.452v3.221l0.442-.387a3.50115,3.50115,0,0,0,.315-0.307c0.096-.112.185-0.226,0.266-0.337a2.02765,2.02765,0,0,0,.178-0.34,0.7896,0.7896,0,0,0,.071-0.305,1.15531,1.15531,0,0,1,.209-0.049,1.7523,1.7523,0,0,1,.218-0.016,1.03469,1.03469,0,0,1,.17.016,1.16573,1.16573,0,0,1,.152.056,0.86693,0.86693,0,0,1-.072.29,1.85046,1.85046,0,0,1-.201.355,3.8232,3.8232,0,0,1-.338.379,4.36975,4.36975,0,0,1-.484.393l-0.281.202,1.24,1.506a1.30991,1.30991,0,0,0,.322.298,0.56587,0.56587,0,0,0,.273.09v0.169a1.00357,1.00357,0,0,1-.271.13" style="fill:#251f21"/><path d="M136.604,30.8405a1.07176,1.07176,0,0,0-.169-0.363,0.66425,0.66425,0,0,0-.258-0.217,0.72994,0.72994,0,0,0-.321-0.073,0.65,0.65,0,0,0-.33.097,0.87684,0.87684,0,0,0-.29.25,1.38146,1.38146,0,0,0-.21.371,1.21332,1.21332,0,0,0-.081.45h1.724a1.82966,1.82966,0,0,0-.065-0.515m0.702,0.933H134.93a1.9629,1.9629,0,0,0,.089.604,1.37982,1.37982,0,0,0,.257.442,1.08172,1.08172,0,0,0,.379.282,1.11869,1.11869,0,0,0,.467.096,1.93415,1.93415,0,0,0,.298-0.023,1.77693,1.77693,0,0,0,.298-0.072,1.66785,1.66785,0,0,0,.29-0.105c0.089-.048.179-0.097,0.25-0.145a0.336,0.336,0,0,1,.024.089,0.61553,0.61553,0,0,1,.008.121,0.40926,0.40926,0,0,1-.097.265,0.88021,0.88021,0,0,1-.273.227,1.88531,1.88531,0,0,1-.435.152,2.58781,2.58781,0,0,1-.58.057,1.559,1.559,0,0,1-.645-0.129,1.52712,1.52712,0,0,1-.531-0.37,1.76578,1.76578,0,0,1-.362-0.58,2.26563,2.26563,0,0,1-.129-0.764,2.81422,2.81422,0,0,1,.145-0.937,2.14908,2.14908,0,0,1,.387-0.676,1.50718,1.50718,0,0,1,.532-0.41,1.414,1.414,0,0,1,.619-0.145,1.52047,1.52047,0,0,1,.588.104,1.26528,1.26528,0,0,1,.436.297,1.40081,1.40081,0,0,1,.273.476,1.95337,1.95337,0,0,1,.097.629v0.24c-0.002.082-.002,0.18-0.009,0.275" style="fill:#251f21"/><path d="M140.904,33.7145c-0.081,0-.17-0.007-0.266-0.016a0.913,0.913,0,0,1-.258-0.056v-0.138a0.4049,0.4049,0,0,0,.218-0.192,0.66989,0.66989,0,0,0,.071-0.34v-1.537a2.08929,2.08929,0,0,0-.057-0.499,0.81532,0.81532,0,0,0-.168-0.339,0.64814,0.64814,0,0,0-.25-0.193,0.89472,0.89472,0,0,0-.33-0.057,1.54241,1.54241,0,0,0-.468.072,1.25783,1.25783,0,0,0-.362.178v2.706l0.451,0.12v0.153c-0.072.025-.137,0.049-0.202,0.065-0.071.016-.144,0.031-0.217,0.041-0.072.007-.152,0.015-0.241,0.023-0.081,0-.169.007-0.273,0.007-0.098,0-.201-0.007-0.307-0.016a1.15861,1.15861,0,0,1-.298-0.056v-0.138a0.56472,0.56472,0,0,0,.153-0.072,0.617,0.617,0,0,0,.137-0.104,0.54457,0.54457,0,0,0,.105-0.121,0.27644,0.27644,0,0,0,.031-0.137v-2.723l-0.523-.217v-0.178a3.53284,3.53284,0,0,1,.531-0.112,3.10055,3.10055,0,0,1,.436-0.032h0.193v0.435a1.49091,1.49091,0,0,1,.523-0.33,1.86623,1.86623,0,0,1,.668-0.121,1.18389,1.18389,0,0,1,.459.081,0.99877,0.99877,0,0,1,.354.241,1.12673,1.12673,0,0,1,.233.387,1.88988,1.88988,0,0,1,.081.548v2.255l0.419,0.12v0.153a2.24641,2.24641,0,0,1-.843.139" style="fill:#251f21"/></svg>