<svg xmlns="http://www.w3.org/2000/svg" viewBox="0 0 150 52"><title>ministerie_onderwijs</title><path d="M10.635,34.702l-0.183.25c-0.04.056,0.151,0.194,0.19,0.141l0.24-.327s0.773,0.414.966,0.532a0.82631,0.82631,0,0,1,.163-0.435c-0.24-.066-0.724-0.223-0.724-0.223a0.22547,0.22547,0,0,1-.161.069,0.30275,0.30275,0,0,1-.229-0.186c-0.003-.005-0.002-0.009.006-0.005a0.15265,0.15265,0,0,0,.146.016l0.098-.134,0.219,0.101,0.102-.143-0.185-.062,0.878-1.232a0.91056,0.91056,0,0,0,.006-0.281,0.86987,0.86987,0,0,0-.266.096l-0.892,1.222-0.116-.156-0.104.142,0.166,0.176-0.082.112a0.33447,0.33447,0,0,0-.413.084c-0.006.007-.004,0.01,0.003,0.009,0.054-.016.261-0.061,0.26,0.078a0.2639,0.2639,0,0,0-.342.134c-0.005.009,0,.012,0.006,0.011a0.29,0.29,0,0,1,.248.011" style="fill:#010101"/><path d="M12.13,33.945c-0.005-.023-0.024-0.022-0.031.002a0.23472,0.23472,0,0,0,.211.313c0.191,0,.204-0.137.503-0.176a0.023,0.023,0,0,0,.004-0.045,0.86985,0.86985,0,0,0-.317.014c-0.235.06-.352-0.027-0.37-0.108" style="fill:#010101"/><path d="M13.248,33.552c-0.098.189-.229,0.201-0.327,0.098-0.006-.066.124-0.111,0.327-0.098m-0.556.398c0.2-.139.462-0.11,0.418,0.146a0.41192,0.41192,0,0,1-.291.055,0.36633,0.36633,0,0,0,.033.116,0.12493,0.12493,0,0,0-.018.135,0.67131,0.67131,0,0,1,.341-0.079c0.05,0.123.005,0.286-.349,0.343a0.68886,0.68886,0,0,0-.73069.64433L12.094,35.346a1.50307,1.50307,0,0,1,.828.264,0.99647,0.99647,0,0,0,.845-0.076,0.33153,0.33153,0,0,1,.039-0.465,0.25481,0.25481,0,0,0,.382.097,0.01461,0.01461,0,0,0,.00791-0.01908L14.188,35.139a0.32808,0.32808,0,0,1-.126-0.476,0.20588,0.20588,0,0,0,.349-0.091c0.001-.008-0.007-0.01-0.014-0.006a0.19454,0.19454,0,0,1-.219-0.229,1.14781,1.14781,0,0,0-.086-0.699,0.99284,0.99284,0,0,1,.418-0.215c0.026-.004.028-0.026-0.002-0.039a3.8647,3.8647,0,0,1-.437-0.053,3.81593,3.81593,0,0,0-.065-0.4,3.689,3.689,0,0,0-.368.174,3.87858,3.87858,0,0,1-.291-0.328c-0.028-.017-0.045-0.004-0.033.021a0.99955,0.99955,0,0,1,.063.465c-0.313-.028-0.419.091-0.438,0.176a0.875,0.875,0,0,0-.369.245,0.10342,0.10342,0,0,0,.046.076,0.223,0.223,0,0,0,.076.19" style="fill:#010101"/><rect x="14.92" y="33.351" width="0.448" height="1.243" style="fill:#010101"/><path d="M15.665,35.181a0.25114,0.25114,0,0,1-.258.199c-0.163,0-.448-0.083-0.643-0.083a0.4689,0.4689,0,0,0-.50083.43463Q14.262,35.74829,14.262,35.765c0,0.43.449,0.508,0.449,0.921,0,0.307-.431.402-0.738,0.113a2.34581,2.34581,0,0,0-.349-0.913c-0.796.256-.952-0.249-1.383-0.249a9.96838,9.96838,0,0,0-1.212.736l0.053-.382,0.043-.009-0.012-.316s-0.085.205-.099,0.235c-0.01.024-.023,0.023-0.033,0.005-0.039-.096-0.12-0.279-0.12-0.279s-0.006.25-.007,0.305c0,0.02-.014.023-0.025,0.007l-0.19-.278s0.046,0.217.071,0.334c0.004,0.016-.01.021-0.022,0.011l-0.26-.245s0.072,0.177.135,0.334c0.008,0.015-.006.026-0.021,0.015-0.048-.031-0.285-0.19-0.285-0.19s0.112,0.163.194,0.284c0.009,0.013.002,0.026-.019,0.02-0.17-.063-0.29-0.107-0.29-0.107s0.105,0.103.226,0.22c0.013,0.013.011,0.028-.015,0.028-0.046.001-.263,0.002-0.263,0.002l0.295,0.129,0.021-.031,0.253,0.066a0.20733,0.20733,0,0,0-.03.205l0.00735,0.00493L10.641,36.737a0.28684,0.28684,0,0,1,.246-0.136c0.012,0,.012.004,0.006,0.007a0.269,0.269,0,0,0-.155.317,0.0084,0.0084,0,0,0,.01009.00628L10.753,36.928a0.43486,0.43486,0,0,1,.224-0.144l-0.046.342a0.45759,0.45759,0,0,0,.579-0.399l-0.295-.067a2.02584,2.02584,0,0,1,1.142-.387,1.148,1.148,0,0,1,1.032,1.081,0.65011,0.65011,0,0,1-.088.362c-0.117.169-.206,0.131-0.247,0.089-0.011-.011-0.018-0.009-0.014.008a0.21226,0.21226,0,0,0,.37.101c0.008-.028.021-0.02,0.023-0.008,0.146,0.52.793-.035,1.127,0.628a0.33136,0.33136,0,0,1-.275.034,0.19783,0.19783,0,0,0-.324.08c-0.006.014,0,.018,0.009,0.015a0.24435,0.24435,0,0,1,.3.126,0.19852,0.19852,0,0,0-.274.275c0.005,0.015.014,0.014,0.019-.001a0.16452,0.16452,0,0,1,.24-0.108,0.203,0.203,0,0,0,.006.374c0.008,0.007.017,0.004,0.015-.009a0.17054,0.17054,0,0,1,.138-0.229,0.24759,0.24759,0,0,0,.259-0.157A0.28251,0.28251,0,0,0,15.04,39c0.014-.006.015-0.02-0.003-0.023-0.119-.036-0.277-0.119-0.146-0.211a0.26525,0.26525,0,0,0,.344-0.14952l0.001-.00248c0.006-.015,0-0.021-0.013-0.014s-0.261.137-.318-0.098a0.75328,0.75328,0,0,0-.191-0.478,0.19179,0.19179,0,0,0,.081-0.327c-0.008-.011-0.021-0.025-0.022-0.001-0.018.357-.763,0.061-0.78-0.438,0.524,0.131,1.047.005,1.047-.522a3.32267,3.32267,0,0,0-.49-0.975,0.2112,0.2112,0,0,1,.2081-0.21426q0.007-.0001.0139,0.00026a0.5965,0.5965,0,0,1,.473.435c0.003,0.012.013,0.014,0.021,0.002a0.28066,0.28066,0,0,0,.025-0.313c-0.016-.012,0-0.034.02-0.02a0.36605,0.36605,0,0,0,.44355-0.26693L15.756,35.378c0-.093-0.029-0.149-0.022-0.189a0.03488,0.03488,0,0,0-.069-0.008" style="fill:#010101"/><path d="M19.637,31.592c-0.366-.019-0.524.019-0.539,0.175a0.30015,0.30015,0,0,0,.539-0.175" style="fill:#010101"/><path d="M13.121,37.235c0.015-.005.012-0.019-0.003-0.017a0.21279,0.21279,0,0,1-.125-0.378,0.711,0.711,0,0,0-.358-0.138,1.39165,1.39165,0,0,0-.929.613c-0.063.07-.191,0.193-0.27,0.085-0.01-.015-0.016-0.014-0.016.005a0.1706,0.1706,0,0,0,.25.182c0.007-.004.012-0.002,0.011,0.007a1.74547,1.74547,0,0,0,.115.617,0.75076,0.75076,0,0,1-.373.218,1.142,1.142,0,0,0-.265-0.188,0.1898,0.1898,0,0,0-.14.075c-0.006.006-.004,0.015,0.01,0.015a0.13954,0.13954,0,0,1,.154.175,0.19887,0.19887,0,0,0-.349.169c0,0.014.01,0.018,0.018,0.008a0.18127,0.18127,0,0,1,.2537-0.03679L11.12,38.659a0.20219,0.20219,0,0,0-.121.35c0.006,0.009.011,0.005,0.012-.003a0.16036,0.16036,0,0,1,.15653-0.1641L11.178,38.842c0.147,0,.247.133,0.359-0.006a0.23556,0.23556,0,0,0,.291.155c0.004-.001.007-0.006,0.002-0.009a0.21148,0.21148,0,0,1-.114-0.162,0.42882,0.42882,0,0,1,.316-0.261,1.028,1.028,0,0,0,.232.073,0.23877,0.23877,0,0,0,.187-0.096c0.009-.01.006-0.015-0.007-0.012-0.166.037-.263-0.12-0.263-0.404,0.002-.543.292-0.641,0.94-0.885" style="fill:#010101"/><rect x="12.897" y="38.834" width="0.448" height="1.244" style="fill:#010101"/><path d="M6.698,31.767c-0.016-.156-0.173-0.193-0.539-0.175a0.30006,0.30006,0,0,0,.539.175" style="fill:#010101"/><path d="M23.52,34.974a0.87843,0.87843,0,0,1-.362-0.075c-0.033-.02-0.05.012-0.034,0.03a0.652,0.652,0,0,1,.104.6c-0.016.02-.034,0.014-0.038-0.001a0.88034,0.88034,0,0,0-.839-0.666,0.49139,0.49139,0,0,0-.525.557c0,0.65,1.141,1.126,1.141,2.02a1.12306,1.12306,0,0,1-1.511.957c0.033,0.905,1.07,1.215,1.102.565,0.002-.029.025-0.038,0.042,0.003a0.44312,0.44312,0,0,1-.324.692c-0.028.007-.016,0.021,0.011,0.039,0.399,0.254.183,1.253,0.163,1.547a0.332,0.332,0,0,0,.426.361c0.017-.006.034,0.002,0.008,0.036a0.45289,0.45289,0,0,1-.6379.05751q-0.01566-.01307-0.0301-0.02752c-0.279.088-.105,0.326,0.08,0.45,0.028,0.021.026,0.039-.005,0.041a0.49323,0.49323,0,0,1-.55-0.305,0.45543,0.45543,0,0,1-.532.114,0.33176,0.33176,0,0,0-.527.266c-0.003.033-.021,0.012-0.034-0.005a0.37209,0.37209,0,0,1,.203-0.65,0.307,0.307,0,0,0-.479.059c-0.015.019-.029,0.022-0.032-0.016a0.36061,0.36061,0,0,1,.628-0.319c0.013-.051.099-0.324-0.29-0.315-0.01,0-.027-0.013-0.008-0.032a0.36763,0.36763,0,0,1,.605.04,0.61264,0.61264,0,0,0,.498.091c-0.104-1.693-1.597-1.094-1.802-1.917-0.01-.044-0.029-0.026-0.034-0.012a0.36866,0.36866,0,0,1-.654-0.166c-0.005-.025-0.003-0.044.015-0.026,0.433,0.433,1.405-.917.078-2.013a1.9262,1.9262,0,0,0-2.536-.105,0.15652,0.15652,0,0,0,.10715.19369L16.952,37.044c0.018,0.005.023,0.022-.005,0.034a0.28978,0.28978,0,0,1-.332-0.073,0.25412,0.25412,0,0,0,.063.443c0.025,0.016.015,0.033-.007,0.037a0.392,0.392,0,0,1-.416-0.32l-0.038.022v0.962c0,1.371-1.581,1.561-3.315,2.723-1.736-1.162-3.317-1.352-3.317-2.723V37.187l-0.037-.022a0.39164,0.39164,0,0,1-.417.32c-0.02-.004-0.031-0.021-0.007-0.037a0.25354,0.25354,0,0,0,.063-0.443,0.2856,0.2856,0,0,1-.33.073c-0.03-.012-0.024-0.029-0.007-0.034a0.1549,0.1549,0,0,0,.11418-0.187L8.962,36.849a1.92616,1.92616,0,0,0-2.535.105c-1.328,1.096-.354,2.445.077,2.013,0.019-.018.021,0.001,0.016,0.026a0.36944,0.36944,0,0,1-.655.166c-0.004-.015-0.024-0.032-0.033.012-0.205.823-1.698,0.224-1.802,1.917a0.61343,0.61343,0,0,0,.498-0.091,0.36778,0.36778,0,0,1,.605-0.04c0.02,0.02.001,0.032-.009,0.032-0.387-.009-0.302.265-0.29,0.315a0.36057,0.36057,0,0,1,.628.319c-0.003.038-.017,0.034-0.031,0.016a0.30808,0.30808,0,0,0-.479-0.059,0.37288,0.37288,0,0,1,.204.65c-0.015.017-.033,0.038-0.035,0.005a0.33257,0.33257,0,0,0-.528-0.266,0.45713,0.45713,0,0,1-.531-0.114,0.49369,0.49369,0,0,1-.55.305c-0.031-.002-0.034-0.021-0.005-0.041,0.187-.124.359-0.362,0.08-0.45a0.4529,0.4529,0,0,1-.6405.00009Q2.93208,41.65468,2.919,41.639c-0.027-.034-0.01-0.042.007-0.036a0.33184,0.33184,0,0,0,.426-0.361c-0.02-.294-0.235-1.293.164-1.547,0.025-.018.038-0.032,0.012-0.039a0.44365,0.44365,0,0,1-.325-0.692c0.017-.041.039-0.032,0.042-0.003,0.031,0.649,1.068.34,1.101-.565a1.123,1.123,0,0,1-1.511-.957c0-.894,1.141-1.369,1.141-2.02a0.49172,0.49172,0,0,0-.525-0.557,0.87822,0.87822,0,0,0-.838.666c-0.004.015-.022,0.021-0.037,0.001a0.63967,0.63967,0,0,1,.103-0.6c0.016-.019-0.002-0.05-0.035-0.03a0.87267,0.87267,0,0,1-.361.075,0.48366,0.48366,0,0,1-.545-0.52,3.69087,3.69087,0,0,0,.042-0.371c-0.015-.031.022-0.054,0.043-0.015a0.51429,0.51429,0,0,0,.506.363c0.004,0,.747.002,0.872,0.002a0.96389,0.96389,0,0,1,1.063.98c0,0.797-1.014,1.146-1.014,1.954a0.51663,0.51663,0,0,0,.621.507,1.59163,1.59163,0,0,0,.579-0.12,3.51731,3.51731,0,0,1,.92-1.91,1.88744,1.88744,0,0,0,1.603-.039c0.609-.33.896-0.551,1.431-0.182,0.532,0.369,1,.766,1.058.755l0.127-.024V33.165a0.21569,0.21569,0,0,0-.253.254,0.33374,0.33374,0,0,1-.075.386c-0.013.018-.033,0.012-0.035-0.011A0.169,0.169,0,0,0,9.1,33.622a2.81132,2.81132,0,0,0-.786.61,1.28969,1.28969,0,0,0-.633-0.735c0.254-.039,1.347-0.304,1.347-0.782a0.24185,0.24185,0,0,1,.28335-0.19157L9.327,32.527a0.35466,0.35466,0,0,1,.518-0.217,0.02311,0.02311,0,0,1-.007.042,0.33529,0.33529,0,0,0-.216.353c0.12-.037.389-0.114,0.763-0.197v1.018h0.449V32.421a11.71712,11.71712,0,0,1,2.073-.193,11.95531,11.95531,0,0,1,3.283.479,0.33492,0.33492,0,0,0-.216-0.353,0.02324,0.02324,0,0,1-.006-0.042,0.35347,0.35347,0,0,1,.517.217,0.24051,0.24051,0,0,1,.29481.16963L16.784,32.717c0,0.479,1.093.743,1.347,0.782a1.29065,1.29065,0,0,0-.632.735,2.8101,2.8101,0,0,0-.787-0.61,0.16823,0.16823,0,0,0-.126.172,0.01867,0.01867,0,0,1-.035.011,0.33262,0.33262,0,0,1-.074-0.386,0.216,0.216,0,0,0-.254-0.254v3.189L16.35,36.38c0.059,0.011.525-.386,1.06-0.755,0.532-.369.82-0.148,1.43,0.182a1.8855,1.8855,0,0,0,1.602.039,3.52528,3.52528,0,0,1,.922,1.91,1.55078,1.55078,0,0,0,.577.12,0.51567,0.51567,0,0,0,.621-0.507c0-.809-1.014-1.157-1.014-1.954a0.96456,0.96456,0,0,1,1.063-.98c0.125,0,.868-0.002.871-0.002a0.52057,0.52057,0,0,0,.508-0.363c0.019-.039.057-0.017,0.043,0.015a3.30291,3.30291,0,0,0,.041.371,0.49573,0.49573,0,0,1-.554.518m-3.361,8.95c-1.558.101-3.17,1.019-3.17,0.039V43.386c1.22,0,1.398.39,1.398,0.446a0.27571,0.27571,0,0,0,.198-0.281V42.865a4.93178,4.93178,0,0,1,1.806-.274,1.43749,1.43749,0,0,1,1.185.272l0.237,1.307a2.40839,2.40839,0,0,0-1.654-.246m-3.907-4.158c-0.021,0-.03-0.016-0.019-0.027,0.327-.353.572,0.09,0.629,0.16,0.131,0.174.599-.153,0.786-0.349a1.52381,1.52381,0,0,1-.414-0.83c0-.022.003-0.056,0.003-0.069,0-.012-0.006-0.018-0.018-0.01a0.32859,0.32859,0,0,1-.151.039c-0.096,0-.273-0.03-0.273-0.366,0-.025.011-0.024,0.022-0.009a0.17436,0.17436,0,0,0,.145.087c0.334,0,1.032-1.114,1.854-1.114a1.36352,1.36352,0,0,1,.826.377,0.26519,0.26519,0,0,0-.107.267,0.29294,0.29294,0,0,0,.242.244c0.021,0.004.021,0.02,0,.028a7.973,7.973,0,0,0-1.342.593,0.95934,0.95934,0,0,0-.047.964c0.113,0.44.356,0.38,0.446,0.365,0.013-.002.017,0.007,0.009,0.017a0.43591,0.43591,0,0,1-.349.181,1.826,1.826,0,0,1-.408-0.134,0.72936,0.72936,0,0,0-.582.475,0.38469,0.38469,0,0,0,.206.294c0.008,0.006.006,0.015-.005,0.017a0.43237,0.43237,0,0,1-.529-0.284c-0.198.253-.388,0.015-0.647,0.015a0.28779,0.28779,0,0,0-.311.297c-0.002.013-.013,0.017-0.024,0a0.36838,0.36838,0,0,1,.225-0.633,0.33651,0.33651,0,0,0-.47525.02487L15.927,40.406a0.01483,0.01483,0,0,1-.028-0.009c0-.49.366-0.524,0.633-0.313a0.25521,0.25521,0,0,0-.28-0.318M7.511,43.302c-0.025.03-.037,0-0.037-0.022L7.473,41.951c0-.387,2.627-0.613,5.426-0.613,2.797,0,5.424.227,5.424,0.613V43.28c0,0.022-.012.053-0.038,0.022-0.333-.378-2.879-0.509-5.386-0.509-2.509,0-5.055.131-5.388,0.509m-0.15-4.516a8.12492,8.12492,0,0,0-1.344-.593c-0.021-.009-0.02-0.024,0-0.028a0.293,0.293,0,0,0,.242-0.244,0.26335,0.26335,0,0,0-.107-0.267,1.36845,1.36845,0,0,1,.827-0.377c0.822,0,1.52,1.114,1.854,1.114a0.17694,0.17694,0,0,0,.146-0.087c0.011-.016.022-0.017,0.022,0.009,0,0.336-.179.366-0.274,0.366a0.32531,0.32531,0,0,1-.151-0.039c-0.011-.008-0.018-0.002-0.018.01,0,0.014.003,0.047,0.003,0.069a1.525,1.525,0,0,1-.413.83c0.187,0.195.654,0.522,0.785,0.349,0.057-.07.302-0.513,0.63-0.16,0.012,0.012.004,0.027-.019,0.027a0.25274,0.25274,0,0,0-.279.316c0.266-.212.633-0.178,0.633,0.313a0.01548,0.01548,0,0,1-.029.009,0.33651,0.33651,0,0,0-.47187-0.06175L9.377,40.358a0.36848,0.36848,0,0,1,.226.633c-0.013.017-.023,0.013-0.025,0a0.2869,0.2869,0,0,0-.311-0.297c-0.26,0-.448.238-0.647-0.015a0.43237,0.43237,0,0,1-.529.284,0.00913,0.00913,0,0,1-.0095-0.00874L8.086,40.946a0.38374,0.38374,0,0,0,.204-0.293,0.72792,0.72792,0,0,0-.581-0.475,1.8568,1.8568,0,0,1-.409.134,0.43986,0.43986,0,0,1-.349-0.181c-0.008-.01-0.004-0.019.009-0.017,0.09,0.015.333,0.075,0.447-.365a0.95827,0.95827,0,0,0-.046-0.963m1.446,5.177c0,0.979-1.613.062-3.171-.039a2.40157,2.40157,0,0,0-1.652.246L4.22,42.863a1.436,1.436,0,0,1,1.184-.272,4.94488,4.94488,0,0,1,1.807.274v0.686a0.27493,0.27493,0,0,0,.197.281c0-.057.179-0.446,1.399-0.446v0.577ZM4.065,33.422c0.28,0.142.434-.161,0.364-0.473a1.00957,1.00957,0,0,1,.191-1.026,0.34815,0.34815,0,0,0,.564-0.309c-0.018-.046-0.047-0.053-0.047.005a0.223,0.223,0,0,1-.208.207,0.51391,0.51391,0,0,1-.45-0.427,0.78355,0.78355,0,0,1,1.175.328c0.016,0.06.088,0.055,0.083-.005a0.55965,0.55965,0,0,0-.303-0.47,0.22721,0.22721,0,0,1-.095-0.387c0.027-.028.08-0.023,0.063,0.006-0.1.17,0.111,0.247,0.404,0.21,0.617-.082.821,0.148,0.854,0.308a1.53892,1.53892,0,0,1,.661.438,0.17833,0.17833,0,0,1-.081.134,0.49607,0.49607,0,0,1-.151.369c-0.658-.396-0.84-0.025-0.771.237a0.989,0.989,0,0,0,.559.096,0.61252,0.61252,0,0,1-.059.205,0.23,0.23,0,0,1,.029.244,1.016,1.016,0,0,0-.619-0.153s-0.251.383,0.681,0.563a1.56556,1.56556,0,0,1,1.23,1.545c0,0.023-.011.037-0.031,0.033-0.756-.142-1.103.643-2.082,0.554a0.74357,0.74357,0,0,0-.009-0.472,0.83253,0.83253,0,0,1-.395.414,1.01935,1.01935,0,0,1-.63-0.345,0.717,0.717,0,0,0,.129-0.858,0.55745,0.55745,0,0,1-.713.169c-0.043-.02-0.033-0.047-0.004-0.057a0.47108,0.47108,0,0,0,.187-0.813,0.35436,0.35436,0,0,1-.557-0.249c0.003-.033.017-0.027,0.031-0.021M8.132,32.3c0.008-.037.04-0.051,0.056,0.006a0.35824,0.35824,0,0,1-.371.485c-0.252,0-.395-0.181-0.753-0.242a0.4139,0.4139,0,0,1-.267-0.05,0.46671,0.46671,0,0,1,.267-0.049c0.374,0,.424.082,0.66,0.082A0.39176,0.39176,0,0,0,8.132,32.3m1.952-3.711c0.311,0,.262.203,0.527,0.203,0.033,0,.066-0.008.066,0.016a0.23721,0.23721,0,0,1-.195.237,1.78541,1.78541,0,0,1-.287-0.163c-0.053,0-.127.042-0.127,0.209a1.5831,1.5831,0,0,0,.462.96,0.28347,0.28347,0,0,1,.229-0.129,0.322,0.322,0,0,1,.278.347A0.42213,0.42213,0,0,1,11,30.45a0.49144,0.49144,0,0,0,.214.073,0.26191,0.26191,0,0,0,.283-0.293c0-.551-0.739-1.037-0.739-1.735a0.64637,0.64637,0,0,1,.625-0.667q0.03149-.001.063,0.001c0.499,0,.405.456,0.838,0.456,0.02,0,.036.006,0.036,0.024a0.33744,0.33744,0,0,1-.298.28c-0.24,0-.308-0.414-0.52-0.414-0.079,0-.197.048-0.197,0.327a2.54475,2.54475,0,0,0,.264.908,0.31134,0.31134,0,0,1,.218-0.097,0.357,0.357,0,0,1,.3181.39206L12.105,29.706a0.49218,0.49218,0,0,1-.146.353,0.51237,0.51237,0,0,0,.372.253,0.3688,0.3688,0,0,0,.43-0.354,2.62453,2.62453,0,0,1-.363-0.584,0.29907,0.29907,0,0,1,.26295-0.33127L12.668,29.042a0.38128,0.38128,0,0,1,.231.095,0.37611,0.37611,0,0,1,.229-0.095,0.29974,0.29974,0,0,1,.27167.3254L13.399,29.374a2.62344,2.62344,0,0,1-.364.584,0.36883,0.36883,0,0,0,.43.354,0.51059,0.51059,0,0,0,.372-0.253,0.48815,0.48815,0,0,1-.146-0.353,0.357,0.357,0,0,1,.31706-0.3929L14.009,29.313a0.31512,0.31512,0,0,1,.218.097,2.587,2.587,0,0,0,.264-0.908c0-.279-0.119-0.327-0.198-0.327-0.212,0-.279.414-0.518,0.414a0.33785,0.33785,0,0,1-.3-0.28c0-.019.017-0.024,0.036-0.024,0.433,0,.339-0.456.838-0.456a0.64552,0.64552,0,0,1,.689.666c0,0.698-.739,1.185-0.739,1.735a0.26152,0.26152,0,0,0,.283.293,0.48809,0.48809,0,0,0,.213-0.073,0.43417,0.43417,0,0,1-.037-0.181,0.3227,0.3227,0,0,1,.278-0.347,0.28347,0.28347,0,0,1,.229.129,1.57761,1.57761,0,0,0,.462-0.96c0-.167-0.074-0.209-0.127-0.209a1.68829,1.68829,0,0,1-.286.163,0.239,0.239,0,0,1-.196-0.237c0-.023.034-0.016,0.066-0.016,0.266,0,.217-0.203.527-0.203a0.47886,0.47886,0,0,1,.459.559c0,0.761-.938.99-0.72,1.574-0.399-.059-0.395.328-0.401,1.023a7.32444,7.32444,0,0,0-2.15-.263,7.33985,7.33985,0,0,0-2.152.263c-0.007-.695-0.002-1.082-0.4-1.023,0.218-.584-0.721-0.813-0.721-1.574a0.47719,0.47719,0,0,1,.458-0.559m3.157-.067a0.344,0.344,0,1,1-.345-0.343h0.002a0.3442,0.3442,0,0,1,.343.343m-0.78-2.171a0.34612,0.34612,0,0,1,.195.063c0.082,0.058.128,0.048,0.154,0.021,0.027-.027.036-0.072-0.021-0.154a0.36038,0.36038,0,0,1-.064-0.196,0.17659,0.17659,0,1,1,.346,0,0.36036,0.36036,0,0,1-.064.196c-0.058.082-.049,0.127-0.021,0.154,0.026,0.026.072,0.036,0.154-.021a0.34612,0.34612,0,0,1,.195-0.063,0.17577,0.17577,0,1,1,0,.344,0.346,0.346,0,0,1-.195-0.064c-0.082-.057-0.128-0.049-0.154-0.021a2.09762,2.09762,0,0,0,.045.534,0.41341,0.41341,0,0,1,.347.346,0.72241,0.72241,0,0,1-.478.539,0.72,0.72,0,0,1-.479-0.539,0.41183,0.41183,0,0,1,.346-0.346,2.10006,2.10006,0,0,0,.045-0.534c-0.026-.028-0.072-0.036-0.154.021a0.346,0.346,0,0,1-.195.064,0.18981,0.18981,0,0,1-.21132-0.16552L12.251,26.523a0.18779,0.18779,0,0,1,.20164-0.17283L12.461,26.351m5.148,5.955c0.014-.057.047-0.043,0.054-0.006a0.39175,0.39175,0,0,0,.408.232c0.236,0,.288-0.082.661-0.082a0.46657,0.46657,0,0,1,.266.049,0.417,0.417,0,0,1-.266.05,7.82752,7.82752,0,0,1-.752.242,0.35762,0.35762,0,0,1-.371-0.485m1.523-.916c0.033-.159.237-0.39,0.855-0.308,0.292,0.037.503-.04,0.403-0.21-0.016-.029.036-0.034,0.063-0.006a0.227,0.227,0,0,1-.094.387,0.55914,0.55914,0,0,0-.304.47c-0.005.06,0.067,0.064,0.084,0.005a0.78354,0.78354,0,0,1,1.175-.328,0.51585,0.51585,0,0,1-.451.427,0.22208,0.22208,0,0,1-.207-0.207c0-.058-0.03-0.051-0.047-0.005a0.34781,0.34781,0,0,0,.563.309,1.00534,1.00534,0,0,1,.191,1.026c-0.068.312,0.084,0.614,0.365,0.473,0.014-.006.027-0.012,0.027,0.022a0.35375,0.35375,0,0,1-.556.249c-0.04.055-.463,0.604,0.187,0.813,0.028,0.01.038,0.037-.005,0.057a0.55651,0.55651,0,0,1-.712-0.169,0.71688,0.71688,0,0,0,.128.858,1.0159,1.0159,0,0,1-.629.345,0.83663,0.83663,0,0,1-.395-0.414,0.73481,0.73481,0,0,0-.009.472c-0.98.089-1.326-.695-2.082-0.554-0.021.004-.031-0.01-0.031-0.033a1.56672,1.56672,0,0,1,1.229-1.545c0.934-.181.683-0.563,0.683-0.563a1.01438,1.01438,0,0,0-.62.153,0.23063,0.23063,0,0,1,.028-0.244,0.66531,0.66531,0,0,1-.059-0.205,1.00642,1.00642,0,0,0,.561-0.096c0.066-.263-0.115-0.634-0.772-0.237a0.50022,0.50022,0,0,1-.152-0.369,0.17824,0.17824,0,0,1-.08-0.134,1.55728,1.55728,0,0,1,.663-0.439M0,51.795H25.795V0.205H0v51.59Z" style="fill:#010101"/><path d="M37.046,33.643a3.51649,3.51649,0,0,1-.436.032c-0.097,0-.177,0-0.258-0.008-0.072,0-.146-0.008-0.217-0.008-0.073-.009-0.138-0.017-0.202-0.024a1.71288,1.71288,0,0,1-.209-0.041V33.441a0.547,0.547,0,0,0,.475-0.61l-0.201-3.657H35.982l-1.434,4.47-0.314.04-1.449-4.502-0.008.008-0.25,4.035,0.523,0.137V33.54c-0.088.024-.169,0.048-0.233,0.064a2.0748,2.0748,0,0,1-.21.04,0.9644,0.9644,0,0,1-.225.024,2.54142,2.54142,0,0,1-.259.008,2.24928,2.24928,0,0,1-.306-0.024,2.99427,2.99427,0,0,1-.313-0.057V33.451a0.81931,0.81931,0,0,0,.338-0.178,0.44734,0.44734,0,0,0,.137-0.298l0.354-4.116-0.468-.137V28.489c0.089-.008.187-0.023,0.282-0.031,0.097-.009.194-0.009,0.29-0.018,0.097,0,.193-0.008.282-0.008H33.25l1.265,3.906h0.008l1.224-3.906h0.347c0.145,0,.307,0,0.476.008,0.169,0.009.338,0.025,0.499,0.049v0.233l-0.499.122,0.354,4.429,0.467,0.088v0.178a1.26794,1.26794,0,0,1-.345.104" style="fill:#010101"/><path d="M39.137,28.723a0.46916,0.46916,0,0,1-.098.151,0.3616,0.3616,0,0,1-.145.106,0.339,0.339,0,0,1-.177.04,0.41929,0.41929,0,0,1-.169-0.032,0.5652,0.5652,0,0,1-.138-0.097,0.72558,0.72558,0,0,1-.089-0.146,0.49,0.49,0,0,1-.032-0.185,0.51,0.51,0,0,1,.121-0.33,0.37938,0.37938,0,0,1,.146-0.105,0.50947,0.50947,0,0,1,.192-0.04,0.37834,0.37834,0,0,1,.162.032,0.3453,0.3453,0,0,1,.136.089,0.33759,0.33759,0,0,1,.09.136,0.43517,0.43517,0,0,1,.031.178,0.57144,0.57144,0,0,1-.03.203m0.152,4.872a1.90228,1.90228,0,0,1-.217.041c-0.073.008-.153,0.016-0.234,0.023-0.089,0-.177.007-0.281,0.007-0.088,0-.193-0.007-0.298-0.015a1.12512,1.12512,0,0,1-.307-0.057V33.456a0.67088,0.67088,0,0,0,.161-0.071,0.82938,0.82938,0,0,0,.137-0.105,0.37838,0.37838,0,0,0,.098-0.121,0.27247,0.27247,0,0,0,.031-0.136V30.299l-0.516-.217V29.913a3.43176,3.43176,0,0,1,.532-0.113,2.363,2.363,0,0,1,.427-0.04h0.257l-0.04.436v3.06l0.451,0.121V33.53c-0.072.025-.136,0.048-0.201,0.065" style="fill:#010101"/><path d="M43.036,33.667a2.639,2.639,0,0,1-.266-0.017,0.8873,0.8873,0,0,1-.257-0.056V33.457a0.40068,0.40068,0,0,0,.217-0.193,0.66671,0.66671,0,0,0,.073-0.339V31.387a2.1384,2.1384,0,0,0-.058-0.499,0.82988,0.82988,0,0,0-.169-0.338,0.6336,0.6336,0,0,0-.249-0.194,0.89608,0.89608,0,0,0-.331-0.056,1.536,1.536,0,0,0-.467.072,1.20783,1.20783,0,0,0-.362.178v2.706l0.451,0.12v0.152q-0.09931.03753-.202,0.065c-0.071.016-.145,0.032-0.217,0.041-0.073.007-.153,0.015-0.242,0.024-0.08,0-.169.007-0.273,0.007-0.097,0-.201-0.007-0.307-0.017a1.12538,1.12538,0,0,1-.298-0.056V33.455a0.54018,0.54018,0,0,0,.153-0.073,0.5947,0.5947,0,0,0,.137-0.104,0.4745,0.4745,0,0,0,.105-0.12,0.28078,0.28078,0,0,0,.032-0.138V30.298l-0.523-.217V29.905a3.3815,3.3815,0,0,1,.531-0.111,2.95126,2.95126,0,0,1,.435-0.033h0.193v0.435a1.484,1.484,0,0,1,.523-0.329,1.87029,1.87029,0,0,1,.668-0.121,1.15593,1.15593,0,0,1,.459.081,1.00444,1.00444,0,0,1,.355.24,1.14093,1.14093,0,0,1,.233.388,1.8803,1.8803,0,0,1,.08.548v2.255l0.42,0.12V33.53a2.29969,2.29969,0,0,1-.844.137" style="fill:#010101"/><path d="M45.672,28.723a0.482,0.482,0,0,1-.096.151,0.379,0.379,0,0,1-.146.106,0.33684,0.33684,0,0,1-.177.04,0.41929,0.41929,0,0,1-.169-0.032,0.5652,0.5652,0,0,1-.138-0.097,0.7241,0.7241,0,0,1-.088-0.146,0.49,0.49,0,0,1-.032-0.185,0.45763,0.45763,0,0,1,.032-0.178,0.43432,0.43432,0,0,1,.088-0.152,0.37938,0.37938,0,0,1,.146-0.105,0.51059,0.51059,0,0,1,.193-0.04,0.37684,0.37684,0,0,1,.161.032,0.34854,0.34854,0,0,1,.137.089,0.336,0.336,0,0,1,.089.136,0.435,0.435,0,0,1,.032.178,0.59585,0.59585,0,0,1-.032.203m0.153,4.872a1.96327,1.96327,0,0,1-.218.041c-0.072.008-.152,0.016-0.233,0.023-0.089,0-.178.007-0.282,0.007-0.088,0-.193-0.007-0.298-0.015a1.13246,1.13246,0,0,1-.307-0.057V33.456a0.67088,0.67088,0,0,0,.161-0.071,0.837,0.837,0,0,0,.138-0.105,0.363,0.363,0,0,0,.097-0.121,0.27313,0.27313,0,0,0,.032-0.136V30.299l-0.517-.217V29.913A3.45626,3.45626,0,0,1,44.93,29.8a2.37075,2.37075,0,0,1,.427-0.04h0.258l-0.039.436v3.06l0.449,0.121V33.53c-0.071.025-.135,0.048-0.2,0.065" style="fill:#010101"/><path d="M48.933,32.982a1.21354,1.21354,0,0,1-.307.371,1.43634,1.43634,0,0,1-.475.265,1.79588,1.79588,0,0,1-.613.098,1.37981,1.37981,0,0,1-.772-0.169,0.53958,0.53958,0,0,1-.249-0.492,1.45187,1.45187,0,0,1,.016-0.177,0.95036,0.95036,0,0,1,.056-0.153,2.0024,2.0024,0,0,0,.541.379,1.33636,1.33636,0,0,0,.596.129,0.79793,0.79793,0,0,0,.515-0.145,0.44443,0.44443,0,0,0,.169-0.355,0.47481,0.47481,0,0,0-.032-0.193,0.63447,0.63447,0,0,0-.112-0.169,1.3286,1.3286,0,0,0-.217-0.161,2.57353,2.57353,0,0,0-.33-0.16l-0.403-.169a1.26644,1.26644,0,0,1-.539-0.403,0.9885,0.9885,0,0,1-.187-0.596,1.03314,1.03314,0,0,1,.098-0.451,1.1861,1.1861,0,0,1,.29-0.378,1.402,1.402,0,0,1,.442-0.259,1.64142,1.64142,0,0,1,.572-0.097,1.97708,1.97708,0,0,1,.411.041,0.84867,0.84867,0,0,1,.281.096,0.43356,0.43356,0,0,1,.161.153,0.47613,0.47613,0,0,1,.049.21,0.96794,0.96794,0,0,1-.009.169c-0.008.057-.024,0.112-0.032,0.169a1.70848,1.70848,0,0,0-.443-0.217,1.43615,1.43615,0,0,0-.475-0.089,1.39885,1.39885,0,0,0-.338.04,0.73462,0.73462,0,0,0-.234.104,0.56991,0.56991,0,0,0-.145.161,0.5553,0.5553,0,0,0-.04.193,0.751,0.751,0,0,0,.023.193,0.46757,0.46757,0,0,0,.105.161,0.6237,0.6237,0,0,0,.192.146,2.36711,2.36711,0,0,0,.307.136l0.435,0.169a2.20562,2.20562,0,0,1,.371.187,1.08005,1.08005,0,0,1,.249.217,1.22509,1.22509,0,0,1,.137.273,1.37041,1.37041,0,0,1,.041.322,1.03077,1.03077,0,0,1-.105.451" style="fill:#010101"/><path d="M50.907,33.699a0.93227,0.93227,0,0,1-.725-0.266,1.28779,1.28779,0,0,1-.233-0.854c0-.191,0-0.394.007-0.596,0.009-.209.009-0.402,0.018-0.588l0.023-1.07H49.555V30.058l0.869-.861,0.267-.032-0.033.725h1.063l-0.057.436H50.633l-0.016,1.015c0,0.169-.008.33-0.008,0.49v0.451a2.0328,2.0328,0,0,0,.032.411,0.77653,0.77653,0,0,0,.104.274,0.4014,0.4014,0,0,0,.153.145,0.41473,0.41473,0,0,0,.201.048,0.8854,0.8854,0,0,0,.329-0.056,1.06573,1.06573,0,0,0,.267-0.153l0.081,0.032a0.737,0.737,0,0,1-.869.716" style="fill:#010101"/><path d="M54.514,30.792a1.0624,1.0624,0,0,0-.169-0.363,0.66421,0.66421,0,0,0-.258-0.217,0.731,0.731,0,0,0-.322-0.073,0.6474,0.6474,0,0,0-.33.098,0.86415,0.86415,0,0,0-.29.25,1.35761,1.35761,0,0,0-.209.37,1.19343,1.19343,0,0,0-.081.45h1.724a1.90556,1.90556,0,0,0-.065-0.515m0.701,0.934H52.839a1.95355,1.95355,0,0,0,.089.604,1.36924,1.36924,0,0,0,.257.442,1.06973,1.06973,0,0,0,.379.282,1.1226,1.1226,0,0,0,.467.097,1.93847,1.93847,0,0,0,.298-0.024,1.73887,1.73887,0,0,0,.299-0.072,1.67135,1.67135,0,0,0,.29-0.104c0.088-.048.177-0.098,0.249-0.146a0.34821,0.34821,0,0,1,.024.089,0.61553,0.61553,0,0,1,.008.121,0.41,0.41,0,0,1-.097.266,0.86508,0.86508,0,0,1-.273.226,1.84711,1.84711,0,0,1-.436.153,2.57477,2.57477,0,0,1-.579.056,1.5654,1.5654,0,0,1-.645-0.129,1.53633,1.53633,0,0,1-.531-0.37,1.77443,1.77443,0,0,1-.363-0.58,2.28148,2.28148,0,0,1-.129-0.764,2.81806,2.81806,0,0,1,.146-0.937,2.13884,2.13884,0,0,1,.386-0.676,1.516,1.516,0,0,1,.532-0.41,1.41178,1.41178,0,0,1,.62-0.145,1.54282,1.54282,0,0,1,.588.104,1.257,1.257,0,0,1,.434.297,1.403,1.403,0,0,1,.274.476,1.95756,1.95756,0,0,1,.097.629v0.241c0,0.081,0,.178-0.008.274" style="fill:#010101"/><path d="M58.249,30.309a0.9797,0.9797,0,0,1-.097.241,0.89274,0.89274,0,0,0-.241-0.136,0.71891,0.71891,0,0,0-.258-0.049,1.016,1.016,0,0,0-.709.33v2.562l0.556,0.12V33.53a1.30719,1.30719,0,0,1-.209.063,1.26377,1.26377,0,0,1-.218.041c-0.08.008-.169,0.017-0.257,0.024-0.097,0-.202.008-0.315,0.008-0.121,0-.232-0.008-0.338-0.016a1.12427,1.12427,0,0,1-.306-0.058V33.456a0.53891,0.53891,0,0,0,.153-0.073,0.58814,0.58814,0,0,0,.137-0.104,0.53818,0.53818,0,0,0,.104-0.121,0.26794,0.26794,0,0,0,.032-0.138V30.298L55.76,30.08V29.903a3.30074,3.30074,0,0,1,.531-0.112,2.96369,2.96369,0,0,1,.436-0.033h0.192v0.564h0.009l0.226-.25a1.139,1.139,0,0,1,.338-0.266,0.80317,0.80317,0,0,1,.371-0.089,0.33923,0.33923,0,0,1,.418.347,0.92776,0.92776,0,0,1-.032.245" style="fill:#010101"/><path d="M59.891,28.723a0.482,0.482,0,0,1-.096.151,0.379,0.379,0,0,1-.146.106,0.33684,0.33684,0,0,1-.177.04,0.41929,0.41929,0,0,1-.169-0.032,0.5652,0.5652,0,0,1-.138-0.097,0.7241,0.7241,0,0,1-.088-0.146,0.49,0.49,0,0,1-.032-0.185,0.45763,0.45763,0,0,1,.032-0.178,0.43432,0.43432,0,0,1,.088-0.152,0.37938,0.37938,0,0,1,.146-0.105,0.51059,0.51059,0,0,1,.193-0.04,0.37684,0.37684,0,0,1,.161.032,0.34854,0.34854,0,0,1,.137.089,0.336,0.336,0,0,1,.089.136,0.435,0.435,0,0,1,.032.178,0.59566,0.59566,0,0,1-.032.203m0.153,4.872a1.96327,1.96327,0,0,1-.218.041c-0.072.008-.152,0.016-0.233,0.023-0.089,0-.178.007-0.282,0.007-0.088,0-.193-0.007-0.298-0.015a1.13246,1.13246,0,0,1-.307-0.057V33.456a0.67088,0.67088,0,0,0,.161-0.071,0.837,0.837,0,0,0,.138-0.105,0.363,0.363,0,0,0,.097-0.121,0.27313,0.27313,0,0,0,.032-0.136V30.299l-0.517-.217V29.913a3.45626,3.45626,0,0,1,.532-0.113,2.37075,2.37075,0,0,1,.427-0.04h0.258l-0.039.436v3.06l0.449,0.121V33.53c-0.071.025-.136,0.048-0.2,0.065" style="fill:#010101"/><path d="M63.15,30.792a1.04413,1.04413,0,0,0-.169-0.363,0.65031,0.65031,0,0,0-.258-0.217,0.72676,0.72676,0,0,0-.321-0.073,0.64465,0.64465,0,0,0-.33.098,0.86415,0.86415,0,0,0-.29.25,1.33191,1.33191,0,0,0-.209.37,1.19343,1.19343,0,0,0-.081.45h1.724a1.86376,1.86376,0,0,0-.066-0.515m0.702,0.934H61.476a1.95355,1.95355,0,0,0,.089.604,1.37087,1.37087,0,0,0,.258.442,1.05233,1.05233,0,0,0,.379.282,1.1193,1.1193,0,0,0,.467.097,1.94815,1.94815,0,0,0,.298-0.024,1.706,1.706,0,0,0,.298-0.072,1.614,1.614,0,0,0,.29-0.104c0.088-.048.177-0.098,0.249-0.146a0.34054,0.34054,0,0,1,.025.089,0.61553,0.61553,0,0,1,.008.121,0.41545,0.41545,0,0,1-.097.266,0.86988,0.86988,0,0,1-.274.226,1.77959,1.77959,0,0,1-.435.153,2.58059,2.58059,0,0,1-.579.056,1.56678,1.56678,0,0,1-.646-0.129,1.53633,1.53633,0,0,1-.531-0.37,1.7889,1.7889,0,0,1-.362-0.58,2.28148,2.28148,0,0,1-.129-0.764,2.81806,2.81806,0,0,1,.146-0.937,2.15813,2.15813,0,0,1,.386-0.676,1.516,1.516,0,0,1,.532-0.41,1.41817,1.41817,0,0,1,.62-0.145,1.53927,1.53927,0,0,1,.588.104,1.26114,1.26114,0,0,1,.435.297,1.40085,1.40085,0,0,1,.273.476,1.93046,1.93046,0,0,1,.097.629v0.241c-0.002.081-.002,0.178-0.009,0.274" style="fill:#010101"/><polygon points="69.116 30.14 67.691 33.691 67.409 33.707 66.049 30.188 65.719 29.954 65.719 29.761 67.248 29.761 67.248 29.954 66.789 30.147 67.667 32.7 67.676 32.7 68.568 30.172 68.102 29.954 68.102 29.761 69.351 29.761 69.351 29.954 69.116 30.14" style="fill:#010101"/><path d="M71.684,31.887a2.68746,2.68746,0,0,0-.604.065,1.5615,1.5615,0,0,0-.436.177,0.83932,0.83932,0,0,0-.273.258,0.63037,0.63037,0,0,0-.089.314,0.509,0.509,0,0,0,.161.386,0.66179,0.66179,0,0,0,.467.146,1.55459,1.55459,0,0,0,.193-0.017c0.073-.016.145-0.032,0.21-0.048a0.9085,0.9085,0,0,0,.201-0.073,0.77906,0.77906,0,0,0,.169-0.08V31.887h0.001Zm0.693,1.643a1.36679,1.36679,0,0,1-.307.193,1.04546,1.04546,0,0,1-.209-0.169,2.04717,2.04717,0,0,1-.161-0.226,1.06833,1.06833,0,0,1-.202.153,1.4781,1.4781,0,0,1-.266.119,1.176,1.176,0,0,1-.306.081,1.33436,1.33436,0,0,1-.314.032,1.29764,1.29764,0,0,1-.41-0.063,0.97562,0.97562,0,0,1-.321-0.186,0.8692,0.8692,0,0,1-.219-0.29,0.84819,0.84819,0,0,1-.071-0.354,0.9162,0.9162,0,0,1,.145-0.5,1.20122,1.20122,0,0,1,.41-0.419,2.23648,2.23648,0,0,1,.653-0.29,3.67453,3.67453,0,0,1,.885-0.104V31.289a3.01611,3.01611,0,0,0-.04-0.531,0.91741,0.91741,0,0,0-.129-0.323,0.47033,0.47033,0,0,0-.226-0.16,1.25213,1.25213,0,0,0-.321-0.04,1.61324,1.61324,0,0,0-.645.137,1.84175,1.84175,0,0,0-.563.387,1.05559,1.05559,0,0,1-.024-0.242,0.81478,0.81478,0,0,1,.072-0.346,0.629,0.629,0,0,1,.232-0.25,1.07719,1.07719,0,0,1,.411-0.161,2.68134,2.68134,0,0,1,.604-0.056,1.89444,1.89444,0,0,1,.548.072,1.19593,1.19593,0,0,1,.403.217,0.98827,0.98827,0,0,1,.257.339,1.11607,1.11607,0,0,1,.089.451,1.45217,1.45217,0,0,1-.008.169,2.126,2.126,0,0,1-.008.217c0,0.073-.009.153-0.009,0.226s-0.008.146-.008,0.202l-0.023,1.305a0.9435,0.9435,0,0,0,.129.218,1.05781,1.05781,0,0,0,.192.192,1.03864,1.03864,0,0,1-.24.218" style="fill:#010101"/><path d="M76.224,33.667a2.604,2.604,0,0,1-.265-0.017,0.887,0.887,0,0,1-.258-0.056V33.457a0.40068,0.40068,0,0,0,.217-0.193,0.65649,0.65649,0,0,0,.073-0.339V31.387a2.08582,2.08582,0,0,0-.058-0.499,0.80584,0.80584,0,0,0-.169-0.338,0.63362,0.63362,0,0,0-.249-0.194,0.89436,0.89436,0,0,0-.33-0.056,1.53766,1.53766,0,0,0-.468.072,1.23236,1.23236,0,0,0-.362.178v2.706l0.451,0.12v0.152c-0.073.025-.137,0.05-0.201,0.065-0.072.016-.145,0.032-0.218,0.041-0.072.007-.153,0.015-0.241,0.024-0.081,0-.17.007-0.273,0.007-0.098,0-.202-0.007-0.307-0.017a1.11766,1.11766,0,0,1-.298-0.056V33.455a0.56731,0.56731,0,0,0,.153-0.073,0.641,0.641,0,0,0,.137-0.104,0.49176,0.49176,0,0,0,.104-0.12,0.2703,0.2703,0,0,0,.032-0.138V30.298l-0.523-.217V29.905a3.36954,3.36954,0,0,1,.532-0.111,2.94867,2.94867,0,0,1,.434-0.033h0.194v0.435a1.47957,1.47957,0,0,1,.522-0.329,1.87572,1.87572,0,0,1,.669-0.121,1.16246,1.16246,0,0,1,.459.081,1.00037,1.00037,0,0,1,.354.24,1.15865,1.15865,0,0,1,.234.388,1.916,1.916,0,0,1,.079.548v2.255l0.42,0.12V33.53a2.292,2.292,0,0,1-.844.137" style="fill:#010101"/><path d="M82.897,30.027a2.05321,2.05321,0,0,0-.313-0.638,1.352,1.352,0,0,0-.459-0.378,1.29269,1.29269,0,0,0-.539-0.121,1.222,1.222,0,0,0-.572.146,1.48885,1.48885,0,0,0-.491.419,2.18857,2.18857,0,0,0-.354.685,3.25263,3.25263,0,0,0-.13.935,3.31158,3.31158,0,0,0,.12.935,2.10916,2.10916,0,0,0,.322.668,1.3431,1.3431,0,0,0,.451.402,1.044,1.044,0,0,0,.532.138,1.22047,1.22047,0,0,0,.572-0.138,1.48605,1.48605,0,0,0,.498-0.41,2.20929,2.20929,0,0,0,.354-0.709,3.47956,3.47956,0,0,0,.129-1.016,2.98886,2.98886,0,0,0-.12-0.918m0.709,2.013a2.82846,2.82846,0,0,1-.523.919,2.29616,2.29616,0,0,1-.773.57,2.16259,2.16259,0,0,1-.926.202,1.92869,1.92869,0,0,1-.829-0.177,2.04381,2.04381,0,0,1-.686-0.507,2.406,2.406,0,0,1-.459-0.806,3.16528,3.16528,0,0,1-.169-1.072,3.43241,3.43241,0,0,1,.09-0.788,3.31678,3.31678,0,0,1,.257-0.686,2.42728,2.42728,0,0,1,.395-0.555,2.725,2.725,0,0,1,.507-0.412,2.40758,2.40758,0,0,1,.572-0.265,2.27005,2.27005,0,0,1,.612-0.089,2.03648,2.03648,0,0,1,.83.169,1.87951,1.87951,0,0,1,.677.482,2.37436,2.37436,0,0,1,.458.767,2.82663,2.82663,0,0,1,.17,1.006,3.51365,3.51365,0,0,1-.203,1.242" style="fill:#010101"/><path d="M87.446,33.667a2.62121,2.62121,0,0,1-.266-0.017,0.89408,0.89408,0,0,1-.258-0.056V33.457a0.40646,0.40646,0,0,0,.218-0.193,0.6675,0.6675,0,0,0,.072-0.339V31.387a2.08582,2.08582,0,0,0-.058-0.499,0.82928,0.82928,0,0,0-.168-0.338,0.64359,0.64359,0,0,0-.25-0.194,0.89428,0.89428,0,0,0-.33-0.056,1.53766,1.53766,0,0,0-.468.072,1.23236,1.23236,0,0,0-.362.178v2.706l0.451,0.12v0.152a2.02009,2.02009,0,0,1-.201.065c-0.072.016-.145,0.032-0.218,0.041-0.072.007-.152,0.015-0.241,0.024-0.081,0-.169.007-0.273,0.007-0.098,0-.201-0.007-0.307-0.017a1.11766,1.11766,0,0,1-.298-0.056V33.455a0.55346,0.55346,0,0,0,.153-0.073,0.617,0.617,0,0,0,.137-0.104,0.5172,0.5172,0,0,0,.105-0.12,0.28008,0.28008,0,0,0,.031-0.138V30.298l-0.523-.217V29.905a3.39266,3.39266,0,0,1,.532-0.111,2.95147,2.95147,0,0,1,.435-0.033h0.193v0.435a1.475,1.475,0,0,1,.523-0.329,1.86626,1.86626,0,0,1,.668-0.121,1.16576,1.16576,0,0,1,.459.081,0.99148,0.99148,0,0,1,.354.24,1.12534,1.12534,0,0,1,.233.388,1.87909,1.87909,0,0,1,.081.548v2.255l0.419,0.12V33.53a2.29006,2.29006,0,0,1-.843.137" style="fill:#010101"/><path d="M91.334,30.253a1.95792,1.95792,0,0,0-.267-0.064,2.08926,2.08926,0,0,0-.321-0.024,1.08943,1.08943,0,0,0-.863.41,1.64264,1.64264,0,0,0-.249.516,2.82247,2.82247,0,0,0-.088.732,1.81616,1.81616,0,0,0,.08.58,1.4207,1.4207,0,0,0,.218.428,0.8604,0.8604,0,0,0,.305.258,0.72767,0.72767,0,0,0,.363.088,2.28172,2.28172,0,0,0,.233-0.017,1.69565,1.69565,0,0,0,.226-0.056,1.65149,1.65149,0,0,0,.201-0.081,0.79727,0.79727,0,0,0,.161-0.104V30.253h0.001Zm0.701,3.294c-0.09.056-.193,0.119-0.307,0.177a1.51622,1.51622,0,0,1-.226-0.227,2.00955,2.00955,0,0,1-.161-0.257,1.38441,1.38441,0,0,1-.225.186,1.64707,1.64707,0,0,1-.259.145,1.9739,1.9739,0,0,1-.28.096,1.07332,1.07332,0,0,1-.267.033,1.37329,1.37329,0,0,1-.573-0.121,1.51079,1.51079,0,0,1-.466-0.346,1.843,1.843,0,0,1-.313-0.556,2.27041,2.27041,0,0,1-.113-0.726,2.68651,2.68651,0,0,1,.153-0.958,1.97466,1.97466,0,0,1,.419-0.701,1.659,1.659,0,0,1,.611-0.435,1.89253,1.89253,0,0,1,.74-0.145c0.098,0,.194.009,0.298,0.017a1.63182,1.63182,0,0,1,.259.039V28.351l-0.549-.217V27.956a3.43692,3.43692,0,0,1,.549-0.113c0.185-.016.329-0.031,0.45-0.031h0.259l-0.05.451v4.614a1.80986,1.80986,0,0,0,.121.241,0.84486,0.84486,0,0,0,.187.227,3.21959,3.21959,0,0,1-.257.202" style="fill:#010101"/><path d="M95.278,30.792a1.08133,1.08133,0,0,0-.169-0.363,0.66419,0.66419,0,0,0-.258-0.217,0.72992,0.72992,0,0,0-.321-0.073,0.64194,0.64194,0,0,0-.33.098,0.85469,0.85469,0,0,0-.29.25,1.36005,1.36005,0,0,0-.21.37,1.21332,1.21332,0,0,0-.081.45h1.724a1.86653,1.86653,0,0,0-.065-0.515m0.701,0.934H93.604a1.95449,1.95449,0,0,0,.088.604,1.36911,1.36911,0,0,0,.257.442,1.061,1.061,0,0,0,.379.282,1.1192,1.1192,0,0,0,.467.097,1.93842,1.93842,0,0,0,.298-0.024,1.68408,1.68408,0,0,0,.298-0.072,1.58677,1.58677,0,0,0,.29-0.104c0.089-.048.179-0.098,0.25-0.146a0.34818,0.34818,0,0,1,.024.089,0.61554,0.61554,0,0,1,.008.121,0.41,0.41,0,0,1-.097.266,0.86513,0.86513,0,0,1-.273.226,1.7948,1.7948,0,0,1-.435.153,2.58387,2.58387,0,0,1-.58.056,1.56213,1.56213,0,0,1-.645-0.129,1.51785,1.51785,0,0,1-.531-0.37,1.75563,1.75563,0,0,1-.362-0.58,2.25676,2.25676,0,0,1-.129-0.764,2.81841,2.81841,0,0,1,.145-0.937,2.1797,2.1797,0,0,1,.387-0.676,1.51277,1.51277,0,0,1,.531-0.41,1.4214,1.4214,0,0,1,.62-0.145,1.5392,1.5392,0,0,1,.588.104,1.27463,1.27463,0,0,1,.436.297,1.40086,1.40086,0,0,1,.273.476,1.95745,1.95745,0,0,1,.097.629v0.241c-0.001.081-.001,0.178-0.009,0.274" style="fill:#010101"/><path d="M99.014,30.309a1.06616,1.06616,0,0,1-.098.241,0.87228,0.87228,0,0,0-.24-0.136,0.72009,0.72009,0,0,0-.259-0.049,1.01782,1.01782,0,0,0-.709.33v2.562l0.557,0.12V33.53a1.37227,1.37227,0,0,1-.209.063,1.30134,1.30134,0,0,1-.218.041c-0.08.008-.17,0.017-0.259,0.024-0.097,0-.2.008-0.313,0.008-0.12,0-.233-0.008-0.338-0.016a1.12433,1.12433,0,0,1-.307-0.058V33.456a0.52637,0.52637,0,0,0,.153-0.073,0.58814,0.58814,0,0,0,.137-0.104,0.56842,0.56842,0,0,0,.105-0.121,0.28939,0.28939,0,0,0,.032-0.138V30.298l-0.524-.218V29.903a3.289,3.289,0,0,1,.532-0.112,2.95147,2.95147,0,0,1,.435-0.033h0.193v0.564h0.008l0.226-.25a1.14228,1.14228,0,0,1,.339-0.266,0.792,0.792,0,0,1,.369-0.089,0.33965,0.33965,0,0,1,.419.347,0.96627,0.96627,0,0,1-.031.245" style="fill:#010101"/><polygon points="104.545 30.131 103.192 33.691 102.854 33.708 101.968 30.743 101.96 30.743 101.026 33.691 100.663 33.708 99.463 30.196 99.117 29.955 99.117 29.76 100.671 29.76 100.671 29.955 100.212 30.147 100.929 32.733 100.938 32.733 101.734 30.164 101.291 29.955 101.291 29.76 102.66 29.76 102.66 29.955 102.427 30.131 103.152 32.726 103.16 32.726 103.989 30.172 103.522 29.955 103.522 29.76 104.771 29.76 104.771 29.955 104.545 30.131" style="fill:#010101"/><path d="M106.267,28.723a0.467,0.467,0,0,1-.097.151,0.37174,0.37174,0,0,1-.146.106,0.339,0.339,0,0,1-.177.04,0.41928,0.41928,0,0,1-.169-0.032,0.56515,0.56515,0,0,1-.138-0.097,0.64278,0.64278,0,0,1-.088-0.146,0.45374,0.45374,0,0,1-.032-0.185,0.42385,0.42385,0,0,1,.032-0.178,0.41933,0.41933,0,0,1,.088-0.152,0.3836,0.3836,0,0,1,.145-0.105,0.51583,0.51583,0,0,1,.194-0.04,0.37991,0.37991,0,0,1,.161.032,0.36327,0.36327,0,0,1,.137.089,0.34646,0.34646,0,0,1,.089.136,0.435,0.435,0,0,1,.032.178,0.57133,0.57133,0,0,1-.031.203m0.152,4.872a1.9441,1.9441,0,0,1-.217.041c-0.073.008-.153,0.016-0.234,0.023-0.088,0-.177.007-0.282,0.007-0.088,0-.192-0.007-0.298-0.015a1.11035,1.11035,0,0,1-.305-0.057V33.456a0.70079,0.70079,0,0,0,.16-0.071,0.837,0.837,0,0,0,.138-0.105,0.34848,0.34848,0,0,0,.096-0.121,0.263,0.263,0,0,0,.032-0.136V30.299l-0.515-.217V29.913a3.3722,3.3722,0,0,1,.531-0.113,2.35536,2.35536,0,0,1,.427-0.04h0.258l-0.04.436v3.06l0.451,0.121V33.53c-0.073.025-.138,0.048-0.202,0.065" style="fill:#010101"/><path d="M108.379,28.722a0.4761,0.4761,0,0,1-.088.153,0.453,0.453,0,0,1-.146.104,0.33685,0.33685,0,0,1-.177.04,0.38214,0.38214,0,0,1-.168-0.031,0.38855,0.38855,0,0,1-.138-0.098,0.33422,0.33422,0,0,1-.089-0.145,0.49517,0.49517,0,0,1-.032-0.186,0.67547,0.67547,0,0,1,.024-0.177,0.60764,0.60764,0,0,1,.097-0.153,0.34712,0.34712,0,0,1,.146-0.104,0.4834,0.4834,0,0,1,.192-0.04,0.348,0.348,0,0,1,.153.032,0.33246,0.33246,0,0,1,.138.089,0.35282,0.35282,0,0,1,.088.137,0.42425,0.42425,0,0,1,.031.177,0.58187,0.58187,0,0,1-.031.202m-0.088,1.49v3.616a4.0437,4.0437,0,0,1-.073.83,1.80347,1.80347,0,0,1-.193.53,0.71076,0.71076,0,0,1-.29.291,0.779,0.779,0,0,1-.354.08,0.652,0.652,0,0,1-.258-0.049,0.49243,0.49243,0,0,1-.2-0.145V35.237a0.55225,0.55225,0,0,0,.265-0.073,0.78048,0.78048,0,0,0,.226-0.234,1.175,1.175,0,0,0,.153-0.386,2.10109,2.10109,0,0,0,.064-0.532V30.3l-0.516-.218V29.913a3.437,3.437,0,0,1,.531-0.112,2.20547,2.20547,0,0,1,.427-0.041h0.267Z" style="fill:#010101"/><path d="M111.583,32.982a1.19934,1.19934,0,0,1-.307.371,1.4263,1.4263,0,0,1-.475.265,1.79405,1.79405,0,0,1-.612.098,1.37754,1.37754,0,0,1-.772-0.169,0.54032,0.54032,0,0,1-.25-0.492,1.28662,1.28662,0,0,1,.017-0.177,0.793,0.793,0,0,1,.057-0.153,1.99126,1.99126,0,0,0,.538.379,1.34664,1.34664,0,0,0,.597.129,0.801,0.801,0,0,0,.516-0.145,0.44741,0.44741,0,0,0,.169-0.355,0.47469,0.47469,0,0,0-.033-0.193,0.65449,0.65449,0,0,0-.111-0.169,1.35329,1.35329,0,0,0-.219-0.161,2.42655,2.42655,0,0,0-.329-0.16l-0.403-.169a1.27881,1.27881,0,0,1-.539-0.403,0.98719,0.98719,0,0,1-.185-0.596,1.046,1.046,0,0,1,.096-0.451,1.20345,1.20345,0,0,1,.291-0.378,1.39086,1.39086,0,0,1,.442-0.259,1.63163,1.63163,0,0,1,.571-0.097,1.97711,1.97711,0,0,1,.411.041,0.85484,0.85484,0,0,1,.282.096,0.44146,0.44146,0,0,1,.161.153,0.48924,0.48924,0,0,1,.048.21,1.087,1.087,0,0,1-.008.169c-0.009.057-.024,0.112-0.032,0.169a1.7244,1.7244,0,0,0-.443-0.217,1.44078,1.44078,0,0,0-.475-0.089,1.39259,1.39259,0,0,0-.338.04,0.72463,0.72463,0,0,0-.234.104,0.39587,0.39587,0,0,0-.185.354,0.80042,0.80042,0,0,0,.022.193,0.45611,0.45611,0,0,0,.106.161,0.6236,0.6236,0,0,0,.192.146,2.25018,2.25018,0,0,0,.307.136l0.435,0.169a2.232,2.232,0,0,1,.37.187,1.10709,1.10709,0,0,1,.25.217,1.31725,1.31725,0,0,1,.137.273,1.3711,1.3711,0,0,1,.04.322,0.99094,0.99094,0,0,1-.105.451" style="fill:#010101"/><path d="M113.346,33.708a2.0859,2.0859,0,0,1-.242.459,1.47327,1.47327,0,0,1-.313.321,0.76443,0.76443,0,0,1-.29.17l-0.217-.058a1.89268,1.89268,0,0,0,.369-0.539,1.447,1.447,0,0,0,.129-0.636l-0.281-.355a1.061,1.061,0,0,1,.112-0.137,0.52967,0.52967,0,0,1,.13-0.112,0.40277,0.40277,0,0,1,.136-0.071,0.30441,0.30441,0,0,1,.138-0.033,0.42512,0.42512,0,0,1,.314.121,0.48431,0.48431,0,0,1,.121.338,1.369,1.369,0,0,1-.106.532" style="fill:#010101"/><path d="M119.34,33.482a2.62629,2.62629,0,0,1-.58.185,4.93462,4.93462,0,0,1-.821.065,2.21537,2.21537,0,0,1-.83-0.162,1.86715,1.86715,0,0,1-.693-0.483,2.28892,2.28892,0,0,1-.467-0.797,3.07755,3.07755,0,0,1-.177-1.104,3.43064,3.43064,0,0,1,.089-0.788,2.86133,2.86133,0,0,1,.257-0.686,2.779,2.779,0,0,1,.387-0.563,2.438,2.438,0,0,1,.499-0.411,2.49915,2.49915,0,0,1,.572-0.265,2.2402,2.2402,0,0,1,.62-0.09,3.39737,3.39737,0,0,1,.693.057,1.7837,1.7837,0,0,1,.499.161l-0.064,1.119h-0.218l-0.032-.145a1.062,1.062,0,0,0-.121-0.323,0.69954,0.69954,0,0,0-.185-0.217,0.67543,0.67543,0,0,0-.267-0.12,1.63083,1.63083,0,0,0-.37-0.041,1.29828,1.29828,0,0,0-.589.146,1.568,1.568,0,0,0-.499.435,2.25839,2.25839,0,0,0-.346.693,2.81923,2.81923,0,0,0-.137.934,3.17384,3.17384,0,0,0,.129.966,1.84864,1.84864,0,0,0,.338.668,1.25439,1.25439,0,0,0,.475.388,1.27208,1.27208,0,0,0,.557.129,1.3606,1.3606,0,0,0,.691-0.146,1.001,1.001,0,0,0,.371-0.475l0.081-.194h0.217Z" style="fill:#010101"/><path d="M123.549,33.441a0.78451,0.78451,0,0,1-.137.104c-0.048.032-.096,0.065-0.153,0.098a1.3788,1.3788,0,0,1-.152.079,1.45848,1.45848,0,0,1-.226-0.209,1.14956,1.14956,0,0,1-.152-0.258,1.07626,1.07626,0,0,1-.193.146,1.71851,1.71851,0,0,1-.275.137,1.96173,1.96173,0,0,1-.33.105,1.3513,1.3513,0,0,1-.361.039,1.38189,1.38189,0,0,1-.459-0.071,0.9,0.9,0,0,1-.355-0.242,1.12673,1.12673,0,0,1-.225-0.411,2.16265,2.16265,0,0,1-.073-0.596V30.3L120,30.074V29.905a3.42363,3.42363,0,0,1,.507-0.113,1.88243,1.88243,0,0,1,.395-0.04h0.266l-0.048.451v1.82a2.38868,2.38868,0,0,0,.048.53,0.902,0.902,0,0,0,.146.348,0.59783,0.59783,0,0,0,.25.185,0.88078,0.88078,0,0,0,.338.057,1.32264,1.32264,0,0,0,.226-0.023,0.98746,0.98746,0,0,0,.217-0.05c0.064-.023.129-0.047,0.194-0.072a0.92171,0.92171,0,0,0,.153-0.088V30.301l-0.468-.226V29.906a3.407,3.407,0,0,1,.508-0.113,1.93775,1.93775,0,0,1,.402-0.04h0.267l-0.05.451v2.722a1.10933,1.10933,0,0,0,.129.209,1.99326,1.99326,0,0,0,.178.21c-0.037.032-.069,0.065-0.109,0.096" style="fill:#010101"/><path d="M125.682,33.595c-0.072.016-.146,0.032-0.218,0.041-0.072.008-.152,0.016-0.241,0.023-0.08,0-.17.007-0.274,0.007-0.096,0-.201-0.007-0.305-0.015a1.10984,1.10984,0,0,1-.298-0.057V33.456a0.5281,0.5281,0,0,0,.152-0.071,0.5646,0.5646,0,0,0,.136-0.105,0.47992,0.47992,0,0,0,.105-0.121,0.263,0.263,0,0,0,.032-0.136V28.352l-0.524-.219V27.956c0.089-.024.187-0.048,0.275-0.063,0.089-.018.177-0.033,0.266-0.049,0.08-.009.16-0.017,0.233-0.024,0.072,0,.137-0.008.192-0.008h0.259l-0.041.451v4.992l0.451,0.121v0.153c-0.071.026-.136,0.049-0.2,0.066" style="fill:#010101"/><path d="M127.767,33.699a0.93751,0.93751,0,0,1-.726-0.266,1.28808,1.28808,0,0,1-.232-0.854c0-.191,0-0.394.008-0.596,0.008-.209.008-0.402,0.016-0.588l0.024-1.07h-0.443V30.058l0.87-.861,0.266-.032-0.032.725h1.063l-0.056.436h-1.03l-0.017,1.015c0,0.169-.009.33-0.009,0.49v0.451a2.026,2.026,0,0,0,.033.411,0.77652,0.77652,0,0,0,.104.274,0.41339,0.41339,0,0,0,.152.145,0.4203,0.4203,0,0,0,.201.048,0.896,0.896,0,0,0,.331-0.056,1.10211,1.10211,0,0,0,.267-0.153l0.079,0.032a0.7374,0.7374,0,0,1-.869.716" style="fill:#010101"/><path d="M132.477,33.441a0.83194,0.83194,0,0,1-.138.104c-0.048.032-.096,0.065-0.153,0.098a1.38069,1.38069,0,0,1-.152.079,1.45882,1.45882,0,0,1-.226-0.209,1.18827,1.18827,0,0,1-.152-0.258,1.04175,1.04175,0,0,1-.193.146,1.74806,1.74806,0,0,1-.274.137,1.96173,1.96173,0,0,1-.33.105,1.36341,1.36341,0,0,1-.362.039,1.38189,1.38189,0,0,1-.459-0.071,0.91445,0.91445,0,0,1-.355-0.242,1.127,1.127,0,0,1-.225-0.411,2.16236,2.16236,0,0,1-.073-0.596V30.3l-0.458-.226V29.905a3.452,3.452,0,0,1,.507-0.113,1.88232,1.88232,0,0,1,.395-0.04h0.266l-0.048.451v1.82a2.44939,2.44939,0,0,0,.048.53,0.90205,0.90205,0,0,0,.146.348,0.60411,0.60411,0,0,0,.25.185,0.8841,0.8841,0,0,0,.338.057,1.31266,1.31266,0,0,0,.226-0.023,0.9874,0.9874,0,0,0,.217-0.05c0.064-.023.13-0.047,0.194-0.072a0.92144,0.92144,0,0,0,.153-0.088V30.301l-0.468-.226V29.906a3.40721,3.40721,0,0,1,.508-0.113,1.944,1.944,0,0,1,.402-0.04h0.267l-0.049.451v2.722a1.06038,1.06038,0,0,0,.129.209,1.87,1.87,0,0,0,.177.21c-0.036.032-.069,0.065-0.108,0.096" style="fill:#010101"/><path d="M136.71,33.441a0.78474,0.78474,0,0,1-.137.104c-0.048.032-.096,0.065-0.153,0.098a1.38069,1.38069,0,0,1-.152.079,1.45882,1.45882,0,0,1-.226-0.209,1.18827,1.18827,0,0,1-.152-0.258,1.07683,1.07683,0,0,1-.193.146,1.71875,1.71875,0,0,1-.275.137,1.96173,1.96173,0,0,1-.33.105,1.35121,1.35121,0,0,1-.361.039,1.38189,1.38189,0,0,1-.459-0.071,0.90711,0.90711,0,0,1-.355-0.242,1.127,1.127,0,0,1-.225-0.411,2.16236,2.16236,0,0,1-.073-0.596V30.3l-0.458-.226V29.905a3.42388,3.42388,0,0,1,.507-0.113,1.88232,1.88232,0,0,1,.395-0.04h0.266l-0.048.451v1.82a2.38823,2.38823,0,0,0,.048.53,0.90206,0.90206,0,0,0,.146.348,0.59787,0.59787,0,0,0,.25.185,0.8841,0.8841,0,0,0,.338.057,1.32234,1.32234,0,0,0,.226-0.023,0.9874,0.9874,0,0,0,.217-0.05c0.064-.023.129-0.047,0.194-0.072a0.92144,0.92144,0,0,0,.153-0.088V30.301l-0.469-.226V29.906a3.44567,3.44567,0,0,1,.509-0.113,1.944,1.944,0,0,1,.402-0.04h0.267l-0.05.451v2.722a1.06851,1.06851,0,0,0,.13.209,1.87,1.87,0,0,0,.177.21c-0.03706.032-.06906,0.065-0.10905,0.096" style="fill:#010101"/><path d="M139.897,30.309a1.021,1.021,0,0,1-.097.241,0.87777,0.87777,0,0,0-.241-0.136,0.715,0.715,0,0,0-.258-0.049,1.016,1.016,0,0,0-.709.33v2.562l0.556,0.12V33.53a1.30692,1.30692,0,0,1-.209.063,1.26332,1.26332,0,0,1-.218.041c-0.08.008-.169,0.017-0.257,0.024-0.098,0-.202.008-0.315,0.008-0.12,0-.232-0.008-0.338-0.016a1.12425,1.12425,0,0,1-.306-0.058V33.456a0.552,0.552,0,0,0,.153-0.073,0.58768,0.58768,0,0,0,.137-0.104,0.5382,0.5382,0,0,0,.104-0.121,0.27834,0.27834,0,0,0,.032-0.138V30.298l-0.523-.218V29.903a3.2781,3.2781,0,0,1,.531-0.112,2.96366,2.96366,0,0,1,.436-0.033h0.192v0.564h0.009l0.226-.25a1.13909,1.13909,0,0,1,.338-0.266,0.79908,0.79908,0,0,1,.37-0.089,0.33964,0.33964,0,0,1,.419.347,0.8522,0.8522,0,0,1-.032.245" style="fill:#010101"/><path d="M144.269,30.792a1.081,1.081,0,0,0-.169-0.363,0.66855,0.66855,0,0,0-.257-0.217,0.73426,0.73426,0,0,0-.322-0.073,0.64194,0.64194,0,0,0-.33.098,0.85441,0.85441,0,0,0-.29.25,1.36008,1.36008,0,0,0-.21.37,1.21332,1.21332,0,0,0-.081.45h1.724a1.90555,1.90555,0,0,0-.065-0.515m0.701,0.934h-2.375a1.95494,1.95494,0,0,0,.088.604,1.36876,1.36876,0,0,0,.257.442,1.0696,1.0696,0,0,0,.379.282,1.11926,1.11926,0,0,0,.467.097,1.93852,1.93852,0,0,0,.298-0.024,1.71681,1.71681,0,0,0,.299-0.072,1.64162,1.64162,0,0,0,.29-0.104c0.089-.048.178-0.098,0.25-0.146a0.40655,0.40655,0,0,1,.023.089,0.61553,0.61553,0,0,1,.008.121,0.40469,0.40469,0,0,1-.097.266,0.86505,0.86505,0,0,1-.273.226,1.82253,1.82253,0,0,1-.435.153,2.5897,2.5897,0,0,1-.58.056,1.551,1.551,0,0,1-.644-0.129,1.52159,1.52159,0,0,1-.532-0.37,1.77445,1.77445,0,0,1-.363-0.58,2.28159,2.28159,0,0,1-.128-0.764,2.79248,2.79248,0,0,1,.146-0.937,2.13884,2.13884,0,0,1,.386-0.676,1.50718,1.50718,0,0,1,.532-0.41,1.414,1.414,0,0,1,.619-0.145,1.53576,1.53576,0,0,1,.588.104,1.26528,1.26528,0,0,1,.436.297,1.41972,1.41972,0,0,1,.274.476,1.986,1.986,0,0,1,.096.629v0.241c-0.001.081-.001,0.178-0.009,0.274" style="fill:#010101"/><path d="M148.568,33.667a2.64085,2.64085,0,0,1-.267-0.017,0.8938,0.8938,0,0,1-.258-0.056V33.457a0.40645,0.40645,0,0,0,.218-0.193,0.66733,0.66733,0,0,0,.072-0.339V31.387a2.14267,2.14267,0,0,0-.057-0.499,0.84241,0.84241,0,0,0-.169-0.338,0.62953,0.62953,0,0,0-.25-0.194,0.89256,0.89256,0,0,0-.329-0.056,1.54884,1.54884,0,0,0-.469.072,1.23794,1.23794,0,0,0-.361.178v2.706l0.45,0.12v0.152a2.00527,2.00527,0,0,1-.2.065c-0.073.016-.146,0.032-0.219,0.041q-0.1065.01051-.24,0.024c-0.081,0-.169.007-0.274,0.007-0.097,0-.201-0.007-0.306-0.017a1.13277,1.13277,0,0,1-.299-0.056V33.455a0.55346,0.55346,0,0,0,.153-0.073,0.62377,0.62377,0,0,0,.138-0.104,0.53866,0.53866,0,0,0,.104-0.12,0.27015,0.27015,0,0,0,.032-0.138V30.298l-0.524-.217V29.905a3.417,3.417,0,0,1,.532-0.111,2.9612,2.9612,0,0,1,.435-0.033h0.193v0.435a1.47929,1.47929,0,0,1,.524-0.329,1.86623,1.86623,0,0,1,.668-0.121,1.169,1.169,0,0,1,.459.081,1.00953,1.00953,0,0,1,.354.24,1.1272,1.1272,0,0,1,.234.388,1.91349,1.91349,0,0,1,.081.548v2.255l0.419,0.12V33.53a2.29964,2.29964,0,0,1-.844.137" style="fill:#010101"/><path d="M37.488,37.967a1.11543,1.11543,0,0,0-.153.338l-1.32,4.43-0.315.032-1.119-4.252H34.573l-1.112,4.22-0.306.032-1.506-4.808-0.443-.138V37.652a2.60651,2.60651,0,0,1,.411-0.104,2.4033,2.4033,0,0,1,.41-0.033c0.129,0,.25,0,0.363.008a2.1994,2.1994,0,0,1,.354.064v0.152a0.33756,0.33756,0,0,0-.249.154,0.4906,0.4906,0,0,0,0,.306l0.877,3.245h0.009l0.854-3.486-0.426-.13V37.651a2.33579,2.33579,0,0,1,.434-0.096,2.58911,2.58911,0,0,1,.443-0.033c0.121,0,.233.008,0.354,0.017a1.97308,1.97308,0,0,1,.297.064v0.153a0.30259,0.30259,0,0,0-.16112.39644L35.186,38.174l0.781,3.262h0.008l0.886-3.471-0.492-.153V37.643a3.03167,3.03167,0,0,1,.436-0.096,2.26762,2.26762,0,0,1,.41-0.033,2.68093,2.68093,0,0,1,.282.016c0.081,0.018.161,0.041,0.242,0.065v0.144a1.01558,1.01558,0,0,0-.251.228" style="fill:#010101"/><path d="M40.189,39.892a1.07575,1.07575,0,0,0-.169-0.362,0.65435,0.65435,0,0,0-.259-0.218,0.71256,0.71256,0,0,0-.321-0.072,0.64584,0.64584,0,0,0-.33.097,0.884,0.884,0,0,0-.29.249,1.41,1.41,0,0,0-.209.371,1.21859,1.21859,0,0,0-.081.451h1.724a1.88469,1.88469,0,0,0-.065-0.516m0.702,0.934H38.515a1.93766,1.93766,0,0,0,.089.604,1.36694,1.36694,0,0,0,.257.443,1.07,1.07,0,0,0,.379.281,1.13508,1.13508,0,0,0,.467.097,1.93847,1.93847,0,0,0,.298-0.024,1.83684,1.83684,0,0,0,.299-0.072,1.71525,1.71525,0,0,0,.289-0.104c0.09-.048.178-0.097,0.249-0.145a0.28672,0.28672,0,0,1,.025.089,0.61059,0.61059,0,0,1,.008.121,0.41885,0.41885,0,0,1-.097.265,0.85484,0.85484,0,0,1-.274.225,1.82143,1.82143,0,0,1-.435.154,2.632,2.632,0,0,1-.579.057,1.55152,1.55152,0,0,1-.646-0.13,1.53391,1.53391,0,0,1-.53-0.369,1.79559,1.79559,0,0,1-.363-0.58,2.29347,2.29347,0,0,1-.129-0.766,2.82186,2.82186,0,0,1,.145-0.934,2.1527,2.1527,0,0,1,.388-0.677,1.50119,1.50119,0,0,1,.531-0.41,1.40565,1.40565,0,0,1,.62-0.146,1.53583,1.53583,0,0,1,.588.104,1.2636,1.2636,0,0,1,.435.298,1.36187,1.36187,0,0,1,.273.475,1.9302,1.9302,0,0,1,.098.629v0.241c-0.002.081-.002,0.177-0.009,0.274" style="fill:#010101"/><path d="M42.838,42.799a0.93251,0.93251,0,0,1-.726-0.266,1.28991,1.28991,0,0,1-.232-0.854c0-.192,0-0.395.007-0.596,0.009-.209.009-0.403,0.017-0.588l0.024-1.071H41.485V39.158l0.87-.861,0.266-.033-0.032.725h1.063l-0.056.436H42.565l-0.016,1.014c0,0.169-.009.33-0.009,0.492v0.451a2.09757,2.09757,0,0,0,.032.41,0.73823,0.73823,0,0,0,.105.273,0.38678,0.38678,0,0,0,.152.146,0.41811,0.41811,0,0,0,.201.049,0.908,0.908,0,0,0,.33-0.056,1.06257,1.06257,0,0,0,.266-0.154l0.081,0.032a0.73712,0.73712,0,0,1-.869.717" style="fill:#010101"/><path d="M46.443,39.892a1.057,1.057,0,0,0-.169-0.362,0.6448,0.6448,0,0,0-.258-0.218,0.71381,0.71381,0,0,0-.322-0.072,0.64242,0.64242,0,0,0-.329.097,0.884,0.884,0,0,0-.29.249,1.41246,1.41246,0,0,0-.21.371,1.19791,1.19791,0,0,0-.08.451h1.724a1.882,1.882,0,0,0-.066-0.516m0.702,0.934H44.769a1.96751,1.96751,0,0,0,.089.604,1.38689,1.38689,0,0,0,.258.443,1.07,1.07,0,0,0,.379.281,1.13508,1.13508,0,0,0,.467.097,1.95886,1.95886,0,0,0,.298-0.024,1.825,1.825,0,0,0,.298-0.072,1.69486,1.69486,0,0,0,.29-0.104c0.088-.048.177-0.097,0.249-0.145a0.3569,0.3569,0,0,1,.025.089,0.61059,0.61059,0,0,1,.008.121,0.41438,0.41438,0,0,1-.098.265,0.83936,0.83936,0,0,1-.273.225,1.81444,1.81444,0,0,1-.436.154,2.62274,2.62274,0,0,1-.578.057,1.60834,1.60834,0,0,1-1.177-.499,1.81045,1.81045,0,0,1-.362-0.58,2.29347,2.29347,0,0,1-.129-0.766,2.79562,2.79562,0,0,1,.146-0.934,2.11117,2.11117,0,0,1,.386-0.677,1.50449,1.50449,0,0,1,.532-0.41,1.40565,1.40565,0,0,1,.62-0.146,1.53927,1.53927,0,0,1,.588.104,1.25016,1.25016,0,0,1,.434.298,1.364,1.364,0,0,1,.274.475,1.93048,1.93048,0,0,1,.097.629v0.241c-0.002.081-.002,0.177-0.009,0.274" style="fill:#010101"/><path d="M50.743,42.767c-0.081,0-.169-0.008-0.267-0.016a0.90249,0.90249,0,0,1-.258-0.057V42.557a0.3972,0.3972,0,0,0,.218-0.194,0.65508,0.65508,0,0,0,.073-0.338V40.487a2.20526,2.20526,0,0,0-.057-0.499,0.84721,0.84721,0,0,0-.169-0.339,0.63116,0.63116,0,0,0-.25-0.192,0.891,0.891,0,0,0-.33-0.057,1.50131,1.50131,0,0,0-.467.072,1.25762,1.25762,0,0,0-.362.177v2.706l0.451,0.121v0.153c-0.073.023-.139,0.048-0.202,0.064a1.87365,1.87365,0,0,1-.217.04c-0.073.009-.153,0.017-0.242,0.024-0.08,0-.169.008-0.274,0.008-0.096,0-.201-0.008-0.306-0.016a1.11774,1.11774,0,0,1-.298-0.057V42.555a0.5208,0.5208,0,0,0,.152-0.073,0.53167,0.53167,0,0,0,.138-0.104,0.45272,0.45272,0,0,0,.104-0.12,0.269,0.269,0,0,0,.032-0.137V39.398l-0.522-.217V39.003a3.50269,3.50269,0,0,1,.53-0.113,3.24852,3.24852,0,0,1,.436-0.032h0.192v0.436a1.49946,1.49946,0,0,1,.524-0.33,1.86622,1.86622,0,0,1,.668-0.121,1.19576,1.19576,0,0,1,.459.08,0.98821,0.98821,0,0,1,.354.242,1.11146,1.11146,0,0,1,.233.387,1.88259,1.88259,0,0,1,.081.547v2.255l0.419,0.121v0.153a2.26674,2.26674,0,0,1-.843.139" style="fill:#010101"/><path d="M54.51,42.082a1.18463,1.18463,0,0,1-.306.371,1.4543,1.4543,0,0,1-.475.265,1.80275,1.80275,0,0,1-.612.097,1.37665,1.37665,0,0,1-.774-0.169,0.53839,0.53839,0,0,1-.249-0.492,1.46641,1.46641,0,0,1,.017-0.176,0.82535,0.82535,0,0,1,.056-0.152,2.02116,2.02116,0,0,0,.54.379,1.34939,1.34939,0,0,0,.596.128,0.79328,0.79328,0,0,0,.516-0.146,0.44407,0.44407,0,0,0,.169-0.354,0.4767,0.4767,0,0,0-.032-0.194,0.68287,0.68287,0,0,0-.113-0.169,1.23435,1.23435,0,0,0-.217-0.16,2.54669,2.54669,0,0,0-.33-0.162l-0.403-.169a1.26573,1.26573,0,0,1-.538-0.401,0.99367,0.99367,0,0,1-.187-0.597,1.05123,1.05123,0,0,1,.097-0.452,1.24745,1.24745,0,0,1,.29-0.378,1.45638,1.45638,0,0,1,.443-0.258,1.63755,1.63755,0,0,1,.572-0.096,1.98354,1.98354,0,0,1,.411.04,0.82054,0.82054,0,0,1,.28.096,0.43114,0.43114,0,0,1,.162.154,0.46474,0.46474,0,0,1,.048.209,1.09363,1.09363,0,0,1-.008.169c-0.008.056-.023,0.112-0.033,0.169a1.71757,1.71757,0,0,0-.442-0.217,1.36806,1.36806,0,0,0-.814-0.049,0.74465,0.74465,0,0,0-.232.104,0.53356,0.53356,0,0,0-.146.161,0.55766,0.55766,0,0,0-.041.194,0.69268,0.69268,0,0,0,.024.191,0.426,0.426,0,0,0,.104.162,0.63351,0.63351,0,0,0,.194.146,2.27,2.27,0,0,0,.305.136l0.436,0.17a2.17119,2.17119,0,0,1,.371.185,1.13591,1.13591,0,0,1,.25.218,1.24962,1.24962,0,0,1,.136.274,1.307,1.307,0,0,1,.041.322,1.011,1.011,0,0,1-.106.451" style="fill:#010101"/><path d="M57.843,42.404a0.639,0.639,0,0,1-.226.217,1.56445,1.56445,0,0,1-.362.146,2.37782,2.37782,0,0,1-.508.049,1.49526,1.49526,0,0,1-.627-0.129,1.56953,1.56953,0,0,1-.509-0.379,1.77147,1.77147,0,0,1-.354-0.58,2.1076,2.1076,0,0,1-.129-0.765,2.59139,2.59139,0,0,1,.145-0.894,1.99447,1.99447,0,0,1,.403-0.677,1.63762,1.63762,0,0,1,.604-0.426,1.722,1.722,0,0,1,.74-0.154,1.97319,1.97319,0,0,1,.41.04,0.87115,0.87115,0,0,1,.266.097,0.34255,0.34255,0,0,1,.146.153,0.37532,0.37532,0,0,1,.048.185,0.9724,0.9724,0,0,1-.023.218,1.05362,1.05362,0,0,1-.072.201,2.103,2.103,0,0,0-.451-0.273,1.22793,1.22793,0,0,0-.484-0.098,0.82755,0.82755,0,0,0-.394.098,1.03454,1.03454,0,0,0-.33.298,1.44746,1.44746,0,0,0-.226.459,2.13945,2.13945,0,0,0-.081.628,2.06041,2.06041,0,0,0,.089.629,1.19244,1.19244,0,0,0,.242.451,1.07924,1.07924,0,0,0,.361.273,1.18712,1.18712,0,0,0,.443.089,1.24236,1.24236,0,0,0,.242-0.025,2.29216,2.29216,0,0,0,.24-0.063,2.0419,2.0419,0,0,0,.227-0.104,1.32655,1.32655,0,0,0,.209-0.13,0.52522,0.52522,0,0,1,.041.202,0.45289,0.45289,0,0,1-.08.264" style="fill:#010101"/><path d="M61.921,42.734a3.94768,3.94768,0,0,1-.475.032c-0.081,0-.169-0.008-0.259-0.016a0.86971,0.86971,0,0,1-.258-0.057V42.556a0.47682,0.47682,0,0,0,.219-0.193,0.6657,0.6657,0,0,0,.071-0.339V40.486a1.83487,1.83487,0,0,0-.056-0.499,0.95631,0.95631,0,0,0-.161-0.339,0.6748,0.6748,0,0,0-.258-0.193,0.974,0.974,0,0,0-.346-0.056,2.18519,2.18519,0,0,0-.234.017,1.43552,1.43552,0,0,0-.217.057,1.20293,1.20293,0,0,0-.201.08c-0.057.032-.113,0.064-0.162,0.096v2.706l0.451,0.121v0.153c-0.072.023-.136,0.048-0.201,0.064a1.57729,1.57729,0,0,1-.217.04c-0.073.008-.153,0.017-0.234,0.024-0.089,0-.177.008-0.282,0.008-0.088,0-.192-0.008-0.298-0.016a1.16437,1.16437,0,0,1-.306-0.057V42.555a0.675,0.675,0,0,0,.161-0.073,0.82382,0.82382,0,0,0,.137-0.104,0.3473,0.3473,0,0,0,.097-0.12,0.26794,0.26794,0,0,0,.032-0.138V37.449l-0.522-.218V37.054a3.54676,3.54676,0,0,1,.515-0.113c0.161-.016.314-0.032,0.451-0.032h0.257l-0.04.451v1.925a1.67719,1.67719,0,0,1,.508-0.329,1.84122,1.84122,0,0,1,.66-0.113,1.22513,1.22513,0,0,1,.467.08,0.97957,0.97957,0,0,1,.354.242,1.00313,1.00313,0,0,1,.226.387,1.64634,1.64634,0,0,1,.081.547v2.255l0.418,0.121v0.153a1.56079,1.56079,0,0,1-.378.106" style="fill:#010101"/><path d="M64.882,40.987a2.7369,2.7369,0,0,0-.603.063,1.58607,1.58607,0,0,0-.437.178,0.82556,0.82556,0,0,0-.272.258,0.62076,0.62076,0,0,0-.09.313,0.51122,0.51122,0,0,0,.161.387,0.66178,0.66178,0,0,0,.467.146,1.3706,1.3706,0,0,0,.193-0.017c0.073-.017.146-0.032,0.21-0.048a0.95979,0.95979,0,0,0,.201-0.072,0.88483,0.88483,0,0,0,.169-0.08V40.987h0.001Zm0.693,1.643a1.3321,1.3321,0,0,1-.307.193,1.04546,1.04546,0,0,1-.209-0.169,2.2032,2.2032,0,0,1-.161-0.227,1.014,1.014,0,0,1-.201.154,1.60108,1.60108,0,0,1-.267.12,1.20561,1.20561,0,0,1-.306.081,1.44909,1.44909,0,0,1-.314.032,1.28358,1.28358,0,0,1-.411-0.065,0.94517,0.94517,0,0,1-.32-0.185,0.87566,0.87566,0,0,1-.219-0.289,0.8561,0.8561,0,0,1-.071-0.355,0.926,0.926,0,0,1,.145-0.5,1.199,1.199,0,0,1,.41-0.418,2.23663,2.23663,0,0,1,.653-0.29,3.72546,3.72546,0,0,1,.885-0.104V40.39a3.01607,3.01607,0,0,0-.04-0.531,0.90366,0.90366,0,0,0-.129-0.322,0.46735,0.46735,0,0,0-.225-0.161,1.22316,1.22316,0,0,0-.322-0.04,1.6132,1.6132,0,0,0-.645.137,1.83613,1.83613,0,0,0-.563.387,1.0045,1.0045,0,0,1-.024-0.241,0.82385,0.82385,0,0,1,.072-0.348,0.63324,0.63324,0,0,1,.232-0.249,1.077,1.077,0,0,1,.411-0.16,2.62565,2.62565,0,0,1,.604-0.057,1.92944,1.92944,0,0,1,.548.072,1.1959,1.1959,0,0,1,.403.217,0.97245,0.97245,0,0,1,.257.338,1.11968,1.11968,0,0,1,.089.451,1.45917,1.45917,0,0,1-.008.17,2.10645,2.10645,0,0,1-.008.217c0,0.073-.009.153-0.009,0.227,0,0.072-.008.145-0.008,0.201l-0.023,1.305a0.918,0.918,0,0,0,.129.217,1.10167,1.10167,0,0,0,.192.194,1.06022,1.06022,0,0,1-.24.216" style="fill:#010101"/><path d="M69.214,40.117a1.21171,1.21171,0,0,0-.234-0.418,0.92072,0.92072,0,0,0-.733-0.339,1.57144,1.57144,0,0,0-.402.048,1.23967,1.23967,0,0,0-.339.138v2.73a1.08172,1.08172,0,0,0,.234.048c0.089,0.008.185,0.008,0.281,0.008a1.36219,1.36219,0,0,0,.508-0.097,1.01647,1.01647,0,0,0,.402-0.29,1.55485,1.55485,0,0,0,.274-0.507,2.60032,2.60032,0,0,0,.097-0.741,1.81256,1.81256,0,0,0-.088-0.58m0.62,1.385a2.02632,2.02632,0,0,1-.436.709,1.59864,1.59864,0,0,1-.628.427,1.89681,1.89681,0,0,1-.74.146,1.55054,1.55054,0,0,1-.274-0.025,0.862,0.862,0,0,1-.241-0.071v1.577l0.531,0.113V44.54a1.958,1.958,0,0,1-.451.096,3.81961,3.81961,0,0,1-.563.032c-0.097,0-.201-0.007-0.307-0.016a1.80491,1.80491,0,0,1-.298-0.057V44.458a0.491,0.491,0,0,0,.153-0.073,0.39825,0.39825,0,0,0,.137-0.096,0.473,0.473,0,0,0,.105-0.121,0.32982,0.32982,0,0,0,.031-0.145V39.401l-0.522-.219V39.005a3.48661,3.48661,0,0,1,.539-0.113,3.11939,3.11939,0,0,1,.427-0.031H67.49v0.37a1.68091,1.68091,0,0,1,.475-0.299,1.63481,1.63481,0,0,1,.564-0.112,1.529,1.529,0,0,1,.571.112,1.27384,1.27384,0,0,1,.468.323,1.70694,1.70694,0,0,1,.313.531,2.19411,2.19411,0,0,1,.113.725,2.86476,2.86476,0,0,1-.16.991" style="fill:#010101"/></svg>