<svg xmlns="http://www.w3.org/2000/svg" viewBox="0 0 77 52"><title>tudelft</title><path d="M29.6998,21.044v9.302c-0.03466,3.54955-2.63561,5.66925-6.9578,5.66925s-6.92314-2.11971-6.95869-5.67015V21.044h3.9081v9.09711a2.88778,2.88778,0,0,0,3.05059,3.172,2.88733,2.88733,0,0,0,3.04881-3.172V21.044h3.909Z" style="fill:#010101"/><polygon points="13.689 21.045 13.689 23.75 9.115 23.75 9.115 35.71 5.205 35.71 5.205 23.75 0.632 23.75 0.632 21.045 13.689 21.045" style="fill:#010101"/><path d="M4.79745,18.136l-0.02577-.12437c-0.75-3.44128,1.05655-6.1739,5.37252-8.1245A18.492,18.492,0,0,1,13.121,8.94228c1.77188-.45633,3.60419-0.927,4.87312-2.20561l0.28347-.47512c0.11641,0.01879.11019,0.2559-.02221,0.6156-0.28436.77129-1.36757,1.53363-2.51387,2.34072-1.436,1.01109-2.92085,2.05618-2.92174,3.23369a1.433,1.433,0,0,0,.51184,1.23389,1.81833,1.81833,0,0,0,1.62082.12974,4.39051,4.39051,0,0,0,1.46-.884l0.088-.08142a0.60258,0.60258,0,0,1,.207-0.15748,0.3738,0.3738,0,0,1-.04443.32659c-0.79086,2.76483-3.6584,6.69466-6.99423,6.9103l-0.45586-.00268a1.00284,1.00284,0,0,1,.3741-0.19864l0.5927-.31675a5.2682,5.2682,0,0,0,2.026-3.835,0.82031,0.82031,0,0,0-.08353-0.714c-0.16173-.05637-0.25592.11811-0.40076,0.38207a2.6205,2.6205,0,0,1-2.03225,1.36094,0.97,0.97,0,0,1-.84951-0.69076c-0.25681-.62276.15817-1.23031,0.63713-1.93181a5.62236,5.62236,0,0,0,.96236-1.90138l0.04088-.53686-0.12263-.00984a0.813,0.813,0,0,0-.48163.50286,7.34542,7.34542,0,0,1-2.01092,1.92644c-1.364,1.02809-2.776,2.09107-2.752,4.0533a2.755,2.755,0,0,1-.08086.9914,3.6713,3.6713,0,0,1-.23459-0.8724" style="fill:#010101"/><path d="M47.86027,30.71826c0-2.64046,1.22717-5.46346,4.67052-5.46346,2.7298,0,4.42616,1.83428,4.42616,4.78612v0.87956H49.66237v0.08769c0,2.39351.99346,3.767,2.72625,3.767a2.22974,2.22974,0,0,0,2.55652-2.09644h1.859c-0.32612,2.117-1.92739,3.34017-4.43682,3.34017-3.92232,0-4.507-3.32049-4.507-5.30061M49.7068,29.649L49.705,29.7376h5.38319V29.64991c0-2.032-.95881-3.15138-2.6987-3.15138-1.74345,0-2.66938,1.58463-2.68271,3.15048" style="fill:#010101"/><rect x="59.48326" y="21.04402" width="1.76744" height="14.66615" style="fill:#010101"/><path d="M65.47781,25.56708h0.08708V23.55116c0-1.76269,1.16674-2.81494,3.11991-2.81494,0,0,1.17918.17627,1.30181,0.19506v1.45221c-0.10131-.00895-0.263-0.01969-0.263-0.01969l-0.63-.0349c-1.14187,0-1.76123.238-1.76123,1.48532V25.568H69.6987v1.18378H67.33233v8.95843H65.56578V26.75086H63.56641V25.56708h1.9114Z" style="fill:#010101"/><path d="M74.50962,22.78345v2.78363h2.36814v1.18378H74.50962V33.5171a1.19254,1.19254,0,0,0,1.35158,1.17573s0.76153-.09216.93481-0.11274v1.32247c-0.12974.01253-1.2405,0.11453-1.2405,0.11453-2.81333,0-2.81333-1.26431-2.81333-2.60378V26.75086H70.9854V25.568c0.15818,0,1.75678.00089,1.75678,0.00089v-2.2244c0.10752-.0349,1.57373-0.49928,1.76744-0.561" style="fill:#010101"/><path d="M35.91472,22.63582h-0.0862V34.11659h3.10568c3.0728,0,4.906-2.14387,4.906-5.739s-1.8332-5.74173-4.906-5.74173H35.91472Zm3.0186-1.59179c6.382,0,6.87694,5.61288,6.87694,7.33352,0,1.71975-.49584,7.33174-6.87694,7.33174H33.95623V21.044h4.97709Z" style="fill:#010101"/><path d="M22.742,33.2254a2.81044,2.81044,0,0,0,2.96173-3.08427v-9.183h4.08315v9.3897c-0.04088,4.132-3.32873,5.756-7.04488,5.756-3.717,0-7.00578-1.62311-7.04577-5.756v-9.3897h4.084V30.142A2.8093,2.8093,0,0,0,22.742,33.2254" style="fill:#010101"/><polygon points="5.118 35.797 9.202 35.797 9.202 23.837 13.776 23.837 13.776 20.958 0.545 20.958 0.545 23.837 5.118 23.837 5.118 35.797" style="fill:#010101"/><path d="M14.9258,13.73108c-0.99613.315-2.02247,0.06263-2.0198-1.27862,0.00178-2.04455,4.77-3.758,5.43028-5.54488,0.16439-.44559.17328-0.81156-0.03643-0.80171a4.903,4.903,0,0,0-.367.56907c-1.97626,1.99-5.28544,1.98639-7.826,3.13169-1.66525.7534-6.54548,3.06548-5.4214,8.22292a2.49472,2.49472,0,0,0,.34745,1.06567,1.34241,1.34241,0,0,0,.16706-1.08c-0.03732-3.07174,3.57309-3.928,4.74961-5.935,0.1404-.24069.383-0.57713,0.44075-0.42144a0.81548,0.81548,0,0,1-.03732.40086c-0.36788,1.64906-2.08023,2.70757-1.59505,3.886,0.62825,1.53095,2.44456.39012,3.00172-.59323,0.15017-.272.2337-0.44381,0.33323-0.40891a0.90033,0.90033,0,0,1,.02577.6156,5.16557,5.16557,0,0,1-1.99315,3.78219c-0.41231.32212-1.06189,0.391-.97747,0.63887a0.88007,0.88007,0,0,0,.52517.0349c3.43358-.221,6.30734-4.30026,7.0671-6.96309a0.39954,0.39954,0,0,0,.01955-0.42949c-0.10308-.07963-0.25414.10469-0.407,0.24248a4.28241,4.28241,0,0,1-1.4271.86614" style="fill:#010101"/><path d="M57.044,31.00727V30.04c0-2.857-1.60661-4.87291-4.51413-4.87291-3.2443,0-4.75761,2.52951-4.75761,5.55115,0,3.044,1.308,5.3874,4.595,5.3874,2.45078,0,4.24754-1.17215,4.55411-3.51555H54.88027a2.15993,2.15993,0,0,1-2.49254,2.09644c-1.98071,0-2.63917-1.77522-2.63917-3.67929H57.044Zm-7.25015-1.35736c0.01422-1.60969.981-3.06369,2.59474-3.06369,1.87763,0,2.61162,1.29473,2.61162,3.06369H49.79388Z" style="fill:#010101"/><rect x="59.39618" y="20.95723" width="1.94072" height="14.84063" style="fill:#010101"/><path d="M67.41853,35.797V26.83854h2.36636V25.47939H67.41853V23.81333c0-1.19273.57137-1.39763,1.675-1.39763,0.32434,0,.65223.04205,0.97924,0.05995V20.85433a6.26147,6.26147,0,0,0-1.388-.2058c-1.83676,0-3.2061.927-3.2061,2.90263v1.92823H63.47933v1.35915H65.4787V35.797h1.93983Z" style="fill:#010101"/><path d="M70.90009,25.47939v1.35915h1.75678V33.4142c0,1.37258.01866,2.69146,2.9013,2.69146a7.56161,7.56161,0,0,0,1.32669-.12258V34.48166a4.717,4.717,0,0,1-1.0219.12437,1.108,1.108,0,0,1-1.26538-1.08983V26.83854h2.36815V25.47939H74.59759V22.66355l-1.94072.6165v2.20113l-1.75678-.00179h0Z" style="fill:#010101"/><path d="M35.91472,22.7235h3.0186c3.40692,0,4.8207,2.58857,4.8207,5.65494,0,3.06548-1.41378,5.65046-4.8207,5.65046h-3.0186V22.7235h0ZM33.87,35.797h5.06328c6.3029,0,6.96491-5.37219,6.96491-7.41853,0-2.04723-.662-7.42121-6.96491-7.42121H33.87V35.797h0Z" style="fill:#010101"/></svg>