<svg xmlns="http://www.w3.org/2000/svg" xmlns:xlink="http://www.w3.org/1999/xlink" width="900" height="600" viewBox="0 0 900 600"><path d="M340.7 217.7l-1.6-6.2-2.8-4.6-4-2.8-5.1-1-7.2 2-4.3 4.9-1.4 6.8.9 5.7 2.5 5.4 4.1 4.7v2.3l-6.7 3v.1l4.1 4.8 4.1-5.5h24.4l6.6-1.1 4.2-3.2 2.4-4.8.7-5.9-.9-6.4-2.6-5.3-4.6-3.7-6.8-1.7v2.7l6.1 2.3 3.2 5 .9 7-1.2 7.3-3.2 4-4.7 1.2-4.7-2.7-1.5-7.3-.9-7zm-8.6 17.1l-5.9-1.5-4.1-4-2.3-5.7-.8-6.5.9-5.4 2.7-4.1 4.5-1.6 4.9 1.7 3.1 4.8 1.5 7.3.7 6.4 1.8 6.6v1.8h-7zm-16.5-95.4h55.2v2.5l-5.5 2.1-5.5 2.1-5.6 2.1-5.5 2.1-5.5 2-5.5 2.1-5.5 2.1-5.6 2.1-5.5 2.1-5.5 2.1v3.1l5.5 2 5.5 2.1 5.6 2.1 5.5 2 5.5 2.1 5.5 2.1 5.5 2 5.6 2.1 5.5 2.1 5.5 2v2.5h-12l-6.1.1h-18.4l-6.1.1h-12.3v3.3H377.9v-6.4l-5.5-2-5.5-2-5.5-2.1-5.5-2-5.5-2-5.5-2-5.5-2-5.5-2.1-5.5-2-5.5-2v-2.4l5.5-2.1 5.5-2.1 5.5-2 5.5-2.1 5.5-2.1 5.5-2.1 5.5-2.1 5.5-2 5.5-2.1 5.5-2.1v-6.5H315.6v3.2zM356.1 83v6.7H315.6v2.6H356.1v8.7h4.3v-8.7h5.5l5.8 1 2.7 5.9v1.8h4.5l.2-3-1.5-4.8-4-2.7-6.1-.8h-7.1V83h-4.3zm-23.7-8l-5.2-1.8L323 70l-2.9-4.7-1-6.2.9-5.9 2.6-4.6 4-3.4 5.3-2 6.2-.7 5.7.6 5.1 1.8 4.2 3.2 2.9 4.7 1 6.2-1 6.3-2.7 4.7-4.1 3.1L344 75l-6.1.6-5.5-.6zm-17.3-10.4l2.2 4.8 3.5 3.8 4.7 2.9 5.8 1.8 6.7.6 6.3-.5 5.6-1.6 4.8-2.7 3.7-3.7 2.3-4.9.9-6-.9-6-2.3-4.8-3.7-3.8-4.8-2.7-5.6-1.6-6.3-.5-7.2.7-5.9 2-4.6 3-3.3 4-2 4.6-.7 5.2.8 5.4zM510.4 292l1.3 6 3.1 4.8 4.8 3.2 6.5 1.2 6.8-.9 5.4-2.4 3.5-4.2 1.3-5.6-1.4-5.9-3.5-3.7-4.9-2.2-5.4-1.5h-.1l-6.6-1.7-5-2.6-1.9-4.2 1.3-4.1 3.9-2.7 6.2-1 6.5.9 4.7 3 2.3 5.5h2.7l-1.8-6.5-3.4-4.3-4.8-2.5-6.1-.8-6.1 1-4.5 2.7-2.9 4.1-1 5.1 1.3 5.9 3.5 3.6 4.8 2 5.4 1.3 6.8 1.6 5 2.5 2 4.5-1.4 4.1-4.1 3-6.9 1.2-7.3-1-4.8-3.4-2.6-6.1h-2.6zm-7.8-7.2l-.5-7.4-1.6-6.1-2.7-4.8-3.6-3.5-4.6-2.2-5.4-.7-5.6.9-4.8 2.4-3.8 3.7-2.8 4.8-1.7 5.6-.6 6.3.5 6.3 1.5 5.6 2.6 4.8 3.7 3.6 4.8 2.3 6.1.8 6.9-1.1 5.1-3.2 3.7-4.8 2.4-5.9H499l-2.9 5.6-5.2 3.5-6.8 1.2-7.1-1.4-5.2-3.8-3-5.7-1-6.8h34.8zm-9.4-4.3h-25.4l1.6-6.1 3.2-5 4.9-3.5 6.7-1.3 6.8 1.2 4.8 3.5 2.9 5 1 6.1h-6.5zm-68.9 1.3l1.2-8.5 2.7-4.3 4.6-3.2 6.4-1.2 7.4 1.4 4.2 4 1.3 6.8V306.1h2.6v-29.4l-.3-5.5-1.7-4.8-5.7-4.9-6.9-1.5-5 1-4.3 2.6-4.2 3.9h-2.3v-6.2h-2.6v44.8h2.6V281.8zm-15-38.1h-3.1v7.6h3.1v-7.6zm-.2 62.3v-44.8h-2.6V306h2.6zm-45.6 0V281.7l1.2-8.5 2.7-4.3 4.6-3.2 6.4-1.2 7.4 1.4 4.2 4 1.3 6.8V306h2.6v-29.4l-.3-5.5-1.7-4.8-5.7-4.9-6.9-1.5-5 1-4.3 2.6-4.2 3.9h-2.3v-23.8h-2.6V305.6h2.6zm-12.9-30.7l-2-6.8-3.7-4.8-5.1-2.9-6.5-1-5.8.9-4.8 2.5-3.8 3.8-2.7 4.8-1.7 5.6-.5 6.1.5 6.3 1.5 5.7 2.6 4.7 3.7 3.6 4.9 2.3 6.1.9 6.9-1.2 5.3-3.4 3.7-5.3 2.1-6.8h-2.9l-1.6 5-3.1 3.8-4.5 2.3-5.8.9-6.1-1-4.7-2.9-3.1-4.2-1.8-5.1-.6-5.6.6-5.5 1.8-5.2 3.2-4.3 4.6-2.9 6.1-1.1 6.8 1.3 4.9 3.6 2.9 5.7h2.6z"/><defs><path id="a" d="M20.9 20.4h266.3V88H20.9z"/></defs><clipPath id="b"><use xlink:href="#a" overflow="visible"/></clipPath><path clip-path="url(#b)" d="M255.8 61.2l1.2-8.5 2.7-4.3 4.6-3.2 6.4-1.2 7.4 1.4 4.2 4 1.3 6.8V85.4h2.6V56l-.3-5.5-1.7-4.8-5.7-4.9-6.9-1.5-5 1-4.3 2.6-4.2 3.9h-2.3v-6.2h-2.6v44.8h2.6V61.2zm-12.7 2.9l-.5-7.4-1.6-6.1-2.7-4.8-3.6-3.5-4.6-2.2-5.4-.7-5.6.9-4.8 2.4-3.8 3.7-2.8 4.8-1.7 5.6-.6 6.3.5 6.3 1.5 5.6 2.6 4.8 3.7 3.6 4.8 2.3 6.1.8 6.9-1.1 5.1-3.2 3.7-4.8 2.4-5.9h-3.3l-2.9 5.6-5.2 3.5-6.8 1.2-7.1-1.4-5.2-3.8-3-5.7-1-6.8h34.9zm-9.3-4.3h-25.4l1.6-6.1 3.2-5 4.9-3.5 6.7-1.3 6.8 1.2 4.8 3.5 2.9 5 1 6.1h-6.5zm-41.4-12.1H190l-4.1-4.6-5.2-2.9-5.6-1-5.8.9-4.8 2.5-3.6 3.8-2.5 4.8-1.5 5.5-.5 6.1.4 6.3 1.5 5.7 2.5 4.7 3.6 3.6 4.8 2.3 6.1.9 5.4-1 5.1-3.1 4-4.9h2.4l.2 7.9h2.6V23h-2.6v24.7zm-.7 21.2l-2 5.3-3.4 4.1-4.6 2.7-5.8 1-6.6-1.1-5.3-3.5-3.5-5.5-1.3-7.5.4-6.4 1.9-5.6 3.3-4.4 4.8-2.9 6.2-1 5.6 1 4.6 2.8 3.4 4.1 2.2 5.2.7 5.8-.6 5.9zm-55.3-5.6l.7-7.2 2.3-5.9 4.5-4 7.3-1.4v-5.6l-5.1.9-3.9 3-3.1 5.7h-2.5l-.2-8.4h-2.6v44.8h2.6V63.3zm-35.9-3.1l-6.2 1.6-4.6 2.8-2.8 4-1 5.1 2 7.2 4.9 4.3 6.8 1.4 5.7-.9 5.4-2.5 4.7-4.1h2.3l3 6.7h.1l4.8-4.1-5.5-4.1V53.2l-1.1-6.6-3.2-4.2L111 40l-5.9-.7-6.4.9-5.3 2.6-3.7 4.6-1.7 6.7h2.7L93 48l5-3.2 7-.9 7.3 1.2 4 3.2 1.2 4.7-2.7 4.7-7.3 1.5-7 1zm17.1 8.6l-1.5 5.9-4 4.1-5.7 2.3-6.5.8-5.4-.9-4.1-2.7-1.6-4.5 1.7-4.9 4.8-3.1 7.3-1.5 6.4-.7 6.6-1.8h1.8v7zM50.8 58.2h21l-.7 6.6-2.1 6.3-3.8 5.1-4.9 3.4-5.5 1.8-5.7.6-7-1-5.9-2.7-4.7-4.1-3.4-5.2-2.2-6.2-.7-6.7.4-7.2 1.4-6.4 2.4-5.5 3.4-4.5 4.6-3.3L43 27l6.8-.7 5.8.6 5.3 1.9 4.4 3 3.4 4.1 2 5.1h3.5l-1.9-6-2.9-5-3.9-3.8-4.8-2.7-5.4-1.6-5.9-.5-6.5.6-5.6 1.9-4.8 2.9-3.8 3.9-3 4.8-2.1 5.5-1.2 6.1-.4 6.7.5 7.8 1.5 6.8 2.3 5.7 3.1 4.7 3.8 3.5 4.4 2.6 4.9 1.6 5.5.5 7.7-.9 6.1-2.6 4.7-3.9 3.7-5h2.4v10.7H75V53.1H50.8v5.1z"/><defs><path id="c" d="M580.7 511.7h295.7v65.6H580.7z"/></defs><clipPath id="d"><use xlink:href="#c" overflow="visible"/></clipPath><path clip-path="url(#d)" d="M844.9 550.8l1.2-8.5 2.7-4.3 4.6-3.2 6.4-1.2 7.4 1.4 4.2 4 1.3 6.8V575.1h2.6v-29.4l-.3-5.5-1.7-4.8-5.7-4.9-6.9-1.5-5 1-4.3 2.6-4.2 3.9h-2.3v-6.2h-2.6v44.8h2.6V550.8zm-35.7-.9l-6.2 1.6-4.6 2.8-2.8 4-1 5.1 2 7.2 4.9 4.3 6.8 1.4 5.7-.9 5.4-2.5 4.7-4.1h2.3l3 6.7h.1l4.8-4.1-5.5-4.1v-24.4l-1.1-6.6-3.2-4.2-4.8-2.4-5.9-.7-6.4.9-5.3 2.6-3.7 4.6-1.7 6.8h2.7l2.3-6.1 5-3.2 7-.9 7.3 1.2 4 3.2 1.2 4.7-2.7 4.7-7.3 1.5-7 .9zm17 8.6l-1.5 5.9-4 4.1-5.7 2.3-6.5.8-5.4-.9-4.1-2.7-1.6-4.5 1.7-4.9 4.8-3.1 7.3-1.5 6.4-.7 6.6-1.8h1.8v7zm-56 16.5h3.4l2.2-5.6 2.2-5.5 2.2-5.6 2.2-5.6 2.3-5.6 2.2-5.5 2.2-5.6 2.2-5.6h-3.2l-2.1 5.5-2.1 5.5-2.1 5.5-2.1 5.5-2.1 5.5-2.1 5.5-2.1 5.5H771l-2.1-5.5-2.1-5.5-2.1-5.5-2.1-5.5-2.1-5.5-2.1-5.5-2.1-5.5H753l2.2 5.6 2.1 5.6 2.2 5.5 2.2 5.6 2.2 5.6 2.1 5.6 2.2 5.5 2 5.6zm-81.9-24.2l1.2-8.5 2.7-4.3 4.6-3.2 6.4-1.2 7.4 1.4 4.2 4 1.3 6.8V575.1h2.6v-29.4l-.3-5.5-1.7-4.8-5.7-4.9-6.9-1.5-5 1-4.3 2.6-4.2 3.9h-2.3v-6.2h-2.6v44.8h2.6V550.8zm-15-38.2h-3.1v7.6h3.1v-7.6zM673 575v-44.8h-2.6V575h2.6zm-17.9-20.4l-1 6.8-2.9 5.4-4.7 3.5-6.3 1.3-7.4-1.4-4.2-4.1-1.3-6.5v-29.5h-2.6v29.6l.8 6.5 2.4 5.3 4.5 3.5 6.9 1.3 6-1.2 4.3-2.9 3.2-3.3h2.3v6.2h2.6v-44.9h-2.6v24.4zm-73.4-36.9H601.5V574.9h3.3V517.7H624.6v-5h-42.9v5z"/><path d="M861.3 189.7l6-1.3 4.8-3.1 3.2-4.8 1.2-6.5-.9-6.8-2.4-5.4-4.2-3.6-5.6-1.3-5.9 1.4-3.7 3.5-2.2 4.9-1.5 5.4v.1l-1.7 6.6-2.6 5-4.2 1.9-4.1-1.3-2.7-3.9-1-6.2.9-6.5 3-4.7 5.5-2.3v-2.7l-6.5 1.8-4.3 3.4-2.5 4.8-.8 6.1 1 6.1 2.7 4.5 4.1 2.9 5.1 1 5.9-1.3 3.6-3.5 2-4.8 1.3-5.4 1.6-6.8 2.5-5 4.5-2 4.1 1.4 3 4.1 1.2 6.9-1 7.3-3.4 4.8-6.1 2.6v2.7zm-7.2 7.8l-7.4.5-6.1 1.6-4.8 2.7-3.5 3.6-2.2 4.6-.7 5.4.9 5.6 2.4 4.8 3.7 3.8 4.8 2.8 5.6 1.7 6.3.6 6.3-.5 5.6-1.5 4.8-2.6 3.6-3.7 2.3-4.8.8-6.1-1.1-6.9-3.2-5.1-4.8-3.7-5.9-2.4v3.3l5.6 2.9 3.5 5.2 1.2 6.8-1.4 7.1-3.8 5.2-5.7 3-6.8 1v-34.9zm-4.3 9.3v25.4l-6.1-1.6-5-3.2-3.5-4.9-1.3-6.7 1.2-6.8 3.5-4.8 5-2.9 6.1-1v6.5zm1.4 68.9l-8.5-1.2-4.3-2.7-3.2-4.6-1.2-6.4 1.4-7.4 4-4.2 6.8-1.3H875.5v-2.6H846l-5.5.3-4.8 1.7-4.9 5.7-1.5 6.9 1 5 2.6 4.3 3.9 4.2v2.3h-6.2v2.6h44.8v-2.6h-24.2zm-30.6 15H813v3.1h7.6v-3.1zm54.7.3h-44.8v2.6h44.8V291zm0 45.5H851l-8.5-1.2-4.3-2.7-3.2-4.6-1.2-6.4 1.4-7.4 4-4.2 6.8-1.3H875.3v-2.6H846l-5.5.3-4.8 1.7-4.9 5.7-1.5 6.9 1 5 2.6 4.3 3.9 4.2v2.3H813v2.6H875v-2.6zm-30.7 13l-6.8 2-4.8 3.7-2.9 5.1-1 6.5.9 5.8 2.5 4.8 3.8 3.8 4.8 2.7 5.6 1.7 6.1.5 6.3-.5 5.7-1.5 4.7-2.6 3.6-3.7 2.3-4.9.9-6.1-1.2-6.9-3.4-5.3-5.3-3.7-6.8-2.1v2.9l5 1.6 3.8 3.1 2.3 4.5.9 5.8-1 6.1-2.9 4.7-4.2 3.1-5.1 1.8-5.6.6-5.5-.6-5.2-1.8-4.3-3.2-2.9-4.6-1.1-6.1 1.3-6.8 3.6-4.9 5.7-2.9v-2.6zm5.6 66.9l1.6 6.2 2.8 4.6 4 2.8 5.1 1 7.2-2 4.3-4.9 1.4-6.8-.9-5.7-2.5-5.4-4.1-4.7v-2.3l6.7-3v-.1l-4.1-4.8-4.1 5.5h-24.4l-6.6 1.1-4.2 3.2-2.4 4.8-.7 5.9.9 6.4 2.6 5.3 4.6 3.7 6.8 1.7v-2.7l-6.1-2.3-3.2-5-.9-7 1.2-7.3 3.2-4 4.7-1.2 4.7 2.7 1.5 7.3.9 7zm8.6-17.1l5.9 1.5 4.1 4 2.3 5.7.8 6.5-.9 5.4-2.7 4.1-4.5 1.6-4.9-1.7-3.1-4.8-1.5-7.3-.7-6.4-1.8-6.6v-1.8h7zm16.5 95.4h-55.2v-2.5l5.5-2.1 5.5-2.1 5.6-2.1 5.5-2.1 5.5-2 5.5-2.1 5.5-2.1 5.6-2.1 5.5-2.1 5.5-2.1v-3.1l-5.5-2-5.5-2.1-5.6-2.1-5.5-2-5.5-2.1-5.5-2.1-5.5-2-5.6-2.1-5.5-2.1-5.5-2v-2.5h12.3l6.1-.1h18.4l6.1-.1h12.3v-3.3H813v6.4l5.5 2 5.5 2 5.5 2.1 5.5 2 5.5 2 5.5 2 5.5 2 5.5 2.1 5.5 2 5.5 2v2.4l-5.5 2.1-5.5 2.3-5.5 2-5.5 2.1-5.5 2.1-5.5 2.1-5.5 2.1-5.5 2-5.5 2.1-5.5 2.1v6.5H875v-3.4z"/><g><defs><path id="e" d="M21.8 260.6h64.3v237.5H21.8z"/></defs><clipPath id="f"><use xlink:href="#e" overflow="visible"/></clipPath><path clip-path="url(#f)" d="M48.4 497.1V456.4h-3.8V497.1h3.8zm27.8-61.6v2.3H43.8V413l5.4 3.7 5.5 3.7 5.4 3.7 5.4 3.8 5.5 3.7 5.2 3.9zM24 437.8v2.9h15v8.5h4.7v-8.5H84.4V438l-5-3.5-5-3.5-5-3.5-5.1-3.5-5-3.5-5-3.5-5-3.5-5-3.5h-5.1V437.7H24zM84.2 376l-2.6-4.8-3.9-3.5-4.9-2.4-5.8-1.5-6.3-.8-6.6-.2-7 .3-6.6.8-5.8 1.6-4.8 2.4-3.8 3.5-2.3 4.7-.9 6.1.9 6.1L26 393l3.7 3.5 4.8 2.5 5.7 1.6 6.4.8 6.8.3 6.2-.2 6.2-.7 6-1.4 5.2-2.3 4.2-3.5 2.8-4.8 1-6.4-.8-6.4zm-36.4 22.4l-6.1-.8-5.5-1.8-4.5-2.9-3-4.4-1.1-6.1.9-5.6 2.4-4.3 3.8-3 5.2-2 6.3-1.1 7.4-.3 6.7.3 6.3 1L72 369l4.4 3 2.9 4.2 1 5.8-1 6.1-2.9 4.5-4.3 2.9-5.5 1.8-6.1 1-6.5.3-6.2-.2zM24 351h7.6v-3.7H24v3.7zm32.8-44.5l-3.6-5.4-5.5-3.3-6.9-1.1-6.5 1-5 2.9-3.6 4.1-2.2 4.8-.7 5 .8 6.8 2.3 5.6 3.7 4.2 5.2 2.6 6.5 1 6.7-1.2 5.2-3.5 3.3-5.3v-.2l3.2 4.3 4.6 2.5 5.9.8 6.8-1.5 4.6-3.9 2.7-5.5.9-6.3v-.1l-1-6.2-3.1-5.1-4.8-3.4-5.9-1.3-6.1.9-4 2.5-3.3 4.5v-.2zm22.4 16.7l-3.3 4.5-5.3 1.5-6.9-1.7-3.9-4.7-1.2-6.7 1.1-7 3.5-5.2 6.1-2.1 6.1 1.9 3.7 4.8 1.2 6.9-1.1 7.8zM53.1 322l-2.3 5-4 3.5-5.6 1.2-5.5-1.2-4.3-3.3-2.9-4.9-1-6.1 1-6.8 2.8-5.2 4.2-3.3 5.3-1.1 5.8 1.2 4.1 3.4 2.4 5.1.8 6.4-.8 6.1zM24 277.3v2.9H85v-1.8l-6.1-2.1-3.5-3.5-1.6-4.9-.7-6.3h-3.7v15.8H24z"/></g><path d="M198.4 541.5l-5.4 3.6-3.3 5.5-1.1 6.9 1 6.5 2.9 5 4.1 3.6 4.8 2.2 5 .7 6.8-.8 5.6-2.3 4.2-3.7 2.6-5.2 1-6.5-1.2-6.7-3.5-5.2-5.3-3.3h-.2l4.3-3.2 2.5-4.6.8-5.9-1.5-6.8-3.9-4.6-5.5-2.7-6.3-.9h-.1l-6.2 1-5.1 3.1-3.4 4.8-1.3 5.9.9 6.1 2.5 4 4.5 3.3h-.2zm16.7-22.3l4.5 3.3 1.5 5.3-1.7 6.9-4.7 3.9-6.7 1.2-7-1.1-5.2-3.5-2.1-6.1 1.9-6.1 4.8-3.7 6.9-1.2 7.8 1.1zm-1.2 26l5 2.3 3.5 4 1.2 5.6-1.2 5.5-3.3 4.3-4.9 2.9-6.1 1-6.8-1-5.3-2.8-3.3-4.2-1.1-5.3 1.2-5.8 3.4-4.1 5.1-2.4 6.4-.8 6.2.8zm-60-31.1l-4.8 2.6-3.6 3.9-2.4 4.9-1.5 5.8-.8 6.3-.2 6.6.3 7 .8 6.6 1.6 5.8 2.4 4.8 3.5 3.8 4.7 2.3 6.1.9 6.1-.9 4.7-2.3 3.5-3.7 2.5-4.8 1.6-5.7.8-6.4.3-6.8-.2-6.2-.7-6.2-1.4-6-2.3-5.2-3.5-4.2-4.8-2.8-6.4-1-6.3.9zm22.3 36.4l-.8 6.1-1.8 5.5-2.9 4.5-4.4 3-6.1 1.1-5.6-.9-4.3-2.4-3-3.8-2-5.2-1.1-6.3-.3-7.4.3-6.7 1-6.3 1.9-5.5 3-4.4 4.2-2.9 5.8-1 6.1 1 4.5 2.9 2.9 4.3 1.8 5.5 1 6.1.3 6.5-.5 6.3zm-47.3 16.2h-3.7v7.6h3.7v-7.6zm-39-21.9h1.7l7 .7 5.5 2.1 3.8 3.8 1.6 5.7-1.1 5.2-3.4 4.4-5.3 3-6.7 1.1-6.7-1-5.2-2.7-3.4-4.4-1.2-6.1h-2.9L75 564l2.6 5.4 4 3.5 5.5 2 7 .6 6.4-1.1 5.1-2.7 3.7-4 2.3-5 .8-5.7-.8-5.9-2.9-5.4-6.1-3.7h-.2l4.4-3 2.6-4.6.9-6-1.3-6.7-3.4-4.7-5.1-2.8-6.3-1-6.8.8-6.2 3.3-3 3.9-1.8 4.5-.6 5.3h2.9l1-5.3 2.9-4.1 4.5-2.8 5.9-1 7.1 1.1 5.2 3.5 2 6.2-1.3 5.8-3.5 3.6-5.5 2-7.1.4v4.4zm-56.3-11.5l.9-5.9 3-4.8 4.7-3.4 6-1.2 5.8.9 4.7 2.4 3.1 4 1.1 5.3-1 5.3L59 540l-4.4 3.5-5.4 3.4-5.1 3.2-5.5 4.1-5.6 5.5-2.7 4.3-1.3 4.9-.4 5.6h37.1v-4.7H31.8l1.4-4.8 3.1-4.1 4-3.4 3.7-2.4 4.7-2.6 5-2.9 4.8-3.4 4.1-4.1 2.8-5.2 1-6.7-.7-5.4-2.2-4.6-3.5-3.6-4.8-2.4-6.2-.9-6.2 1-5.1 2.6-3.9 4.2-2.4 5.5-.9 6.7h3.1z"/></svg>