<svg xmlns="http://www.w3.org/2000/svg" viewBox="0 0 261 52"><title>volkskracht</title><polygon points="248.312 16.377 248.104 15.41 247.852 14.441 249.915 14.042 251.146 21.488 251.293 22.456 251.647 21.488 254.025 15.977 254.379 15.01 254.672 14.042 256.631 14.651 253.045 22.709 252.627 23.677 252.272 24.644 249.832 24.644 248.312 16.377" style="fill:#010101"/><path d="M252.223,10.928a7.21055,7.21055,0,0,1,7.38115,7.0358q0.00591,0.24761-.00516.4952c0,4.238-4.028,8.099-8.451,8.099a7.20878,7.20878,0,0,1-7.37639-7.03718q-0.00584-.24793.00539-0.49582c-0.001-4.238,4.026-8.097,8.446-8.097m0-1.822c-5.366,0-10.252,4.596-10.252,9.918a8.989,8.989,0,0,0,8.61438,9.34863q0.28116,0.01149.56262,0.00537c5.366,0,10.255-4.596,10.255-9.92a8.99261,8.99261,0,0,0-8.62384-9.34684Q252.50121,9.1,252.223,9.106" style="fill:#010101"/><path d="M0.459,32.565l0.75-.966a3.25572,3.25572,0,0,0,2.165.833,2.05091,2.05091,0,0,0,.767-4.015l-0.484-.166a2.99324,2.99324,0,0,1-2.299-2.833,3.25076,3.25076,0,0,1,3.549-3.281,4.061,4.061,0,0,1,2.683.999l-0.75,1a2.974,2.974,0,0,0-2.1-.851,1.978,1.978,0,0,0-2.15623,1.782q-0.00791.08326-.00877,0.167a2.066,2.066,0,0,0,1.516,1.882l0.483,0.167a2.99781,2.99781,0,0,1,2.282,2.866,3.36309,3.36309,0,0,1-3.647,3.415,4.347,4.347,0,0,1-2.75-.999" style="fill:#010101"/><path d="M8.67,31.716l0.716-5.097H8.354l0.149-1.101H9.536l0.05-.383L9.67,24.102,9.703,23.07h1.333l-0.351,2.448H12.65l-0.149,1.101H10.536l-0.684,4.88a0.689,0.689,0,0,0,.65.933,1.791,1.791,0,0,0,1.032-.35l0.5,1a3.315,3.315,0,0,1-1.716.482A1.553,1.553,0,0,1,8.67,31.716" style="fill:#010101"/><path d="M14.734,22.387a0.9022,0.9022,0,0,1,.9059-0.89848L15.666,21.489a0.85756,0.85756,0,0,1,.8669.84811q0.00027,0.025-.0009.04989a0.91776,0.91776,0,0,1-.93485.90034L15.584,23.287a0.85547,0.85547,0,0,1-.85115-0.85977L14.734,22.387m1.1,3.132-0.816,5.814-0.067,1.033v1.032H13.585l0.816-5.813,0.067-1.033V25.519h1.366Z" style="fill:#010101"/><path d="M17.232,30.033c0-2.649,1.398-4.714,3.731-4.714a4.16,4.16,0,0,1,2.299.666l-0.55,1.065a3.32882,3.32882,0,0,0-1.899-.55c-1.332,0-2.365,1.233-2.365,3.299,0,1.499.6,2.615,1.716,2.615a2.589,2.589,0,0,0,1.749-.766l0.783,0.85a3.55774,3.55774,0,0,1-2.649,1.066c-1.615.001-2.815-1.232-2.815-3.531" style="fill:#010101"/><path d="M25.577,23.304l0.066-1.033V21.238h1.365l-0.699,4.981-0.232,1.032a2.58189,2.58189,0,0,1,2.481-1.898c1.467,0,2.232,1.116,1.982,2.882l-0.45,3.098-0.065,1.033v1.033H28.609l0.749-4.998c0.167-1.132-.233-1.849-1.017-1.849-1.283,0-2.432,1.782-2.715,4.78l-0.1,1.033v1.033H24.16Z" style="fill:#010101"/><path d="M32.722,31.716l0.716-5.097H32.407l0.148-1.101h1.033l0.05-.383,0.083-1.033,0.034-1.032h1.333l-0.351,2.448h1.966l-0.15,1.101H34.588l-0.683,4.88a0.688,0.688,0,0,0,.648.933,1.78917,1.78917,0,0,0,1.033-.35l0.5,1a3.31239,3.31239,0,0,1-1.716.482,1.5526,1.5526,0,0,1-1.648-1.848" style="fill:#010101"/><path d="M38.769,22.387a0.9022,0.9022,0,0,1,.9059-0.89848L39.701,21.489a0.85756,0.85756,0,0,1,.86691.84811q0.00027,0.025-.0009.04989a0.918,0.918,0,0,1-.93531.90036L39.618,23.287a0.85468,0.85468,0,0,1-.85019-0.85915L38.769,22.387m1.098,3.132-0.815,5.814-0.067,1.033v1.032H37.619l0.816-5.813,0.067-1.033V25.519h1.365Z" style="fill:#010101"/><path d="M41.982,27.651l-0.083-1.033L41.75,25.586l1.266-.184,0.083,1.032V27.25a2.5837,2.5837,0,0,1,2.482-1.899c1.466,0,2.232,1.116,1.982,2.883l-0.45,3.099-0.066,1.032v1.033H45.631l0.75-4.997c0.166-1.134-.234-1.85-1.018-1.85-1.231,0-2.415,1.649-2.715,4.781l-0.1,1.032v1.033H41.182Z" style="fill:#010101"/><path d="M53.608,26.484a3.582,3.582,0,0,0-3.165,3.749c0,1.3.5,2.132,1.3,2.132,1.282,0,2.315-1.799,2.749-4.73l0.149-1.016a4.23466,4.23466,0,0,0-1.033-.135m1.25,6.747c-0.283,1.999-1.633,3.648-3.698,3.648a7.75447,7.75447,0,0,1-2.466-.416l0.351-1.116a6.79167,6.79167,0,0,0,2.148.383,2.579,2.579,0,0,0,2.516-2.398l0.116-.799,0.184-.867a2.54937,2.54937,0,0,1-2.482,1.898c-1.398,0-2.282-1.266-2.282-3.265,0-2.482,1.933-4.947,4.414-4.947a8.678,8.678,0,0,1,2.267.3Z" style="fill:#010101"/><path d="M64.355,27.201c1.532,0,2.449-.8,2.449-2.148a1.646,1.646,0,0,0-1.866-1.633H63.921l-0.532,3.781h0.966Zm-0.433,5.065c1.566,0,2.516-.733,2.516-1.949a1.94086,1.94086,0,0,0-2.149-1.999H63.24l-0.533,3.815a5.91129,5.91129,0,0,0,1.215.133M62.64,24.369l0.066-1.033V22.304h2.382c1.8,0,2.948.982,2.948,2.516a2.82557,2.82557,0,0,1-2.114,2.899,2.3313,2.3313,0,0,1,1.765,2.397c0,2.049-1.433,3.282-3.748,3.282H61.374Z" style="fill:#010101"/><path d="M74.065,27.567a1.059,1.059,0,0,0-1.216-1.099c-1.033,0-1.915.966-2.199,2.398,2.283,0.001,3.415-.382,3.415-1.299m-4.713,2.65c0-3.065,1.732-4.864,3.581-4.864a2.14422,2.14422,0,0,1,2.35474,1.91065q0.00977,0.09388.01126,0.18835c0,1.766-1.434,2.532-4.748,2.532,0,1.632.667,2.433,1.783,2.433a3.98535,3.98535,0,0,0,1.849-.483l0.433,1.032a5.37617,5.37617,0,0,1-2.466.6c-1.715-.002-2.798-1.3-2.798-3.349" style="fill:#010101"/><polygon points="77.229 27.668 77.013 26.635 76.747 25.603 78.08 25.353 79.013 30.8 79.146 31.833 79.528 30.8 81.062 27.418 81.444 26.386 81.794 25.353 83.026 25.786 80.528 31.315 80.095 32.365 79.712 33.398 78.246 33.398 77.229 27.668" style="fill:#010101"/><path d="M88.99,28.867c0-1.466-.733-2.398-1.767-2.398-1.35,0-2.399,1.333-2.399,3.564,0,1.467.733,2.415,1.767,2.415,1.348,0,2.399-1.348,2.399-3.581m-5.382,1.4c0-2.782,1.366-4.947,3.665-4.947,1.749,0,2.933,1.299,2.933,3.331,0,2.782-1.366,4.948-3.665,4.948-1.749,0-2.933-1.3-2.933-3.332" style="fill:#010101"/><path d="M91.62,33.398l0.8-5.747-0.084-1.033-0.149-1.033,1.266-.183,0.084,1.033V27.25a2.35423,2.35423,0,0,1,2.315-1.898,2.2616,2.2616,0,0,1,.467.05l-0.268,1.366a0.88425,0.88425,0,0,0-.416-0.083c-1.149,0-2.248,1.632-2.549,4.646l-0.1,1.033v1.033H91.62v0.001Z" style="fill:#010101"/><path d="M101.009,26.485a3.57949,3.57949,0,0,0-3.165,3.748c0,1.315.5,2.132,1.299,2.132,1.283,0,2.333-1.799,2.766-4.73l0.133-1.017a4.30208,4.30208,0,0,0-1.033-.133m0.399,5.997V31.666a2.55022,2.55022,0,0,1-2.481,1.899c-1.4,0-2.282-1.267-2.282-3.267,0-2.481,1.932-4.946,4.414-4.946a5.3157,5.3157,0,0,1,1.15.133l0.299-2.182,0.066-1.033V21.237h1.366l-1.416,10.029,0.083,1.032,0.167,1.033-1.299.184Z" style="fill:#010101"/><path d="M109.47,27.567a1.059,1.059,0,0,0-1.216-1.099c-1.033,0-1.915.966-2.199,2.398,2.282,0.001,3.415-.382,3.415-1.299m-4.714,2.65c0-3.065,1.731-4.864,3.581-4.864a2.14334,2.14334,0,0,1,2.35373,1.90991q0.00981,0.09425.01127,0.18909c0,1.766-1.433,2.532-4.747,2.532,0,1.632.666,2.433,1.782,2.433a3.98615,3.98615,0,0,0,1.85-.483l0.433,1.032a5.37925,5.37925,0,0,1-2.466.6c-1.715-.002-2.798-1.3-2.798-3.349" style="fill:#010101"/><path d="M111.918,33.398l0.8-5.747-0.084-1.033-0.15-1.033,1.267-.183,0.084,1.033V27.25a2.35236,2.35236,0,0,1,2.314-1.898,2.23044,2.23044,0,0,1,.466.05l-0.266,1.366a0.88425,0.88425,0,0,0-.416-0.083c-1.149,0-2.249,1.632-2.549,4.646l-0.101,1.033v1.033h-1.365v0.001Z" style="fill:#010101"/><path d="M118.197,22.387a0.9022,0.9022,0,0,1,.9059-0.89848L119.129,21.489a0.85756,0.85756,0,0,1,.86691.84811q0.00027,0.02495-.00091.04988a0.91776,0.91776,0,0,1-.93485.90034L119.047,23.287a0.85486,0.85486,0,0,1-.85118-0.85854L118.197,22.387m1.1,3.132-0.816,5.814-0.067,1.033v1.032h-1.366l0.816-5.813,0.067-1.033V25.519h1.366Z" style="fill:#010101"/><path d="M121.411,27.651l-0.083-1.033-0.15-1.032,1.266-.184,0.084,1.032V27.25a2.58252,2.58252,0,0,1,2.481-1.899c1.468,0,2.233,1.116,1.983,2.883l-0.45,3.099-0.065,1.032v1.033H125.06l0.75-4.997c0.167-1.134-.234-1.85-1.017-1.85-1.232,0-2.416,1.649-2.715,4.781l-0.101,1.032v1.033h-1.366Z" style="fill:#010101"/><path d="M133.038,26.484a3.58194,3.58194,0,0,0-3.165,3.749c0,1.3.499,2.132,1.299,2.132,1.284,0,2.315-1.799,2.749-4.73l0.149-1.016a4.24571,4.24571,0,0,0-1.032-.135m1.25,6.747c-0.284,1.999-1.633,3.648-3.698,3.648a7.75577,7.75577,0,0,1-2.467-.416l0.351-1.116a6.79161,6.79161,0,0,0,2.148.383,2.579,2.579,0,0,0,2.516-2.398l0.116-.799,0.184-.867a2.54791,2.54791,0,0,1-2.48,1.898c-1.401,0-2.284-1.266-2.284-3.265,0-2.482,1.933-4.947,4.416-4.947a8.66865,8.66865,0,0,1,2.265.3Z" style="fill:#010101"/><polygon points="141.607 27.668 141.392 26.635 141.123 25.603 142.457 25.353 143.391 30.8 143.523 31.833 143.906 30.8 145.438 27.418 145.821 26.386 146.172 25.353 147.405 25.786 144.906 31.315 144.474 32.365 144.09 33.398 142.623 33.398 141.607 27.668" style="fill:#010101"/><path d="M152.118,26.485a3.581,3.581,0,0,0-3.166,3.748c0,1.299.5,2.132,1.3,2.132,1.283,0,2.332-1.799,2.766-4.73l0.133-1.017a4.30838,4.30838,0,0,0-1.033-.133m0.4,5.997V31.666a2.55193,2.55193,0,0,1-2.481,1.899c-1.401,0-2.283-1.267-2.283-3.267,0-2.481,1.933-4.946,4.415-4.946a8.49473,8.49473,0,0,1,2.248.3l-0.783,5.614,0.083,1.032,0.167,1.033-1.299.184Z" style="fill:#010101"/><path d="M156.613,27.651l-0.083-1.033-0.149-1.032,1.267-.184,0.082,1.032V27.25a2.58279,2.58279,0,0,1,2.482-1.899c1.466,0,2.231,1.116,1.982,2.883l-0.45,3.099-0.066,1.032v1.033h-1.416l0.75-4.997c0.166-1.134-.233-1.85-1.017-1.85-1.232,0-2.415,1.649-2.715,4.781l-0.102,1.032v1.033h-1.364Z" style="fill:#010101"/><polygon points="169.023 24.47 168.808 23.437 168.558 22.404 169.824 22.138 171.257 30.799 171.39 31.832 171.789 30.799 174.588 24.153 174.971 23.12 175.304 22.087 176.521 22.503 172.772 31.332 172.339 32.365 171.956 33.398 170.54 33.398 169.023 24.47" style="fill:#010101"/><path d="M181.36,28.867c0-1.466-.731-2.398-1.766-2.398-1.349,0-2.398,1.333-2.398,3.564,0,1.467.733,2.415,1.767,2.415,1.35,0,2.397-1.348,2.397-3.581m-5.381,1.4c0-2.782,1.366-4.947,3.666-4.947,1.749,0,2.932,1.299,2.932,3.331,0,2.782-1.365,4.948-3.666,4.948-1.749,0-2.932-1.3-2.932-3.332" style="fill:#010101"/><polygon points="185.374 23.304 185.44 22.271 185.44 21.237 186.807 21.237 185.374 31.332 185.324 32.365 185.324 33.398 183.959 33.398 185.374 23.304" style="fill:#010101"/><polygon points="191.021 27.234 191.938 26.202 192.787 25.169 193.703 26.052 190.388 29.384 191.388 30.8 192.188 31.833 193.004 32.865 191.97 33.632 189.155 29.584 188.905 31.333 188.855 32.366 188.855 33.398 187.49 33.398 188.905 23.303 188.971 22.271 188.971 21.238 190.338 21.238 189.221 29.134 191.021 27.234" style="fill:#010101"/><path d="M194.068,32.882l0.633-.983a3.35812,3.35812,0,0,0,1.816.551,1.21081,1.21081,0,0,0,1.265-1.283,1.55843,1.55843,0,0,0-1.166-1.233l-0.116-.049a2.465,2.465,0,0,1-1.732-2.116,2.37421,2.37421,0,0,1,2.582-2.416,4.301,4.301,0,0,1,2.3.65l-0.633.983a3.38463,3.38463,0,0,0-1.834-.517,1.17076,1.17076,0,0,0-1.232,1.232,1.46157,1.46157,0,0,0,1.166,1.183l0.133,0.05a2.47536,2.47536,0,0,1,1.717,2.165,2.421,2.421,0,0,1-2.615,2.466,4.27943,4.27943,0,0,1-2.284-.683" style="fill:#010101"/><polygon points="204.078 27.234 204.995 26.202 205.845 25.169 206.76 26.052 203.445 29.384 204.445 30.8 205.245 31.833 206.061 32.865 205.029 33.632 202.213 29.584 201.963 31.333 201.913 32.366 201.913 33.398 200.547 33.398 201.963 23.303 202.029 22.271 202.029 21.238 203.396 21.238 202.279 29.134 204.078 27.234" style="fill:#010101"/><path d="M207.587,33.398l0.799-5.747-0.083-1.033-0.15-1.033,1.267-.183,0.083,1.033V27.25a2.35423,2.35423,0,0,1,2.315-1.898,2.27121,2.27121,0,0,1,.468.05l-0.269,1.366a0.88022,0.88022,0,0,0-.415-0.083c-1.151,0-2.249,1.632-2.55,4.646l-0.101,1.033v1.033h-1.364v0.001h0Z" style="fill:#010101"/><path d="M216.946,26.485a3.57947,3.57947,0,0,0-3.164,3.748c0,1.299.5,2.132,1.301,2.132,1.281,0,2.331-1.799,2.765-4.73l0.133-1.017a4.31157,4.31157,0,0,0-1.035-.133m0.402,5.997V31.666a2.55168,2.55168,0,0,1-2.483,1.899c-1.398,0-2.28-1.267-2.28-3.267,0-2.481,1.932-4.946,4.412-4.946a8.504,8.504,0,0,1,2.25.3l-0.783,5.614,0.084,1.032,0.166,1.033-1.299.184Z" style="fill:#010101"/><path d="M220.724,30.033c0-2.649,1.398-4.714,3.73-4.714a4.161,4.161,0,0,1,2.3.666l-0.551,1.065a3.32125,3.32125,0,0,0-1.898-.55c-1.332,0-2.366,1.233-2.366,3.299,0,1.499.601,2.615,1.717,2.615a2.59529,2.59529,0,0,0,1.75-.766l0.782,0.85a3.55925,3.55925,0,0,1-2.649,1.066c-1.616.001-2.815-1.232-2.815-3.531" style="fill:#010101"/><path d="M229.067,23.304l0.067-1.033V21.238H230.5l-0.7,4.981-0.233,1.032a2.58424,2.58424,0,0,1,2.483-1.898c1.465,0,2.23,1.116,1.98,2.882l-0.448,3.098-0.067,1.033v1.033H232.1l0.75-4.998c0.165-1.132-.233-1.849-1.018-1.849-1.282,0-2.432,1.782-2.716,4.78l-0.1,1.033v1.033h-1.365Z" style="fill:#010101"/><path d="M236.219,31.716l0.716-5.097h-1.032l0.149-1.101h1.033l0.049-.383,0.085-1.033,0.032-1.032h1.332l-0.35,2.448h1.966l-0.149,1.101h-1.966l-0.683,4.88a0.68813,0.68813,0,0,0,.649.933,1.78137,1.78137,0,0,0,1.032-.35l0.5,1a3.30978,3.30978,0,0,1-1.716.482,1.55151,1.55151,0,0,1-1.647-1.848" style="fill:#010101"/></svg>